<svg xmlns="http://www.w3.org/2000/svg" viewBox="0 0 3000 25.8"><defs><style>.cls-1{fill:#2323b5;}.cls-2{fill:#8383ff;}.cls-3{fill:#f3a748;}.cls-4{fill:#f9d266;}.cls-5{fill:#120e47;}.cls-6{fill:#0b0737;}.cls-7{fill:#686868;}.cls-8{fill:#f0ae42;}</style></defs><g id="katman_2" data-name="katman 2"><g id="katman_1-2" data-name="katman 1"><path id="path2" class="cls-1" d="M2983.13,24.81H2997a2,2,0,0,0,2-2V3a2,2,0,0,0-2-2h-13.89Z"/><path id="path4" class="cls-2" d="M2991.07,20.84H2999V3a2,2,0,0,0-2-2h-7.94V18.86A2,2,0,0,0,2991.07,20.84Z"/><path id="path6" class="cls-3" d="M2999,5h-7.94a2,2,0,0,0-2,2V18.86a2,2,0,0,0,2,2H2999"/><path id="path8" class="cls-4" d="M2999,5v12.9h-7V5Z"/><path id="path10" class="cls-5" d="M2983.13,24.81V1h-10.92l-6.95,4h-7.93V20.84h7.93l6.95,4Z"/><path id="path12" class="cls-5" d="M2957.33,7h-4V18.86h4"/><path id="path14" class="cls-6" d="M2953.36,16.87H1.12V8.93H2953.36"/><path id="path16" class="cls-5" d="M6.2,13.89H2953.36v-5H4.22v3A2,2,0,0,0,6.2,13.89Z"/><g id="g28"><path id="path18" class="cls-7" d="M2962.29,5V20.84h-2V5Z"/><path id="path20" class="cls-7" d="M2966.26,4.4l-1,.56h-1V20.84h1l1,.57Z"/><path id="path22" class="cls-7" d="M2996,7.94v2h-4v-2Z"/><path id="path24" class="cls-7" d="M2996,11.91v2h-4v-2Z"/><path id="path26" class="cls-7" d="M2996,15.88v2h-4v-2Z"/></g><rect id="rect30" class="cls-8" x="2973.2" y="9.92" width="11.91" height="5.95" rx="1.98"/><path id="path32" class="cls-4" d="M2976.93,12.9h8.18v-1a2,2,0,0,0-2-2h-7.2v2A1,1,0,0,0,2976.93,12.9Z"/><path id="path34" class="cls-6" d="M2956.33,16.87h1V7h-2v8.93A1,1,0,0,0,2956.33,16.87Z"/><path id="path36" d="M3000,22.83V3a3,3,0,0,0-3-3h-24.81a1,1,0,0,0-.49.13L2965,4h-7.67a1,1,0,0,0-1,1V6h-3a1,1,0,0,0-1,1v1H1a1,1,0,0,0-1,1v7.94a1,1,0,0,0,1,1H2952.36v1a1,1,0,0,0,1,1h3v1a1,1,0,0,0,1,1H2965l6.72,3.84a1,1,0,0,0,.49.13H2997A3,3,0,0,0,3000,22.83ZM2998,6v13.9h-6.95a1,1,0,0,1-1-1V7a1,1,0,0,1,1-1Zm0-3.3V4h-7.94a2,2,0,0,0-2,2V18.86a3,3,0,0,0,3,3H2998v1a1,1,0,0,1-1,1h-12.9V16.69a3,3,0,0,0,2-2.8v-2a3,3,0,0,0-2-2.8V2h13.23A.67.67,0,0,1,2998,2.65Zm-14.89,12.24h-7.94a1,1,0,0,1-1-1v-2a1,1,0,0,1,1-1h7.94a1,1,0,0,1,1,1v2A1,1,0,0,1,2983.13,14.89ZM2964.27,6v13.9h-2V6ZM2,15.88v-6H2952.36v6Zm2952.37,2V7.94h2v9.92Zm4-11.91h2v13.9h-2Zm7.94,14.32V5.54L2972.48,2h9.66v7h-6.95a3,3,0,0,0-3,3v2a3,3,0,0,0,3,3h6.95v7h-9.66Z"/><path id="path38" d="M2996,7.94v2h-4v-2Z"/><path id="path40" d="M2996,11.91v2h-4v-2Z"/><path id="path42" d="M2996,15.88v2h-4v-2Z"/></g></g></svg>