<svg xmlns="http://www.w3.org/2000/svg" viewBox="0 0 512 512"><g id="katman_2" data-name="katman 2"><g id="katman_1-2" data-name="katman 1"><path d="M268,0c8.46,1.61,17,2.8,25.38,4.91C352.94,20,397.56,72.43,403.21,133.72c6.91,75-41.84,142.26-115.54,158.71a164.88,164.88,0,0,1-33.2,3.43c-42.64.61-84.29,6.4-124.19,22.1-22.61,8.9-43.79,20.35-62.26,36.32s-27.64,36.3-28,60.62c-.16,11.5,0,23,0,34.5C40,464,48,472,62.5,472q133.73,0,267.47,0c7.5,0,13.76,2.21,18.23,8.42A19.84,19.84,0,0,1,340.54,510c-1.49.71-3,1.31-4.54,2H52a31.32,31.32,0,0,0-3.2-1c-17.65-3.79-31.59-13.11-40.41-28.87C4.59,475.3,2.74,467.4,0,460V404a15.81,15.81,0,0,0,.85-2.8C4.78,369.12,19.31,342.8,44,322.12c27.34-22.88,58.69-38.32,92.51-49,9.29-2.91,18.74-5.29,28.14-7.91-.17-.55-.17-.93-.37-1.13-.59-.58-1.26-1.08-1.89-1.63-39.73-34-58-77.06-53.55-129.28C114,74,157.51,21.86,214.79,6c9.56-2.64,19.46-4,29.21-6ZM255.85,256A108.21,108.21,0,0,0,364,148c0-59.36-48.29-107.84-107.61-108C196.78,39.84,148.12,88.2,148,147.72S196.32,255.93,255.85,256Z"/><path d="M408,512c-12-4.05-16.48-12.51-16.13-24.93.51-18.12.13-36.26.13-55.07h-5.57q-26.24,0-52.48,0c-13,0-22-8.32-21.93-20.11S321.08,392,334.18,392H392V335.19c0-14,7.8-23.11,19.87-23.18,12.26-.07,20.12,9.07,20.13,23.43V392h5.59c16.49,0,33,.39,49.47-.13C499.48,391.48,508,396,512,408v8c-4.05,12-12.53,16.52-24.95,16.13-16.48-.52-33-.13-49.47-.13H432c0,18.8-.38,36.95.13,55.07C432.48,499.48,428,507.94,416,512Z"/></g></g></svg>