<?xml version="1.0" encoding="utf-8"?>
<!-- Generator: Adobe Illustrator 24.1.2, SVG Export Plug-In . SVG Version: 6.00 Build 0)  -->
<svg version="1.1" id="katman_1" xmlns="http://www.w3.org/2000/svg" xmlns:xlink="http://www.w3.org/1999/xlink" x="0px" y="0px"
	 viewBox="0 0 300 300" style="enable-background:new 0 0 300 300;" xml:space="preserve">
<path d="M300,134.7c-2.3,5.1-6.4,6.5-11.8,6.5c-92.1-0.1-184.3-0.1-276.4,0c-5.4,0-9.5-1.5-11.8-6.5c0-7.4,0-14.8,0-22.3
	c2.3-5.1,6.3-6.7,11.8-6.5c8.3,0.3,16.6,0,24.9,0.1c2.1,0,3.5-0.6,4.9-2.3c21.6-27.1,43.3-54.1,64.9-81.2c1.9-2.4,4.1-4.2,7.3-4.4
	c3.6-0.2,6.5,1.3,8.2,4.6c1.9,3.5,1.4,6.8-1,9.9c-5.6,7.1-11.3,14.2-17,21.3c-13.3,16.6-26.6,33.2-39.9,49.8
	c-0.5,0.6-0.9,1.2-1.5,2.1c58.4,0,116.4,0,174.9,0c-0.7-1-1.3-1.8-1.9-2.6c-18.7-23.3-37.3-46.6-56-70c-4.6-5.8-2.6-13.2,4.1-14.9
	c4-1,7,0.6,9.5,3.7c14.7,18.5,29.5,36.9,44.3,55.3c7.1,8.9,14.3,17.8,21.4,26.8c1.1,1.4,2.2,1.9,3.9,1.8c8.5-0.1,17,0.2,25.5-0.1
	c5.5-0.2,9.5,1.4,11.8,6.5C300,119.9,300,127.3,300,134.7z"/>
<path d="M19.9,158.9c86.8,0,173.4,0,260.2,0c-0.2,1.1-0.4,2-0.7,2.9c-10.7,37.5-21.4,75-32.2,112.5c-1.5,5.4-4.4,7.6-10,7.6
	c-58.2,0-116.4,0-174.6,0c-5.5,0-8.5-2.2-9.9-7.3C42,236.8,31.2,199,20.5,161.2C20.3,160.5,20.1,159.8,19.9,158.9z M110.4,237.3
	c-0.1-1-0.2-1.9-0.4-2.9c-1.4-8.2-2.7-16.3-4.1-24.5c-1.5-8.8-2.9-17.7-4.5-26.5c-0.8-4.1-4.2-6.9-8.2-7.1c-3.8-0.2-7.6,2.2-8.5,5.9
	c-0.5,2.2-0.4,4.6-0.1,6.9c0.7,5.4,1.7,10.8,2.7,16.2c1.9,11.4,3.8,22.9,5.8,34.3c0.8,4.7,5.1,7.6,9.7,7
	C107.3,246,110.6,242,110.4,237.3z M216.4,186.4c0.2-5.3-2.9-9.2-7.3-9.9c-4.1-0.7-8.4,1.9-9.7,5.9c-0.4,1.1-0.5,2.3-0.7,3.4
	c-2.7,16.1-5.4,32.3-8.1,48.4c-1.1,6.8,1.5,11.5,6.9,12.4c5.4,0.9,9.4-2.8,10.5-9.6c1.4-8.9,2.9-17.7,4.4-26.5
	C213.8,202.2,215.2,193.9,216.4,186.4z M158.8,211.5c0-8.4,0-16.8,0-25.2c0-6-3.5-9.9-8.7-10c-5.2,0-8.9,4-8.9,9.8
	c0,16.9,0,33.7,0,50.6c0,5.9,3.6,9.9,8.9,9.8c5.2,0,8.7-4,8.7-10C158.8,228.3,158.8,219.9,158.8,211.5z"/>
</svg>
