<svg xmlns="http://www.w3.org/2000/svg" viewBox="0 0 374.36 374.49"><g id="katman_2" data-name="katman 2"><g id="katman_1-2" data-name="katman 1"><path d="M99.14,165.82C82.58,153.56,71.11,138,65,118.52,48,64.24,84.66,7.53,141.14.69c50.42-6.11,95.58,29.17,102,79.72,6.31,49.45-30,96.05-79.39,101.59-9.52,1.07-19.23.73-28.67,2.22-47.37,7.44-80.58,33.55-99.72,77.39-6.4,14.66-9.15,30.21-9.29,46.24-.07,8.44-5.22,14-12.66,14.26C5.75,322.32,0,316.69,0,308.78a148.7,148.7,0,0,1,23.15-80.43C41,200,65.58,179.71,96.63,167.24c.58-.23,1.17-.44,1.73-.71A4.77,4.77,0,0,0,99.14,165.82ZM152.43,26.13c-36,0-65.42,29-65.42,65,0,38.91,32.56,66.52,67.5,65.64,34.07-.86,63.29-30.32,63.21-65.47A65.34,65.34,0,0,0,152.43,26.13Z"/><path d="M173.91,274.39a100.41,100.41,0,0,1,87.32-99.33c55.15-7.42,106.29,32.28,112.42,87.34a111.55,111.55,0,0,1,.71,11.56A13,13,0,0,1,362,287.38c-6.89.42-12.88-4.84-13.69-12.13-.61-5.44-.66-11-1.74-16.32-6.87-34.27-38.48-59.48-73.22-58.65-36.34.87-66.44,26.7-72.09,61.86-7.75,48.29,31.61,90.56,80.19,85.82,20.43-2,37.25-11.21,50.29-27.11,2.74-3.34,5.49-6.5,10.08-7.14A13.12,13.12,0,0,1,355.24,320c2.81,4.82,2.4,10.23-1.31,15a100.15,100.15,0,0,1-178.5-44.64C174.55,285.11,174.4,279.72,173.91,274.39Z"/><path d="M273.88,256.5c7.86-7.94,14.85-15.05,21.89-22.1a13.06,13.06,0,0,1,22.12,6.65c1,4.95-.81,9-4.32,12.49-6.91,6.83-13.8,13.68-20.91,20.74,7.22,7.19,14.17,14.13,21.14,21.06,3.41,3.39,5.08,7.43,4.09,12.2a12.52,12.52,0,0,1-9.05,10,12.34,12.34,0,0,1-13-3.32c-7.09-7-14.07-14.13-21.88-22-3,3.3-5.68,6.5-8.58,9.52-4.16,4.3-8.36,8.57-12.71,12.68A13,13,0,0,1,234.23,296c6.05-6.29,12.29-12.4,18.5-18.53a29.73,29.73,0,0,1,3.69-2.61c-7.61-7.6-14.63-14.31-21.25-21.4a18.09,18.09,0,0,1-4.43-8.31c-1.15-5.63,1.93-10.77,6.89-13.27a12.73,12.73,0,0,1,14.88,2.26c6.27,6.07,12.39,12.29,18.52,18.5A34.33,34.33,0,0,1,273.88,256.5Z"/></g></g></svg>