<?xml version="1.0" encoding="utf-8"?>
<!-- Generator: Adobe Illustrator 24.1.2, SVG Export Plug-In . SVG Version: 6.00 Build 0)  -->
<svg version="1.1" id="katman_1" xmlns="http://www.w3.org/2000/svg" xmlns:xlink="http://www.w3.org/1999/xlink" x="0px" y="0px"
	 viewBox="0 0 300 300" style="enable-background:new 0 0 300 300;" xml:space="preserve">
<path d="M173.5,300c-8.3-1.9-16-5.4-21.9-11.6c-13.7-14.3-17.5-31.3-12.3-50.3c1.5-5.5,4-10.9,5-16.5c1.9-11-1.5-20.8-8.6-29.3
	c-0.7-0.9-2.5-1.3-3.8-1.3c-30.6-0.1-61.1,0-91.7-0.1c-12,0-21.4-5-27.2-15.7c-7.5-13.9-2.1-31,11.7-38.6c1-0.6,2.1-1.1,3.3-1.7
	c-3.3-8.5-3.1-17-0.1-25.4c2-5.5,5-10.4,9.4-14.2c1.2-1.1,1.3-2,0.9-3.5C34,76.2,38.1,63.1,49.6,52.1c0.7-0.7,1.5-2.2,1.2-3
	c-5.1-14.2,2.8-37.5,22.8-45.6c4-1.6,8.4-2.4,12.6-3.6c25.8,0,51.6,0,77.4,0c5.2,0.9,10.4,1.4,15.5,2.7c13.2,3.2,26.2,6.7,39.4,9.9
	c4.4,1.1,8.9,1.5,13.4,2.2c0.5-5.6,2.4-7.6,6.8-7.7c15,0,30.1,0,45.1,0c4.3,0,6.4,2.2,6.6,6.5c0,0.6,0,1.2,0,1.8
	c0,55.8,0,111.7,0,167.5c0,0.9,0,1.8-0.1,2.6c-0.4,3.4-2.3,5.5-5.7,5.5c-15.6,0.1-31.2,0.1-46.9,0c-3.4,0-5.3-2-5.7-5.4
	c-0.1-0.5-0.2-1.1-0.3-1.8c-7.4,0.7-13.3,3.4-16,10.5c-1.6,4.3-2.6,9-3.5,13.5c-1.9,9.8-2.9,19.8-7.6,28.7
	c-7.2,13.7-10.3,28.3-10.7,43.6c-0.3,11.1-3.8,15.9-14,19.7C177.8,300,175.6,300,173.5,300z M278.5,179.3c0-53.6,0-106.9,0-160.2
	c-11.7,0-23.1,0-34.8,0c0,10,0,19.7,0,29.5c0,7.8,0,15.6,0,23.4c0,4.2-2.5,6.7-6.1,6.6c-3.4-0.1-5.5-2.5-5.5-6.6
	c0-14.1,0-28.1,0-42.2c0-1.1,0-2.1,0-3.4c-16-1.3-30.9-6.4-46.1-10.1c-8.3-2-16.8-4.2-25.3-4.4c-23.8-0.6-47.6-0.4-71.5-0.2
	c-13.5,0.1-24.1,9-27.3,22c-1,3.9-1.3,7.8,0.4,11.7c2.4-0.2,4.6-0.5,6.8-0.6c4-0.2,6.7,2,7,5.5c0.2,3.3-2.2,6.1-6,6.1
	c-9.6,0-18.4,6.8-21.1,19.3c-0.9,4.2-1,8.4,0.8,12.5c1.5-0.3,2.7-0.5,3.9-0.7c1.4-0.2,2.7-0.3,4.1-0.3c4.3-0.1,7,2,7,5.6
	c0.1,3.6-2.4,5.9-6.7,6.1c-17.5,0.5-23.3,20-19.5,30.2c0.9,2.5,2.2,3.9,5.2,3.5c2.6-0.3,5.3-0.2,7.9-0.2c5.6-0.1,11.1-0.3,16.7-0.2
	c3.3,0,5.6,2.3,5.7,5.4c0.1,3.2-1.8,5.6-5.1,6.1c-1.3,0.2-2.7,0.2-4.1,0.2c-9.2,0.2-18.4,0.3-27.5,0.8c-7.9,0.4-14.7,7-15.6,14.6
	c-1,8.4,3.5,16,11.4,18.6c2.5,0.8,5.4,1.2,8,1.2c37.8,0.1,75.6,0,113.4,0.1c5.1,0,7.8,2,7.9,5.8c0,3.8-2.8,6-8.1,6c-1.5,0-3,0-5,0
	c9.1,15.9,8.9,31.6,2.1,47.9c-4.8,11.5-3.3,23.2,2.8,34.1c4.4,7.9,11.3,12.9,20,15c4.8,1.2,7-0.3,7.8-5.2c0.2-1.2,0.3-2.5,0.3-3.8
	c0.5-16.3,3.7-31.9,11.3-46.5c2.1-4.1,3.4-8.7,4.5-13.2c2-8.3,3.1-16.9,5.4-25.1c3.5-13,12.5-20.1,25.7-21.8c2.3-0.3,2.9-1,2.9-3.2
	c-0.1-13.8-0.1-27.5,0-41.3c0-1,0-2,0.1-2.9c0.3-2.8,2.4-4.9,5.1-5.2c2.7-0.3,5.3,1.3,6.1,4c0.4,1.2,0.4,2.5,0.4,3.7
	c0,16.1,0,32.2,0,48.3c0,1.1,0,2.3,0,3.5C255.5,179.3,266.9,179.3,278.5,179.3z"/>
<path d="M237.7,105c-3.2-0.1-5.7-2.6-5.6-5.8c0-3.2,2.6-5.8,5.8-5.8c3.2,0,6,2.9,5.9,6.1C243.5,102.6,240.9,105,237.7,105z"/>
</svg>
