<svg xmlns="http://www.w3.org/2000/svg" viewBox="0 0 408.78 230.1"><g id="katman_2" data-name="katman 2"><g id="katman_1-2" data-name="katman 1"><path d="M408.78,230c-18.89,0-37.79-.08-56.68.09-3,0-4.39-1-5.67-3.6-7.24-14.8-14.75-29.47-22-44.27-1.23-2.51-2.6-3.4-5.41-3.38-19.56.12-39.12.06-58.68.06h-4.71c.91-2,1.54-3.39,2.24-4.78,7.18-14.39,14.43-28.74,21.51-43.18,1.15-2.35,2.41-3.38,5.12-3.2,4,.26,8,.06,12.63.06L281.11,94c-1.08,1.84-1.82,3-2.49,4.25q-35,64.24-70,128.51c-1.2,2.22-2.36,3.31-5.11,3.31q-100.2-.15-200.4-.08H0c17.61-34.15,35-67.84,52.59-102H13.08c.52-1.39.79-2.34,1.22-3.21,7.52-15.1,15.1-30.18,22.55-45.33a4.35,4.35,0,0,1,4.57-2.79q73.46.11,146.91.06c.87,0,1.75.1,3,.18-.62,1.41-1.06,2.49-1.58,3.53-7.36,14.74-14.79,29.45-22.05,44.24-1.15,2.35-2.42,3.24-5.12,3.22-15.83-.15-31.67,0-47.5-.14-2.57,0-4,.69-5.31,3-8.39,14.95-17,29.8-25.47,44.69-.51.91-1,1.84-1.7,3.21,1.58.09,2.82.23,4.06.23,28.61,0,57.22,0,85.83.09,2.92,0,4.44-.93,5.89-3.42Q228.35,90,278.46,4.49C279.18,3.26,280,2.06,281,.33c1,1.73,1.83,3,2.57,4.36q61.41,110.49,122.81,221c.69,1.24,1.59,2.37,2.39,3.56Z"/><path d="M242.62.21c-2.23,4.46-4.19,8.35-6.13,12.26-6,12-11.92,24-18.05,36-.63,1.22-2.42,2.63-3.68,2.63q-74.59.2-149.19.08a7.51,7.51,0,0,1-1.45-.37c.93-1.9,1.78-3.66,2.65-5.41C73.83,31.21,80.92,17.09,87.9,2.91,88.89.9,90,0,92.4,0Q166.19.12,240,.07C240.65.07,241.31.14,242.62.21Z"/></g></g></svg>