<?xml version="1.0" encoding="utf-8"?>
<!-- Generator: Adobe Illustrator 24.1.2, SVG Export Plug-In . SVG Version: 6.00 Build 0)  -->
<svg version="1.1" id="katman_1" xmlns="http://www.w3.org/2000/svg" xmlns:xlink="http://www.w3.org/1999/xlink" x="0px" y="0px"
	 viewBox="0 0 300 300" style="enable-background:new 0 0 300 300;" xml:space="preserve">
<style type="text/css">
	.st0{fill:#232323;}
</style>
<path class="st0" d="M299.9,151.8c-1.7,3.2-4.3,4.3-7.9,4.2c-7.2-0.2-14.4,0-21.7-0.1c-2.1,0-2.6,0.6-2.5,2.6c0.1,7.5,0.1,15,0,22.5
	c0,4.8-2.1,6.9-7,6.9c-7.5,0-15,0.1-22.5,0c-1.9,0-2.4,0.5-2.4,2.4c0.1,7.4,0.1,14.8,0,22.3c0,5.2-2,7.3-7.3,7.3
	c-7.4,0-14.8,0.1-22.2,0c-2,0-2.7,0.4-2.6,2.5c0.1,7.4,0.1,14.8,0,22.2c0,5.2-2,7.3-7.2,7.3c-7.2,0-14.4,0.2-21.7-0.1
	c-2.8-0.1-3.3,0.9-3.2,3.4c0.2,7.2,0.1,14.4,0,21.7c0,5-2.1,7.1-7.2,7.1c-9.8,0-19.5,0-29.3,0c-5.1,0-7.2-2.1-7.2-7.1
	c0-7.3-0.1-14.6,0.1-22c0.1-2.3-0.4-3.2-3-3.1c-7.3,0.2-14.6,0.1-22,0.1c-5.2,0-7.2-2.1-7.2-7.3c0-7.4-0.1-14.8,0.1-22.2
	c0-2.1-0.6-2.6-2.6-2.5c-7.5,0.1-15,0.1-22.5,0c-4.8,0-6.9-2.1-7-7c0-7.5-0.1-15,0-22.5c0-1.9-0.5-2.4-2.4-2.4
	c-7.4,0.1-14.8,0.1-22.2,0c-5.3,0-7.3-2-7.3-7.2c0-7.4-0.1-14.8,0-22.2c0-2-0.4-2.7-2.5-2.6c-7.2,0.1-14.4-0.1-21.7,0.1
	c-3.6,0.1-6.2-1-7.9-4.2c0-33.4,0-66.8,0-100.2c2-2.4,4.4-3.7,7.8-3.6c7.3,0.3,14.6,0,22,0.1c2,0,2.4-0.6,2.4-2.5
	c-0.1-7.6-0.1-15.2,0-22.8c0-4.6,2.2-6.8,6.8-6.8c20.7,0,41.4,0,62.1,0c4.6,0,6.8,2.3,6.8,6.9c0,7.6,0.1,15.2,0,22.8
	c0,2,0.6,2.4,2.4,2.4c7.4-0.1,14.8-0.1,22.2,0c5.4,0,7.4,2.1,7.4,7.4c0,7.4,0.1,14.8,0,22.2c0,2,0.6,2.5,2.5,2.4
	c5.1-0.1,10.1-0.1,15.2,0c2,0.1,2.6-0.5,2.6-2.6c-0.1-7.5-0.1-15,0-22.5c0-4.8,2.2-7,7-7c7.6,0,15.2-0.1,22.8,0
	c1.8,0,2.3-0.4,2.3-2.2c-0.1-7.6-0.1-15.2,0-22.8c0-4.8,2.2-7,6.9-7c20.6,0,41.2,0,61.8,0c4.9,0,7,2.1,7,7c0,7.5,0.1,15,0,22.5
	c0,2,0.4,2.7,2.5,2.6c7.2-0.1,14.4,0.1,21.7-0.1c3.6-0.1,6.2,1,7.9,4.2c0,8.4,0,16.8,0,25.2c-1.3,2.2-3,4-5.8,4.2
	c-4.4-1-5.9-2.7-5.9-7.3c0-3.9-0.2-7.8,0.1-11.7c0.1-2.4-0.8-2.8-2.9-2.8c-7.1,0.1-14.3,0.1-21.4,0c-5.9,0-7.8-1.9-7.8-8
	c0-7.2-0.1-14.4,0-21.7c0-1.9-0.5-2.5-2.4-2.5c-15.8,0.1-31.6,0.1-47.4,0c-1.9,0-2.5,0.5-2.5,2.4c0.1,7.5,0.1,15,0,22.5
	c0,5-2.1,7.1-7.1,7.1c-7.5,0-15,0.1-22.5,0c-1.9,0-2.5,0.5-2.4,2.5c0.1,7.5,0.1,15,0,22.5c0,5-2.1,7.1-7.1,7.1c-9.8,0-19.5,0-29.3,0
	c-5.2,0-7.2-2.1-7.2-7.4c0-7.2-0.1-14.4,0.1-21.7c0.1-2.4-0.5-3.2-3-3.1c-7.3,0.2-14.6,0.1-22,0.1c-5,0-7.2-2.1-7.2-7.1
	c0-7.5-0.1-15,0-22.5c0-1.9-0.4-2.5-2.4-2.5c-15.8,0.1-31.6,0.1-47.4,0c-2.2,0-2.5,0.8-2.5,2.7c0.1,7.4,0.1,14.8,0,22.3
	c0,5-2.2,7.1-7.2,7.1c-7.5,0-15,0.1-22.5,0c-2,0-2.4,0.6-2.4,2.5c0.1,26.5,0.1,52.9,0,79.4c0,2.4,0.8,2.6,2.8,2.6
	c7.3-0.1,14.6-0.1,22,0c5.2,0,7.3,2.1,7.3,7.3c0,7.4,0.1,14.8,0,22.3c0,2.1,0.6,2.6,2.6,2.6c7.5-0.1,15-0.1,22.5,0
	c4.7,0,6.7,2,6.8,6.8c0,7.5,0.1,15,0,22.5c0,2.1,0.6,2.6,2.6,2.6c7.2-0.1,14.4-0.1,21.7,0c5.8,0,7.8,2,7.8,7.7
	c0,7.2,0.1,14.4,0,21.7c0,2.1,0.4,2.8,2.7,2.8c7.2-0.2,14.4-0.1,21.7-0.1c5.8,0,7.8,2,7.8,7.7c0,7.3,0.1,14.6,0,22
	c0,2,0.6,2.5,2.5,2.5c5.1-0.1,10.2-0.1,15.2,0c2.1,0.1,2.6-0.7,2.6-2.7c-0.1-7.3-0.1-14.6,0-22c0-5.4,2.1-7.5,7.4-7.5
	c7.4,0,14.8-0.1,22.3,0c1.9,0,2.5-0.4,2.5-2.4c-0.1-7.4-0.1-14.8,0-22.3c0-5.4,2.1-7.5,7.4-7.5c7.4,0,14.8-0.1,22.3,0
	c2,0,2.5-0.6,2.4-2.5c-0.1-7.5-0.1-15,0-22.5c0-4.9,2-6.9,7-6.9c7.4,0,14.8-0.1,22.3,0c2.3,0,2.8-0.6,2.7-2.8
	c-0.1-7.2-0.1-14.4,0-21.7c0-5.6,2-7.6,7.5-7.7c7.3,0,14.6-0.1,22,0c2,0,2.7-0.4,2.6-2.5c-0.2-4-0.1-8-0.1-12c0-4.6,1.4-6.3,5.9-7.3
	c2.8,0.2,4.5,2,5.8,4.2C299.9,135,299.9,143.4,299.9,151.8z"/>
<path class="st0" d="M299.9,100.2c0,1.2,0,2.3,0,3.5c-1.3,2.2-3,4-5.8,4.2c-4-0.9-5.9-2.9-5.8-6.1c0.1-3.1,2-5,5.8-5.8
	C296.9,96.2,298.6,98,299.9,100.2z"/>
<path d="M294.1,107.9c0,4.8,0,9.6,0,14.5c-4.4,1-5.9,2.7-5.9,7.3c0,4-0.1,8,0.1,12c0.1,2.1-0.7,2.5-2.6,2.5c-7.3-0.1-14.6-0.1-22,0
	c-5.5,0-7.5,2-7.5,7.7c0,7.2-0.1,14.4,0,21.7c0,2.2-0.5,2.8-2.7,2.8c-7.4-0.1-14.8-0.1-22.3,0c-4.9,0-6.9,2-7,6.9
	c0,7.5-0.1,15,0,22.5c0,1.9-0.5,2.5-2.4,2.5c-7.4-0.1-14.8-0.1-22.3,0c-5.4,0-7.4,2.1-7.4,7.5c0,7.4-0.1,14.8,0,22.3
	c0,2-0.6,2.4-2.5,2.4c-7.4-0.1-14.8,0-22.3,0c-5.3,0-7.4,2.1-7.4,7.5c0,7.3-0.1,14.6,0,22c0,2-0.4,2.7-2.6,2.7
	c-5.1-0.1-10.2-0.1-15.2,0c-1.9,0-2.5-0.5-2.5-2.5c0.1-7.3,0.1-14.6,0-22c0-5.7-2-7.7-7.8-7.7c-7.2,0-14.4-0.1-21.7,0.1
	c-2.3,0.1-2.7-0.7-2.7-2.8c0.1-7.2,0.1-14.4,0-21.7c0-5.7-2-7.7-7.8-7.7c-7.2,0-14.4-0.1-21.7,0c-2,0-2.7-0.5-2.6-2.6
	c0.1-7.5,0.1-15,0-22.5c0-4.8-2-6.8-6.8-6.8c-7.5,0-15-0.1-22.5,0c-2,0-2.7-0.5-2.6-2.6c0.1-7.4,0.1-14.8,0-22.3
	c0-5.2-2.2-7.2-7.3-7.3c-7.3,0-14.6-0.1-22,0c-2,0-2.8-0.2-2.8-2.6c0.1-26.5,0.1-52.9,0-79.4c0-1.9,0.4-2.5,2.4-2.5
	c7.5,0.1,15,0.1,22.5,0c5,0,7.1-2.2,7.2-7.1c0-7.4,0.1-14.8,0-22.3c0-1.9,0.3-2.7,2.5-2.7c15.8,0.1,31.6,0.1,47.4,0
	c2,0,2.4,0.6,2.4,2.5c-0.1,7.5-0.1,15,0,22.5c0,5,2.1,7.1,7.2,7.1c7.3,0,14.6,0.1,22-0.1c2.5-0.1,3,0.7,3,3.1
	c-0.2,7.2-0.1,14.4-0.1,21.7c0,5.3,2,7.3,7.2,7.4c9.8,0,19.5,0,29.3,0c5,0,7.1-2.1,7.1-7.1c0-7.5,0.1-15,0-22.5
	c0-1.9,0.5-2.5,2.4-2.5c7.5,0.1,15,0.1,22.5,0c5,0,7.1-2.1,7.1-7.1c0-7.5,0.1-15,0-22.5c0-2,0.6-2.4,2.5-2.4
	c15.8,0.1,31.6,0.1,47.4,0c1.9,0,2.5,0.6,2.4,2.5c-0.1,7.2,0,14.4,0,21.7c0,6,1.9,8,7.8,8c7.1,0,14.3,0.1,21.4,0
	c2.2,0,3.1,0.4,2.9,2.8c-0.2,3.9-0.1,7.8-0.1,11.7c0,4.6,1.4,6.3,5.9,7.3c0,4.8,0,9.6,0,14.5c-3.9,0.8-5.8,2.7-5.9,5.8
	C288.2,105,290.1,107.1,294.1,107.9z"/>
</svg>
