<?xml version="1.0" encoding="utf-8"?>
<!-- Generator: Adobe Illustrator 24.1.2, SVG Export Plug-In . SVG Version: 6.00 Build 0)  -->
<svg version="1.1" id="katman_1" xmlns="http://www.w3.org/2000/svg" xmlns:xlink="http://www.w3.org/1999/xlink" x="0px" y="0px"
	 viewBox="0 0 300 300" style="enable-background:new 0 0 300 300;" xml:space="preserve">
<path d="M24.9,300c-5.1-2.3-6.5-6.4-6.5-11.8c0.1-51,0.1-101.9,0.1-152.9c0-8,3.1-11.1,11.2-11.1c16,0,32,0.1,47.9,0
	c11.7-0.1,20.5,4.5,26,15c0.1,0.3,0.4,0.5,0.6,0.8c5.4-2.9,10.8-5.8,16.2-8.7c6.2-3.3,12.3-6.7,18.6-9.8
	c12.3-6.2,19.3-16.3,22.2-29.5c2.2-10.1,4.2-20.2,6.4-30.3c1.2-5.9,4.5-8.5,10.5-8.3c25.3,0.8,45.1,24.6,41.9,49.9
	c-1.5,11.9-6,22.7-10.6,33.6c-0.6,1.3-1.1,2.7-1.7,4.1c-0.1,0.2,0,0.4,0,0.9c1,0,2,0,3.1,0c14.4,0,28.8,0,43.3,0
	c10.9,0,19.5,4.5,24.5,14.4c4.7,9.3,4,18.5-2,27.1c-1.3,1.8-1.4,2.9-0.1,4.7c6.7,8.9,6.7,21.6,0,30.6c-1.1,1.5-1.6,2.5-0.3,4.3
	c10.5,14.3,4.6,34-12,40.2c-0.6,0.2-1.2,0.5-1.2,0.5c0.2,4.8,0.9,9.3,0.5,13.6c-1.2,11.4-10.2,20.4-21.5,22.3
	c-0.5,0.1-0.9,0.3-1.4,0.5c-28.3,0-56.5,0-84.8,0c-2.8-0.3-5.6-0.6-8.4-0.9c-15.3-1.4-30.4-4.3-45.1-8.8c-0.7-0.2-2-0.2-2.3,0.2
	c-4.4,5.2-10.2,7.9-16.7,9.4C63.9,300,44.4,300,24.9,300z M183.5,72.1c-1.6,7.3-3.3,14.4-4.7,21.6c-3.9,19.9-14.4,34.8-32.7,44.1
	c-12.7,6.4-25,13.5-37.6,20.2c-1.8,1-2.4,2.1-2.4,4.1c0.1,26.6,0,53.1,0,79.7c0,9.7,0,19.3,0,29c0,1.4,0,2.5,1.9,3
	c16.7,4.9,33.7,8.3,51.1,8.5c26.1,0.4,52.2,0.2,78.3,0.2c5.1,0,8.9-3.7,9-8.5c0.2-4.8-3.4-8.5-8.5-9c-5.6-0.6-9.2-4.2-9-9.1
	c0.2-5.1,4.1-8.4,9.9-8.5c5.2,0,10.3,0,15.5,0c5.7,0,9.6-3.7,9.6-8.8c0-5.1-4-8.7-9.7-8.8c-5.3,0-10.5,0-15.8,0
	c-5.7,0-9.6-3.7-9.6-8.8c0-5.1,4-8.7,9.7-8.7c5.3,0,10.5,0,15.8,0c5.7,0,9.6-3.7,9.6-8.8c0-5.1-4-8.7-9.7-8.7c-5.2,0-10.3,0-15.5,0
	c-5.9,0-9.9-3.6-9.9-8.8c0-5.2,4-8.7,10-8.7c5.5,0,10.9,0.1,16.4,0c5-0.1,8.7-4,8.7-8.8c0-4.8-3.8-8.5-8.8-8.7c-1,0-1.9,0-2.9,0
	c-25,0-50.1,0-75.1,0c-5.7,0-9.6-3.7-9.6-8.8c0-5.1,3.9-8.7,9.7-8.8c3.1,0,6.2,0.1,9.4-0.1c0.8,0,2-0.6,2.2-1.2
	c4.4-11.5,9.4-22.9,12.8-34.8C205.9,90.8,197.9,76.9,183.5,72.1z M36.2,141.8c0,47,0,93.7,0,140.6c1.2,0,2.3,0,3.4,0
	c12.7,0,25.3,0,38,0c8,0,11.1-3.1,11.1-11.1c0-39.4,0-78.9,0-118.3c0-0.9,0-1.8,0-2.6c-0.3-4.7-3.7-8.5-8.4-8.5
	C65.7,141.7,51.1,141.8,36.2,141.8z"/>
<path d="M187.5,0c5,2.3,6.8,6.3,6.5,11.8c-0.3,4.9,0,9.7-0.1,14.6c-0.1,5.4-3.8,9.3-8.8,9.3c-5,0-8.7-3.9-8.8-9.3
	c-0.1-4.9,0.2-9.8-0.1-14.6c-0.3-5.4,1.4-9.4,6.5-11.8C184.4,0,186,0,187.5,0z"/>
<path d="M154.1,41.7c-0.5,3.7-2.1,6.4-5.2,8c-3.2,1.6-6.6,1.5-9.3-1c-4.8-4.4-9.4-9-13.8-13.9c-3-3.3-2.6-8.3,0.5-11.4
	c3.1-3.2,8.3-3.8,11.6-0.7c4.8,4.4,9.4,9.1,13.8,13.9C152.9,37.9,153.3,40,154.1,41.7z"/>
<path d="M216.6,40.7c0.6-1.1,1.3-3.4,2.8-5c3.9-4.3,8-8.3,12.1-12.3c3.8-3.7,9.1-3.6,12.6,0c3.4,3.5,3.4,8.6-0.2,12.4
	c-4,4.2-8.2,8.4-12.4,12.4c-2.8,2.7-6.2,3.3-9.7,1.7C218.5,48.4,216.8,45.6,216.6,40.7z"/>
<path d="M62.3,247.3c4.8,0,8.8,3.9,8.8,8.7c0,4.8-3.9,8.8-8.7,8.8c-4.8,0-8.8-3.9-8.8-8.7C53.6,251.3,57.5,247.3,62.3,247.3z"/>
</svg>
