<?xml version="1.0" encoding="utf-8"?>
<!-- Generator: Adobe Illustrator 24.1.2, SVG Export Plug-In . SVG Version: 6.00 Build 0)  -->
<svg version="1.1" id="katman_1" xmlns="http://www.w3.org/2000/svg" xmlns:xlink="http://www.w3.org/1999/xlink" x="0px" y="0px"
	 viewBox="0 0 373 500" style="enable-background:new 0 0 373 500;" xml:space="preserve">
<style type="text/css">
	.st0{fill:#F15A23;}
</style>
<path id="path3_1_" class="st0" d="M178.2,0.7c2.7-1.5,6.8-0.4,7.8,2.8c1,2.6-0.7,5-2.2,7c-10.2,14.5-17,31.3-20.2,48.7
	c-1.9,0.8-2.5,2.9-1.9,4.8c1,0.3,1.9,0.7,2.9,1c19.8-1.7,39.9-1.4,59.4,2.8c35.5,7.1,68.7,25.1,94.2,50.8
	c25.4,25.4,43.3,58.4,50.5,93.6c8,38.2,3.5,78.8-12.5,114.3c-34,72.6-91.2,134-161.3,172.9c-2.3,1-5.5,1.1-7.1-1.2
	c-1.8-2.4-1.1-5.7,0.7-7.8c9.4-13.2,16-28.3,19.6-44.1c0.7-3.3,1.6-6.6,1.3-10c-1.2-1.5-3.1-1-4.7-1c-34,3.4-69-2.7-99.7-17.7
	c-32.9-15.9-60.8-41.8-79.3-73.3c-17.1-29-26.1-62.7-25.5-96.4c0.1-30.9,8.5-61.6,23.4-88.6C58.4,92.8,112.7,36.8,178.2,0.7
	 M176.3,178c-20.2,2.7-38.9,14.6-50.2,31.5c-7.7,11.6-12.3,25.4-12.2,39.4c-0.6,18.7,6.9,37.5,19.8,51c11.3,12.2,27,20.1,43.5,22.2
	c16.8,2.2,34.3-1.7,48.5-10.9c14.4-9.2,25.4-23.6,30.4-40c9.2-28.4-1.8-61.8-25.9-79.3C214.9,180.3,195.1,175.2,176.3,178L176.3,178
	z"/>
</svg>
