<svg xmlns="http://www.w3.org/2000/svg" viewBox="0 0 1894.74 987.35"><g id="katman_2" data-name="katman 2"><g id="katman_1-2" data-name="katman 1"><path d="M576.13,799.16c13.6-18.07,19.64-28.44,27.84-36.66Q965,401,1326.4,39.8C1373.19-7,1423.25-12.89,1459,24c35,36.16,28.67,84.76-17.15,130.59Q1046.4,550.1,650.92,945.5c-55.75,55.75-93.89,55.77-149.42.25q-234-233.93-468-467.82C7.64,452.13-7.85,423.84,4.1,386.22c16.66-52.48,78.24-73.86,123.29-42.16,10.28,7.23,19.23,16.51,28.18,25.46Q352.42,566.07,548.9,763C557.11,771.19,563.09,781.65,576.13,799.16Z"/><path d="M1005.25,985.41c-47.88.58-72.06-13.63-87.63-41.43-16.34-29.17-13.87-58.17,4.84-85.44,6-8.76,13.84-16.39,21.4-24Q1343.24,435,1743.43,36.3c17.28-17.15,43.35-30,67.33-34.75,32.32-6.41,58.17,12.11,73.87,41.42,15.8,29.5,12.66,58.38-6.41,85.34-6.14,8.69-13.91,16.32-21.48,23.89Q1458.4,550.69,1059.46,948.59C1041.21,966.75,1016.22,978.12,1005.25,985.41Z"/></g></g></svg>