<?xml version="1.0" encoding="utf-8"?>
<!-- Generator: Adobe Illustrator 24.1.2, SVG Export Plug-In . SVG Version: 6.00 Build 0)  -->
<svg version="1.1" id="katman_1" xmlns="http://www.w3.org/2000/svg" xmlns:xlink="http://www.w3.org/1999/xlink" x="0px" y="0px"
	 viewBox="0 0 500 500" style="enable-background:new 0 0 500 500;" xml:space="preserve">
<style type="text/css">
	.st0{fill:#0B1D4B;}
	.st1{fill:#FEFEFE;}
	.st2{fill:#071937;}
	.st3{fill:#081936;}
	.st4{fill:#07193F;}
	.st5{fill:#0E1C31;}
	.st6{fill:#051839;}
	.st7{fill:#0C1B33;}
	.st8{fill:#0D1B31;}
	.st9{fill:#091A44;}
	.st10{fill:#06193C;}
	.st11{fill:#091A35;}
	.st12{fill:#091B45;}
	.st13{fill:#06193D;}
	.st14{fill:#081A41;}
	.st15{fill:#0F1C30;}
	.st16{fill:#06183A;}
	.st17{fill:#101D2F;}
	.st18{fill:#0B1A33;}
	.st19{fill:#061838;}
	.st20{fill:#0A1A34;}
	.st21{fill:#081A43;}
	.st22{fill:#0A1B47;}
	.st23{fill:#091A45;}
	.st24{fill:#05183A;}
	.st25{fill:#081A42;}
	.st26{fill:#0A1B48;}
	.st27{fill:#0A1C49;}
	.st28{fill:#0C1B32;}
	.st29{fill:#091B46;}
	.st30{fill:#145588;}
	.st31{fill:#136295;}
	.st32{fill:#136497;}
	.st33{fill:#136B9E;}
	.st34{fill:#136093;}
	.st35{fill:#13689B;}
	.st36{fill:#136EA0;}
	.st37{fill:#136699;}
	.st38{fill:#136FA1;}
	.st39{fill:#13598B;}
	.st40{fill:#1373A5;}
	.st41{fill:#135B8E;}
	.st42{fill:#135D90;}
	.st43{fill:#144D80;}
	.st44{fill:#145082;}
	.st45{fill:#143E71;}
	.st46{fill:#135C8F;}
	.st47{fill:#0D2150;}
	.st48{fill:#14487B;}
	.st49{fill:#0F2656;}
	.st50{fill:#145285;}
	.st51{fill:#144073;}
	.st52{fill:#13376B;}
	.st53{fill:#122D60;}
	.st54{fill:#102759;}
	.st55{fill:#122B5E;}
	.st56{fill:#144275;}
	.st57{fill:#144477;}
	.st58{fill:#1383B4;}
	.st59{fill:#143F72;}
	.st60{fill:#137CAD;}
	.st61{fill:#1381B2;}
	.st62{fill:#135E91;}
	.st63{fill:#135F92;}
	.st64{fill:#137EAF;}
	.st65{fill:#135A8D;}
	.st66{fill:#112A5C;}
	.st67{fill:#1374A6;}
	.st68{fill:#144376;}
	.st69{fill:#144679;}
	.st70{fill:#14497C;}
	.st71{fill:#1377A9;}
	.st72{fill:#132E62;}
	.st73{fill:#0E2353;}
	.st74{fill:#122C5F;}
	.st75{fill:#133B6E;}
	.st76{fill:#133A6D;}
	.st77{fill:#1378AA;}
	.st78{fill:#13396C;}
	.st79{fill:#0C204F;}
	.st80{fill:#137AAC;}
	.st81{fill:#13588B;}
	.st82{fill:#133669;}
	.st83{fill:#133468;}
	.st84{fill:#137FB0;}
	.st85{fill:#133366;}
	.st86{fill:#0D2151;}
	.st87{fill:#133265;}
	.st88{fill:#0C1E4C;}
	.st89{fill:#135C8E;}
	.st90{fill:#0E2454;}
	.st91{fill:#133064;}
	.st92{fill:#133063;}
	.st93{fill:#132F63;}
	.st94{fill:#0C204E;}
	.st95{fill:#1376A8;}
	.st96{fill:#145487;}
	.st97{fill:#143D70;}
	.st98{fill:#133C6F;}
	.st99{fill:#144174;}
	.st100{fill:#145689;}
	.st101{fill:#144B7E;}
	.st102{fill:#144C7F;}
	.st103{fill:#144F81;}
	.st104{fill:#144F82;}
	.st105{fill:#137BAC;}
	.st106{fill:#144A7D;}
	.st107{fill:#133165;}
	.st108{fill:#0C1F4D;}
	.st109{fill:#132E61;}
	.st110{fill:#133B6F;}
	.st111{fill:#145083;}
	.st112{fill:#13366A;}
	.st113{fill:#0C1F4E;}
	.st114{fill:#133467;}
	.st115{fill:#133367;}
	.st116{fill:#145688;}
	.st117{fill:#135F91;}
	.st118{fill:#14477A;}
	.st119{fill:#11295B;}
	.st120{fill:#132F62;}
	.st121{fill:#0B1D4A;}
	.st122{fill:#112A5D;}
	.st123{fill:#0D2251;}
	.st124{fill:#0F2555;}
	.st125{fill:#071940;}
	.st126{fill:#102758;}
	.st127{fill:#144E80;}
	.st128{fill:#0D204F;}
	.st129{fill:#0F2556;}
	.st130{fill:#13386C;}
	.st131{fill:#0B1E4C;}
	.st132{fill:#133266;}
	.st133{fill:#0A1B46;}
</style>
<path class="st0" d="M5.2,215.8c6.9-48.1,26.3-90.7,58-127.5c21.9-25.4,48-45.4,78.1-60.1c24-11.7,49.2-19.4,75.7-22.8
	c33.7-4.4,66.9-2.2,99.5,7c34.2,9.6,64.9,25.9,92.1,48.8c26.5,22.3,47.4,49,62.7,80.1c9.3,18.9,16,38.7,20.3,59.3
	c0.1,0.4,0,0.8,0.1,1.2c-0.7,0.3-1.3,0-1.8-0.5c-1.1-2.1-1.2-4.4-1.9-6.6c-1.4-6.3-3.2-12.5-5-18.6c-1.3-4.3-2.7-8.5-4.4-12.6
	c-0.9-2.5-1.9-4.9-2.9-7.4c-2-4.3-3.4-8.9-5.8-13c-3.2-6-6.2-12.2-9.8-18c-2.5-4.8-5.6-9.2-8.7-13.7c-4.2-5.5-8.1-11.3-12.7-16.6
	c-2.6-3-5-6.1-7.7-8.9c-2-3-5-5.1-7.3-7.9c-0.8-1.3-1.9-2.2-2.9-3.2c-0.2-0.2-0.5-0.5-0.7-0.7c-2-1.6-3.9-3.3-5.6-5.1
	c-0.2-0.2-0.5-0.5-0.7-0.7c-1.4-1.2-2.9-2.4-4.3-3.6c-1.8-1-3.2-2.6-4.9-3.9c-1.6-1.3-3.2-2.6-4.9-3.9c-2-1.5-3.9-3-5.9-4.4
	c-2.7-2-5.4-4-8.2-5.8c-1.4-0.9-2.7-1.9-4.2-2.6c-1.2-0.8-2.4-1.7-3.7-2.3c-3.9-2.3-7.7-4.7-11.7-6.7c-5.1-2.9-10.5-5.4-15.9-7.9
	c-1.2-0.5-2.4-1-3.6-1.5c-6.9-2.9-13.8-5.7-21-7.8c-15.9-5.3-32.2-8.8-48.9-10.5c-1.3-0.1-2.6-0.4-3.8-0.6c-0.9-0.3-1.8-0.4-2.8-0.3
	c-1.2,0-2.5,0-3.7-0.2c-1.1-0.4-2.2-0.3-3.3-0.3c-2.3,0-4.7,0.2-7-0.2c-4.4-0.6-8.7-0.5-13.1-0.1c-5.7,0.3-11.5,0.5-17.2,1.1
	c-16.1,1.8-31.9,4.7-47.4,9.5c-1.4,0.4-2.8,0.8-4.2,1.2c-7.1,2.1-13.9,5-20.7,7.7c-1.4,0.7-2.9,1.1-4.3,1.8
	c-5.3,2.4-10.6,4.8-15.5,7.7c-3.7,1.7-7.1,3.9-10.5,5.9c-1.4,0.7-2.7,1.7-4,2.5c-1.9,1-3.6,2.3-5.3,3.4c-2.7,1.9-5.4,3.7-7.9,5.6
	c-2,1.4-3.9,2.9-5.9,4.4c-1.7,1.2-3.3,2.6-4.9,3.9c-1.7,1.2-3.2,2.6-4.7,3.9c-1.2,1.2-2.7,2.1-3.9,3.4c-0.4,0.4-0.8,0.8-1.1,1.2
	c-1.8,1.8-3.9,3.2-5.6,5.1c-0.2,0.2-0.5,0.5-0.7,0.7c-1,1-2,2-3,3c-2.3,2.4-4.9,4.5-6.8,7.2c-2.7,2.8-5.2,5.7-7.7,8.7
	c-1,1.1-1.8,2.4-2.9,3.4c-0.3,0.3-0.5,0.7-0.7,1.1c-1.1,1.4-2.2,2.8-3.3,4.2c-0.5,0.7-1.1,1.3-1.6,2.1c-1.9,2.3-3.6,4.8-5.3,7.3
	c-1.3,1.7-2.5,3.4-3.5,5.3c-1.5,2.2-3,4.5-4.3,6.8c-1.2,1.9-2.2,3.9-3.4,5.8c-0.2,0.4-0.4,0.8-0.6,1.2c-1.3,2-2.3,4.1-3.4,6.3
	c-1.4,2-2.3,4.2-3.4,6.4c-1.8,4-3.7,7.9-5.3,12c-1,2.2-1.9,4.5-2.7,6.8c-0.1,0.2-0.1,0.4-0.2,0.7c-0.6,1.7-1.3,3.4-1.9,5.2
	c-0.2,0.5-0.4,1.1-0.6,1.6c-0.8,1.7-1.3,3.5-1.9,5.3c-0.5,1.8-1,3.5-1.5,5.3c-0.8,2.1-1.1,4.3-1.9,6.4c-0.4,1.4-0.6,2.9-1,4.3
	c-0.4,1.3-0.7,2.6-1,3.9c-0.4,1.4-0.6,2.9-1,4.3c-0.3,0.7-0.3,1.5-0.4,2.2c-0.3,1.6-0.7,3.2-0.8,4.9c0.1,2.5,0.3,2.8,2.8,2.9
	c1.1,0.1,2.1,0,3.2,0c38.8,0,77.6,0,116.4,0c28.6,0,57.3,0,85.9,0c1.7,0,3.4-0.2,5,0.7c0.9,2-0.8,4.6-3.7,5.4
	c-1.3-0.3-2.6-0.3-3.9-0.3c-67.9,0-135.7,0-203.6-0.1C9.1,215,7.2,216,5.2,215.8z"/>
<path class="st0" d="M493.2,210.4c1.3,5.5,1.8,11.1,2.3,16.6c1.8,18.3,1.4,36.6-1,54.8c-2.7,20.7-7.9,40.8-15.7,60.2
	c-13,32.3-32,60.8-57,85c-35.8,34.6-78.1,56.5-127.1,65.8c-25.1,4.7-50.3,5.5-75.5,2.3c-49.8-6.4-93.8-26-131.6-59
	c-35-30.5-59-68.1-73.5-112.1c-9-27.2-11-55-10.7-83.2c0-4.7,0-9.4,0.7-14.1c0.4-0.6-0.2-2.2,1.5-1.4c0.4,0.4,0.5,0.9,0.5,1.4
	c0.1,0.6,0,1.3-0.1,1.9c-0.3,1-0.4,2-0.4,3c0,0.7,0,1.3,0,2c0,0.4,0,0.8,0,1.2c0.3,3.5-0.5,7-0.4,10.5c0.3,21.2,1.5,42.2,6.4,62.9
	c1.1,4.6,2.3,9.2,4,13.6c1.6,5.2,3.5,10.4,5.3,15.5c1.1,2.8,2.2,5.6,3.4,8.4c0.9,2.3,1.9,4.5,2.9,6.8c0.5,1,1,2,1.5,3
	c0.5,1,1,2,1.5,3c0.6,1.3,1.3,2.6,1.9,3.9c0.5,1,0.9,2,1.5,3c0.7,1.5,1.7,2.8,2.4,4.3c0.3,0.7,0.6,1.4,1.1,2
	c0.6,0.9,1.1,1.9,1.6,2.8c1.1,1.7,2.1,3.3,3.2,5c0.6,1.2,1.3,2.3,2,3.3c1.1,1.7,2.2,3.3,3.3,4.9c0.5,0.8,1,1.6,1.6,2.4
	c1.1,1.6,2.3,3.1,3.4,4.8c0.7,0.8,1.3,1.7,1.9,2.6c0.7,1.1,1.6,2,2.4,3c1.4,2,3,3.7,4.4,5.7c1.6,1.8,3,3.8,4.8,5.4
	c0.9,1.2,1.8,2.4,2.9,3.4c0.5,0.5,1.1,1.1,1.6,1.6c0.7,1,1.4,1.9,2.3,2.7c0.4,0.5,0.9,0.9,1.3,1.4c0.2,0.2,0.4,0.4,0.7,0.7
	c0.2,0.2,0.4,0.4,0.7,0.7c0.4,0.4,0.9,0.9,1.4,1.3c1.3,1.3,2.6,2.6,3.9,3.9c1.9,1.8,4.1,3.3,5.8,5.3c1.7,1.4,3.3,2.8,5,4.2
	c1.6,1.3,3.1,2.8,4.8,4c1.8,1.5,3.7,2.8,5.5,4.3c2.4,1.8,4.7,3.7,7.3,5.3c2,1.3,3.8,2.7,5.8,4c2,1.2,4,2.5,5.9,3.8
	c2,1.2,4,2.4,6,3.6c0.7,0.5,1.4,1,2.2,1.3c0.2,0.1,0.4,0.2,0.6,0.3c1.3,0.8,2.6,1.6,4,2.2c1.9,1,3.8,1.9,5.6,3
	c1.2,0.7,2.5,1.3,3.9,1.9c0.7,0.3,1.5,0.6,2.2,0.9c1.3,0.7,2.6,1.3,3.9,1.9c1.4,0.8,2.9,1.2,4.4,1.9c1.2,0.5,2.3,1,3.5,1.4
	c2.4,1,4.8,2,7.3,2.9c2.9,0.9,5.7,2.2,8.6,3c2.5,1,5,1.5,7.5,2.3c5.2,1.5,10.4,2.8,15.6,4c36,7.9,72,8.1,108-0.2
	c5.2-1,10.2-2.6,15.3-3.9c2.9-0.7,5.7-1.7,8.5-2.7c2.8-0.9,5.5-2.1,8.2-3c2.5-0.7,4.8-2,7.3-2.8c1.2-0.5,2.4-0.8,3.5-1.5
	c1.3-0.7,2.7-1.2,4.1-1.7c1.4-0.4,2.6-1.2,3.9-1.8c0.8-0.3,1.5-0.9,2.3-1.3c1.5-0.6,2.9-1.2,4.2-2c1.7-1.1,3.6-1.9,5.4-2.8
	c1.3-0.7,2.4-1.5,3.7-2c0.2-0.1,0.4-0.2,0.6-0.2c0.7-0.3,1.2-0.9,1.8-1.3c2-1.1,3.9-2.5,6-3.5c2.4-1,4.3-2.8,6.4-4.3
	c1.8-1.1,3.5-2.4,5.3-3.5c2.9-1.5,5-4.1,7.7-5.8c1.9-1.2,3.4-2.9,5.4-4c1.9-1,3-2.8,4.6-4.2c1.8-1.2,3.2-3,5.2-4.1
	c2.2-1.7,3.9-3.8,5.9-5.7c1.3-1.2,2.5-2.5,3.8-3.7c0.5-0.5,1.1-1,1.6-1.5c0.4-0.4,0.7-0.7,1.1-1.1c0.5-0.5,1-1,1.5-1.6
	c0.6-0.7,1.1-1.6,1.8-2.3c0.6-0.6,1.2-1.2,1.9-1.8c0.4-0.4,0.8-0.7,1.1-1.1c0.4-0.4,0.7-0.8,1.1-1.1c1.2-1.1,2.3-2.3,3.2-3.7
	c1.5-1.4,2.7-3.1,3.8-4.9c0.9-1.3,1.9-2.4,3-3.6c2.8-2.6,4.2-6.3,6.8-9.1c1-1,1.7-2.3,2.5-3.4c0.7-1,1.3-2,2-2.9
	c0.8-1,1.3-2.2,1.9-3.3c0.2-0.4,0.4-0.7,0.7-1.1c0.8-1.1,1.4-2.4,2.3-3.5c0.8-1,1.4-2.2,2-3.3c1.1-1.3,1.3-3,2.3-4.4
	c0.8-1.1,1.2-2.3,1.9-3.4c0.4-0.6,0.7-1.3,1.1-1.9c0.3-0.5,0.7-1,1-1.6c0.5-0.9,0.9-1.8,1.4-2.8c0.2-0.4,0.4-0.7,0.6-1.1
	c0.3-0.6,0.7-1.3,0.9-2c0.3-0.8,0.4-1.7,0.9-2.4c0.4-0.6,0.6-1.4,0.9-2c0.3-0.7,0.7-1.3,1-2c0.3-0.6,0.5-1.2,0.7-1.7
	c0.3-0.7,0.6-1.3,0.9-1.9c0.2-0.4,0.3-0.8,0.5-1.1c0.1-0.4,0.4-0.7,0.6-1.1c0.5-0.7,0.7-1.5,1-2.3c0.3-0.9,0.6-1.8,0.9-2.8
	c0.2-0.5,0.3-1,0.5-1.5c0.4-0.8,0.7-1.6,0.9-2.4c0.3-0.8,0.6-1.6,0.9-2.4c0.3-0.7,0.5-1.3,0.8-2c0.2-0.5,0.3-0.9,0.5-1.4
	c0.1-0.2,0.1-0.4,0.2-0.6c0.1-0.4,0.3-0.7,0.4-1.1c0.1-0.3,0.2-0.6,0.3-0.8c0.2-0.4,0.3-0.7,0.5-1.1c0.2-0.5,0.3-1,0.5-1.4
	c0.3-0.9,0.6-1.8,0.9-2.7c0.2-0.6,0.3-1.2,0.4-1.9c0-0.2,0.1-0.4,0.1-0.6c0.2-0.6,0.3-1.3,0.5-1.9c0.3-0.9,0.6-1.8,0.8-2.8
	c0.1-0.4,0.2-0.8,0.3-1.2c0.1-0.3,0.1-0.6,0.2-0.9c0.1-0.4,0.2-0.8,0.4-1.2c0.1-0.3,0.2-0.6,0.3-0.9c0.3-0.9,0.3-1.9,0.6-2.8
	c0.1-0.3,0.1-0.6,0.2-0.9c0.1-0.4,0.3-0.8,0.4-1.2c0.1-0.2,0.1-0.4,0.2-0.6c0.3-0.7,0.2-1.5,0.4-2.2c0.2-0.7,0.2-1.5,0.4-2.3
	c0.2-0.5,0.2-1.1,0.3-1.7c0-0.6,0.1-1.2,0.2-1.7c0.2-0.8,0.3-1.6,0.5-2.4c0.2-0.7,0.3-1.3,0.4-2c0-0.2,0.1-0.5,0.1-0.7
	c0.3-0.8,0.3-1.6,0.5-2.4c0.2-0.7,0.2-1.4,0.3-2.1c0.2-1.1,0.4-2.2,0.4-3.3c0-0.4,0.1-0.8,0.2-1.1c0.4-1.4,0.1-2.8,0.3-4.2
	c0.2-1.3,0.4-2.6,0.6-3.9c0.4-1.4,0.2-2.9,0.4-4.4c0-0.3,0.1-0.6,0.2-0.8c0.6-2.5-0.1-5.1,0.4-7.6c0.7-3.9,0-7.9,0.2-11.9
	c0.1-1.2,0-2.3,0.1-3.5c0-0.6-0.1-1.1,0-1.7c0.3-2.3-0.5-4.5-0.5-6.7c0-1.3,0-2.5,0-3.8c-0.2-1.6-0.6-3.3-0.5-5
	c0-1.4-0.1-2.8-0.4-4.1c-0.2-1-0.1-2-0.1-3.1c-1.2-4.6-1.5-4.8-6.1-4.8c-20.8,0-41.7,0-62.5,0c-1.4,0-2.9,0.2-4.3-0.5
	c-1.1-1.7-0.8-3,1-4c4.5,0.2,9.1,0.1,13.6,0.1c17.8,0,35.6,0,53.4,0.1C490.2,212.8,491.9,212.3,493.2,210.4z"/>
<path class="st0" d="M5.4,225.1c-1.1-0.1-0.8,1-1.4,1.4c0.4-3.6,0.8-7.2,1.2-10.8c1.8-1.3,3.8-1.4,6-1.4c67.9,0,135.8,0,203.7,0
	c1.6,0,3.1,0.1,4.6,0.6c-0.1,0.5-0.5,0.8-1,0.9c-1.5,0.4-3.1,0.3-4.6,0.3c-66.7,0-133.4,0-200.1,0c-0.9,0-1.8,0-2.7,0
	c-3.8,0-4,0.2-4.6,4c0.1,0.7,0.2,1.4,0.2,2.1c0,0.9-0.1,1.9-0.8,2.6C5.6,225,5.5,225,5.4,225.1z"/>
<path class="st0" d="M493.2,210.4c-0.1,2.3-1.4,3-3.5,3c-22.1,0-44.2,0-66.3,0c-0.9,0-1.8-0.1-2.6-0.5c-0.1-0.3,0.1-0.6,0.4-0.8
	c1.3-0.6,2.7-0.4,4.1-0.4c20.2,0,40.5,0,60.7,0c0.7,0,1.3,0,2,0c3.4-0.1,3.9-0.6,3-4.2c-0.5-2.1-1.7-4.1-0.7-6.3
	c0.5,0.2,1,0.3,1.4,0.5c0.3,1.9,0.7,3.8,1,5.7C493.2,208.4,492.4,209.5,493.2,210.4L493.2,210.4z"/>
<path class="st0" d="M493.2,210.4c-1-0.9-0.4-2-0.5-3C493.2,208.4,493.2,209.4,493.2,210.4z"/>
<path class="st1" d="M420.9,212.4c0,0.2-0.1,0.3-0.1,0.5c-0.6,1.1-0.9,2.2-1,3.4c0.3,1.6-0.6,2.9-1,4.4c-0.6,1.1-0.9,2.3-1.4,3.5
	c-0.6,1.5-1.3,2.9-2,4.4c-0.7,1.3-1.3,2.6-2,3.9c-0.9,1.8-2,3.6-3,5.3c-1,1.5-2,2.9-3,4.4c-0.7,0.8-1.4,1.7-2,2.6
	c-0.9,1.1-1.7,2.2-2.5,3.4c-2.2,2.2-4,4.8-6.3,6.9c-1.3,1.2-2.5,2.6-4,3.6c-2.2,2.1-4.6,3.9-6.9,5.8c-1.9,1.3-3.8,2.8-5.8,3.9
	c-0.6,0.3-1.1,0.7-1.7,1.1c-2.7,1.7-5.5,3-8.3,4.4c-3.3,1.5-6.8,2.9-10.3,4.1c-3.7,1.2-7.5,2.3-11.3,3c-3.7,0.7-7.3,1.3-11,1.5
	c-1.6,0-3.2-0.2-4.8,0.2c-1.5,0.4-3,0.1-4.5,0.4c-1.9,0.8-3.3,2.3-5.1,3.3c-0.7,0.5-1.5,0.9-2.1,1.5c-1.1,0.8-2.2,1.4-3.2,2.3
	c-0.3,0.3-0.7,0.5-1.1,0.7c-0.3,0.2-0.5,0.4-0.8,0.6c-0.8,0.7-1.8,1.3-2.7,1.9c-1,0.7-2,1.5-3.1,2.2c-0.5,0.3-1.1,0.7-1.6,1.1
	c-1.1,0.7-2.1,1.6-3.2,2.3c-0.8,0.5-1.5,1.1-2.3,1.6c-0.4,0.3-0.9,0.6-1.3,0.9c-1.1,0.7-2,1.5-3.1,2.3c-0.3,0.3-0.7,0.5-1,0.7
	c-0.4,0.3-0.8,0.6-1.2,0.9c-0.5,0.3-1,0.7-1.5,1.1c-1,0.8-2.2,1.4-3.1,2.3c-0.7,0.5-1.4,0.9-2.1,1.4c-0.5,0.3-1,0.6-1.5,1.1
	c-0.5,0.4-1,0.7-1.5,1c-0.5,0.4-1,0.7-1.5,1.1c-1.2,1-2.6,1.8-3.8,2.8c-1,0.7-2,1.3-2.9,2c-1.1,0.9-2.3,1.6-3.4,2.4
	c-0.9,0.7-1.9,1.4-2.9,2c-0.9,0.6-1.6,1.3-2.5,1.8c-0.5,0.4-1.1,0.7-1.5,1.1c-0.6,0.5-1.2,0.9-1.8,1.3c-0.3,0.2-0.7,0.5-1,0.7
	c-0.4,0.3-0.8,0.6-1.2,0.9c-0.6,0.5-1.3,0.9-2,1.4c-0.7,0.4-1.3,1-2,1.5c-1.5,0.9-2.8,2-4.2,2.9c-1,0.6-1.9,1.4-2.9,2.1
	c-0.9,0.6-1.8,1.2-2.6,1.9c-1.1,0.8-2.4,1.5-3.4,2.5c-1.4,1.1-3,2-4.2,3.3c-0.5,1.8-0.1,3.6-0.2,5.4c0,0.9-0.1,1.7-0.4,2.6
	c-0.1,0.4-0.1,0.7-0.1,1.1c0,0.7-0.1,1.4-0.2,2.2c-0.2,0.7-0.3,1.4-0.3,2.1c0,0.3-0.1,0.7-0.2,1c-0.3,0.8-0.3,1.6-0.5,2.4
	c-0.2,0.7-0.3,1.3-0.5,2c-0.2,0.8-0.5,1.5-0.7,2.3c-0.3,1.3-0.7,2.5-1.2,3.7c-0.6,1.3-0.9,2.6-1.5,3.9c-0.5,1-1,2-1.5,3
	c-0.7,1.2-1.3,2.5-1.9,3.8c-0.2,0.4-0.4,0.8-0.6,1.1c-0.5,0.7-1,1.4-1.4,2.1c-0.7,1.3-1.6,2.6-2.5,3.8c-0.9,1-1.6,2.1-2.5,3.1
	c-2.7,3.5-5.9,6.4-9.3,9.3c-1.8,1.3-3.6,2.7-5.5,4c-2.7,1.8-5.6,3.3-8.4,4.9c-2.9,1.3-5.9,2.5-9,3.6c-0.4,0.1-0.7,0.3-1.1,0.4
	c-2.5,0.6-4.9,1.4-7.5,1.7c-1,0.2-2.1,0.5-3.1,0.5c-1.7,0.3-3.3,0.5-5,0.4c-2.8,0-5.6,0-8.4,0c-1.6,0-3.1,0.1-4.7-0.2
	c-4.4-0.7-8.7-2.1-13-3.2c-3.6-1-7-2.5-10.1-4.4c-0.7-0.4-1.4-0.8-2.2-1.1c-2.8-1.4-5.3-3.3-7.9-5.1c-1.5-1.2-2.7-2.6-4.1-3.9
	c-1-1-1.9-2.1-3.1-2.9c-1.5-1.2-2.8-2.5-4-4c-0.9-1-1.4-2.4-2.4-3.4c-1.1-1.2-1.9-2.7-2.9-4c-0.9-1.3-1.5-2.8-2.4-4.1
	c-0.7-1.2-0.8-2.6-1.5-3.8c-0.5-1.1-1-2.3-1.6-3.4c-0.4-0.7-0.8-1.4-1.1-2.2c-0.4-1.1-0.8-2.2-1.1-3.4c-0.4-1.2-0.4-2.5-0.8-3.7
	c-0.6-1.5-2.1-1.7-3.3-2.2c-1.6-0.6-3.1-1.5-4.7-1.9c-2.3-0.6-4.4-1.8-6.7-2.6c-2.7-1.1-5.3-2.2-8-3.3c-5.8-2.1-11.3-5.1-17.1-7.2
	c-5.9-1.9-11.3-4.9-17-7.2c-1.1-0.4-2.2-1-3.4-1.2c-9.2-3.7-18.2-7.9-27.4-11.4c-1.5-0.6-3.1-1.1-4.2-2.4
	c-2.5-5.2-3.7-10.7-4.8-16.3C5.3,282.4,4,258.5,5,234.4c0.3-0.5,0.8-0.5,1.3-0.4c1.2,0.5,2.5,0.9,3.7,1.4c2.7,1.3,5.5,2.2,8.2,3.4
	c3,1.4,6.1,2.6,9.1,3.8c0.5,0.2,1.1,0.4,1.6,0.6c2.7,1.1,5.4,2.4,8.2,3.4c3.5,1.5,7,3,10.6,4.4c0.9,0.4,1.7,0.7,2.6,1.1
	c3,1.4,6.1,2.6,9.2,3.9c3.9,1.6,7.8,3.3,11.7,4.8c3.5,1.6,7.2,3,10.8,4.4c5.5,2.4,11.1,4.6,16.7,6.9c10.3,4.3,20.7,8.3,30.8,12.8
	c4.4,2,7.9,2.2,12.3-0.4c9.7-5.8,20.7-8,32-8.2c2.9,0,3.8-2,5.2-3.8c1.9-2.6,3.7-5.3,5.4-8c0.7-1.5,2.1-2.6,2.9-4.1
	c0.9-1.5,2.1-2.8,3.1-4.3c1-1.4,1.9-2.9,2.9-4.3c0.4-0.5,0.8-1,1-1.6c0.4-1.2,1.4-2.2,2-3.3c0.9-1.3,1.8-2.6,2.7-4
	c0.1-0.2,0.2-0.4,0.4-0.5c1.1-1.2,1.9-2.6,2.9-3.9c1.1-1.1,1.9-2.4,2.8-3.7c0.4-0.5,0.8-1.1,1.1-1.6c0.8-1.1,1.5-2.2,2.3-3.3
	c0.4-0.5,0.7-1.1,0.9-1.6c0.3-0.7,0.7-1.3,1.1-1.9c0.6-0.6,1-1.3,1.4-2c0.5-0.8,1-1.6,1.5-2.4c0.7-1.1,1.5-2.1,2.3-3.1
	c1-1.2,1.5-2.8,3-3.5c0.2-0.1,0.4-0.3,0.6-0.4c1-1.5,2.1-3,3.1-4.5c0.1-1.7,1.5-2.7,2.2-4.1c1.1-1.4,2.1-2.7,2.8-4.3
	c0.2-0.4,0.4-0.8,0.6-1.1c1.3-1.9,2.5-3.8,3.9-5.7c0.4-0.5,0.7-1.1,1.1-1.7c1.2-2.1,3.4-3.7,2.9-6.5c-0.2-2.3,0.5-4.5,0.5-6.8
	c-0.1-1.5,0.4-2.9,0.5-4.4c0.1-2,0.7-3.9,1-5.8c0-0.5,0-1,0.1-1.5c0.3-1.5,0.7-2.9,1-4.4c0.1-0.6,0.4-1.2,0.5-1.8
	c0.6-2.1,1.3-4.2,2-6.2c2-3.7,3.2-7.7,5.3-11.3c1.2-2.4,2.7-4.6,4-6.9c1.5-2.4,3.2-4.6,4.9-6.8c0.2-0.4,0.5-0.7,0.8-1.1
	c1.7-2.2,3.6-4.2,5.3-6.3c2.2-2.2,4.4-4.4,6.7-6.5c1.6-2,3.8-3.3,5.6-4.9c4.4-3.1,8.8-6,13.7-8.3c0.7-0.3,1.5-0.7,2.2-1.1
	c4.2-2.1,8.5-3.7,13-5c1.1-0.2,2.2-0.7,3.3-1c4.5-1.3,9.1-1.9,13.7-2.5c0.3,0,0.5,0,0.8,0c1.1,0.1,2.2-0.1,3.3-0.4
	c4.1-0.3,8.3-0.3,12.4,0c1.2,0.4,2.5,0.4,3.7,0.4c2.1,0.2,4.2,0.5,6.3,0.9c14.1,2.5,27,7.9,38.7,16.3c5.5,3.9,10.2,8.6,14.9,13.4
	c4.9,5.5,9.1,11.5,12.7,17.8c2.1,3.9,3.9,8,5.5,12.2c0.8,2.5,1.7,5,2.5,7.5c1.4,4.7,2.2,9.5,3,14.4c0.8,5.8,0.7,11.6,0.5,17.5
	c-0.6,3.9-0.7,7.9-1.6,11.7C422.2,208.3,422.4,210.7,420.9,212.4z"/>
<path class="st2" d="M346.7,96.1c-2.1-0.3-4.2-0.7-6.4-1c-1.2-0.4-2.4,0.1-3.6-0.4c-4.3,0-8.6,0-12.8,0c-1,0.4-2.1,0-3.1,0.3
	c-0.2,0-0.3,0-0.5,0c-0.6-0.4-1.2-0.5-1.9-0.4c-1.9,0.3-3.9,0.2-5.8,0.2c-82,0-163.9,0-245.9,0c-1.2,0-2.4,0.1-3.7-0.1
	c-1-0.2-2-0.3-2-1.7c2.3-3.2,4.8-6.2,7.8-8.8c0.7,0.2,1.3,0.5,2,0.7c1.2,0.2,2.4,0.1,3.7,0.1c31.9,0,63.7,0,95.6,0
	c3.5,0,7,0,10.5,0.1c0.3,0,0.6-0.1,1-0.1c38,0,76.1,0,114.1,0c1.4,0,2.8,0,4.1-0.1c2.1-0.1,4.2,0,6.3,0c39.7,0,79.3,0,119,0
	c2,0,4-0.7,6,0.3c3.1,2.5,5.2,5.8,7.8,8.8c0,1.3-1,1.5-2,1.7c-1,0.2-1.9,0.1-2.9,0.1c-27.2,0-54.4,0-81.6,0
	C350.5,96.1,348.6,95.5,346.7,96.1z"/>
<path class="st3" d="M69.9,85.5c-0.6,0-1-0.3-1-1c1.7-3,4.4-5.1,6.8-7.3c1.1-0.3,2.2-0.3,3.4-0.3c113.3,0,226.7,0,340,0
	c1.6,0,3.3-0.3,4.7,0.8c2.6,2.4,5.5,4.6,7.3,7.8c-2.4,0.6-4.8,0.5-7.2,0.5c-41.4,0-82.7,0-124.1,0c-0.8-0.5-1.8-0.2-2.6-0.2
	c-37.8,0-75.6,0-113.4,0c-0.9,0-1.8-0.2-2.6,0.2c-0.2,0-0.3,0-0.5,0c-1-0.4-2.1-0.2-3.1-0.2c-34.9,0-69.9,0-104.8,0
	C71.8,85.7,70.8,85.9,69.9,85.5z"/>
<path class="st4" d="M247.5,145c-1.9,3.7-3.1,7.7-5.3,11.2c-1,0.9-2.3,0.8-3.5,0.8c-4.3,0-8.6,0-12.9,0c-65.5,0-130.9,0-196.4,0
	c-1.3,0-2.6,0.1-3.9-0.1c-1-0.1-2-0.3-2-1.7c1.2-4.3,3.3-8.3,5.4-12.2c1.9,1.2,4,1.2,6.1,1.2c69.2,0,138.4,0,207.6,0
	C244.2,144.3,246,143.8,247.5,145z"/>
<path class="st5" d="M133.3,34.2c4.8-3.3,10.2-5.6,15.6-7.8c2.5-0.4,5-0.2,7.5-0.2c62.3,0,124.7,0,187,0c2.2,0,4.4,0,6.6,0.2
	c5.6,2.2,10.9,4.9,16.1,7.8c0,1.4-1,1.5-2,1.7c-1,0.2-2.1,0.1-3.2,0.1c-74.2,0-148.4,0-222.6,0c-1.1,0-2.1,0.1-3.2-0.1
	C134.3,35.7,133.3,35.6,133.3,34.2z"/>
<path class="st6" d="M288.1,104.5c-4.7,2.5-9.2,5.5-13.7,8.3c-1.1,0.1-2.3,0.3-3.4,0.3c-72.7,0-145.4,0-218.1,0
	c-1.1,0-2.3,0.1-3.4-0.1c-0.9-0.2-2-0.3-2.1-1.6c1.5-2.6,3-5.3,5.4-7.3c0.6-0.4,1.2-0.4,1.9-0.4c24.6,0.2,49.1,0.1,73.7,0.1
	c51.7,0,103.4,0,155.2,0C285,103.7,286.7,103.3,288.1,104.5z"/>
<path class="st7" d="M105.5,51.8c2.2-2.4,5.3-3.8,7.8-5.8c1.9,0.2,3.7,0.2,5.6,0.2c87.1,0,174.2,0,261.2,0c1.9,0,3.7,0,5.6-0.2
	c2.8,2,5.5,3.9,8.3,5.9c0.1,1.5-1,1.9-2.2,2.1c-1,0.2-2.1,0.1-3.2,0.1c-92.6,0-185.2,0-277.8,0c-1.2,0-2.5,0.1-3.6-0.2
	C106.3,53.5,105,53.4,105.5,51.8z"/>
<path class="st4" d="M247.5,145c-32.5,0-65,0-97.6,0c-30.1,0-60.1,0-90.2,0c-9.3,0-18.5,0-27.8,0c-1.5,0-2.8-0.1-3.1-2
	c0.9-2.3,1.6-4.6,3.4-6.3c23.7,0.4,47.5,0.1,71.2,0.2c47.7,0.1,95.3,0,143,0c1.7,0,3.6-0.6,4.9,1.2
	C250.1,140.5,248.8,142.8,247.5,145z"/>
<path class="st8" d="M133.3,34.2c0.7,1.5,2.1,1,3.3,1c50,0,100,0,150,0c25.5,0,51,0,76.6,0c1.1,0,2.3,0.4,3-1
	c3.9,2.3,7.8,4.6,11.7,6.8c-0.1,1.1-1.1,1.1-1.8,1.2c-1.1,0.2-2.3,0.1-3.4,0.1c-81.6,0-163.2,0-244.8,0c-1.3,0-2.6,0.1-3.9-0.1
	c-1.1-0.2-2.1-0.6-1.4-2.1C126.1,38,129.4,35.6,133.3,34.2z"/>
<path class="st9" d="M237.2,180.2c-0.1,2.4-0.3,4.9-0.4,7.3c-0.9,0.8-1.9,0.8-3,0.8c-2.2,0-4.4,0-6.6,0c-69.2,0-138.5,0-207.7,0
	c-1.5,0-2.9,0.1-4.4-0.2c-1-0.2-2.2-0.2-2.4-1.6c0.6-2.1,0.6-4.5,2-6.3c1-0.4,2.1-0.3,3.1-0.3c72.3,0,144.5,0,216.8,0
	C235.5,179.9,236.4,179.8,237.2,180.2z"/>
<path class="st10" d="M262.3,124.1c-1.8,2.1-3.6,4.2-5.4,6.3c-1.3,0.9-2.8,0.7-4.3,0.7c-52.9,0-105.7,0-158.6,0
	c-17.9,0-35.8,0-53.7,0c-1,0-2,0.1-2.9-0.1c-0.8-0.2-1.7-0.4-1.2-1.6c1-2.1,1.9-4.1,3.4-5.9c0.9-0.8,1.9-0.8,3-0.8
	c2.4,0,4.7,0,7.1,0c68.6,0,137.3,0,205.9,0C257.9,122.8,260.3,122.3,262.3,124.1z"/>
<path class="st11" d="M79.1,73.8c1.5-2.3,3.8-3.7,5.9-5.4c1.4,0.7,3,0.7,4.5,0.7c61.5,0,122.9,0,184.4,0c45.4,0,90.7,0,136.1,0
	c1.6,0,3.1,0,4.5-0.7c2,1.8,3.9,3.6,5.9,5.4c-0.1,1.1-1.1,1.1-1.8,1.1c-1.1,0.1-2.3,0-3.4,0c-64,0-128,0-192,0c-46.7,0-93.3,0-140,0
	C81.8,74.9,80,75.7,79.1,73.8z"/>
<path class="st12" d="M12.7,186.5c1.3,1.1,2.9,1,4.4,1c73.2,0,146.4,0,219.7,0c0.6,3-1.9,4.4-3.2,6.4c-1,0.7-2.2,0.6-3.3,0.6
	c-71.6,0-143.1,0-214.7,0c-0.3,0-0.7,0-1,0c-2.9-0.1-3.3-0.6-2.8-3.6C11.7,189.4,12.1,187.9,12.7,186.5z"/>
<path class="st13" d="M251.4,138.2c-1-0.7-2.2-0.5-3.3-0.5c-70.8,0-141.7,0-212.5,0c-1.1,0-2.5,0.5-3.3-1c0.7-2.3,1.8-4.5,3.4-6.3
	c1.3,0.6,2.7,0.5,4.1,0.5c49,0,98,0,147.1,0c22.4,0,44.9,0,67.3,0c0.7,0,1.5-0.2,2,0.5C254.6,133.6,253,135.9,251.4,138.2z"/>
<path class="st14" d="M23.5,155.3c0.3,0.7,0.8,1,1.6,1c0.7,0,1.3,0,2,0c71.7,0,143.4,0,215.2,0c-0.6,2.1-1.2,4.2-1.8,6.3
	c-1.1,0.9-2.5,0.7-3.7,0.7c-27.2,0-54.3,0-81.5,0c-43.4,0-86.9,0-130.3,0c-1.5,0-3.2,0.5-4.2-1.2C21.4,159.8,22,157.4,23.5,155.3z"
	/>
<path class="st15" d="M152.9,24.5c6.7-2.8,13.6-5.4,20.5-7.8c1.4,0.6,2.9,0.2,4.3,0.2c47.9,0,95.7,0,143.6,0c1.5,0,2.9,0.3,4.4,0.3
	c2.3,0,4.2,1.2,6.2,1.9c5,1.7,10.1,3.5,14.8,5.9c-0.7,1-1.7,1.2-2.8,1.2c-1.2,0-2.4,0-3.7,0c-34.7,0-69.5,0-104.2,0
	c-26.2,0-52.4,0-78.6,0C155.8,26.1,153.8,26.7,152.9,24.5z"/>
<path class="st16" d="M262.3,124.1c-4.5-0.9-9.1-0.5-13.6-0.5c-69.7,0-139.4,0-209.1,0c1.1-2.5,2.4-4.9,4.4-6.8
	c0.5-0.1,0.9,0,1.4,0.2c1,0.2,1.9,0.1,2.9,0.1c44.1,0,88.1,0,132.2,0c1.1,0,2.3,0.1,3.4-0.2c1.5-0.4,3.1-0.4,4.6-0.4
	c25.1,0,50.1,0,75.2,0c1.8,0,3.8-0.4,5.2,1.3C266.7,119.8,264.5,122,262.3,124.1z"/>
<path class="st17" d="M325.7,17.1c-0.7,0.8-1.7,0.5-2.5,0.5c-48.9,0-97.8,0-146.8,0c-1.1,0-2.3,0.4-3-1c9-2.6,18-5.3,27.2-7
	c8.3-1.5,16.7-2.9,25.1-3.8c5.7-0.6,11.3-1,17-0.9c4.4-0.4,8.8-0.4,13.2,0c2.4,0,4.9,0,7.3,0c0.9,0.6,2-0.1,2.9,0.5
	c1.3,0,2.6,0,3.9,0c0.7,0.6,1.7-0.1,2.4,0.5c8.1,0.7,16.1,1.8,24.1,3.4c9.3,1.8,18.4,4,27.4,7C324.5,16.5,325.3,16.5,325.7,17.1z"/>
<path class="st18" d="M105.5,51.8c0.2,1.1,1.1,1.3,2,1.4c0.6,0.1,1.3,0,1.9,0c93.6,0,187.2,0,280.8,0c1.5,0,3,0.3,3.8-1.5
	c2,1.5,3.9,2.9,5.9,4.4c-0.1,1.6-1.4,1.8-2.6,2.1c-1.5,0.3-3.1,0.2-4.6,0.2c-66.6,0-133.2,0-199.8,0c-28.9,0-57.7,0-86.6,0
	c-1.5,0-2.9,0.1-4.4-0.2c-1.1-0.3-2.3-0.5-2.3-2C101.3,54.4,103.3,52.9,105.5,51.8z"/>
<path class="st19" d="M346.7,96.1c0.5-1.5,1.8-0.9,2.7-0.9c28.8,0,57.6,0,86.3,0c1.1,0,2.5,0.5,3.3-1c4.7,5.2,8.6,11,12.7,16.6
	c0,1.3-1,1.5-2,1.7c-1,0.2-2.1,0.1-3.2,0.1c-19.4,0-38.8,0-58.2,0c-1.1,0-2.1,0-3.1-0.3c-5.3-3.3-10.5-6.7-16.2-9.3
	C361.8,99.9,354.3,97.7,346.7,96.1z"/>
<path class="st20" d="M89.9,64c1.5-1.5,2.9-3.1,4.9-3.9c2.4-0.1,4.7,0.2,7.1,0.2c98.8,0,197.6,0,296.4,0c2.2,0,4.4-0.1,6.6-0.2
	c1.7,1.2,3,3,4.9,3.9c0.5,1.2-0.5,1.4-1.2,1.6c-0.9,0.3-1.9,0.2-2.9,0.2c-103.7,0-207.5,0-311.2,0C92.7,65.7,90.6,66.5,89.9,64z"/>
<path class="st9" d="M237.2,180.2c-0.9,0.6-1.9,0.5-2.8,0.5c-72.4,0-144.8,0-217.2,0c-0.9,0-1.8,0.3-2.5-0.5c0-1.9,0.8-3.6,1.5-5.4
	c0.9-0.4,1.9-0.3,2.9-0.3c71.1,0,142.1,0,213.2,0c1.9,0,4-0.5,5.5,1.3C237.5,177.3,237.4,178.7,237.2,180.2z"/>
<path class="st21" d="M237.7,175.8c-1.3-0.5-2.7-0.5-4.1-0.5c-71.5,0-143,0-214.5,0c-1,0-2.1,0.4-3-0.5c0.3-1.9,0.7-3.8,2-5.4
	c1.7-0.7,3.5-0.2,5.3-0.2c41.2,0,82.5,0,123.7,0c29.3,0,58.6,0,87.8,0c1.3,0,2.6-0.4,3.7,0.7C238.3,171.9,238,173.8,237.7,175.8z"/>
<path class="st22" d="M232.5,195.4c-1.2,2-2.4,4.1-4,5.8c-1.1,0.1-2.1,0.1-3.2,0.1c-70,0-140.1,0-210.1,0c-1.1,0-2.1,0-3.2-0.1
	c-1.3-0.1-2.2-0.7-2.3-2.1c0-1.5,0.4-3,1-4.4c0.4-0.3,0.9-0.4,1.4-0.3c1.5,0.2,2.9,0.1,4.4,0.1c70.3,0,140.6,0,210.8,0
	c1.5,0,2.9-0.1,4.4,0.2C232.1,194.9,232.3,195.1,232.5,195.4z"/>
<path class="st23" d="M423.8,194.8c0.1-6,0-12.1-0.5-18.1c1.2-1.1,2.8-0.8,4.2-0.8c16.3,0,32.5,0,48.8,0c2.4,0,4.7-0.2,7.1-0.2
	c2.2,5.5,3.6,11.2,4.9,16.9c0.1,0.5,0.3,1.1,0.5,1.6c-0.9,1.1-2.2,1.3-3.5,1.3c-19.6,0-39.1,0-58.7,0
	C425.6,195.6,424.6,195.6,423.8,194.8z"/>
<path class="st20" d="M89.9,64c0.3,0.7,0.8,1,1.6,1c0.7,0,1.3,0,2,0c104.4,0,208.8,0,313.1,0c1,0,2.5,0.9,3.1-0.9
	c1.4,1.3,3.2,2.3,4.4,3.9c-0.1,1.1-1,1.1-1.8,1.2c-1,0.1-2,0-2.9,0c-82.4,0-164.8,0-247.2,0c-24.1,0-48.2,0-72.2,0
	c-0.9,0-1.8,0.1-2.7-0.1c-0.8-0.2-1.7-0.4-1.2-1.6C86.9,65.8,88.6,65.1,89.9,64z"/>
<path class="st24" d="M44.5,117.2c-0.2-0.2-0.3-0.3-0.5-0.5c0.6-2.1,2-3.8,3.4-5.4c1,1.3,2.5,1,3.8,1c73.3,0,146.6,0,220,0
	c1.1,0,2.3-0.5,3.2,0.5c-1.8,1.6-3.7,3.2-5.5,4.8c-2-0.6-4-0.5-6-0.5c-25.2,0-50.3,0-75.5,0c-1.1,0-2.3-0.2-3.3,0.5
	c-0.9-0.5-1.9-0.2-2.9-0.2c-44.6,0-89.2,0-133.9,0C46.4,117.4,45.4,117.7,44.5,117.2z"/>
<path class="st25" d="M239.7,164.1c0.3,1.6-0.8,2.9-0.9,4.4c-1.3,1.1-2.9,1-4.4,1c-17.3,0-34.6,0-52,0c-53.1,0-106.2,0-159.3,0
	c-1.6,0-3.5,0.5-4.6-1.4c0.3-1.9,1.1-3.7,2-5.4c1.2,0.8,2.6,0.7,4,0.7c40.7,0,81.5,0,122.2,0c29.7,0,59.5,0,89.2,0
	C237.3,163.4,238.6,163,239.7,164.1z"/>
<path class="st13" d="M412.4,143.2c-3.7-6.2-7.9-12.1-12.6-17.6c0.9-1.6,2.5-1.3,3.9-1.3c9.8,0,19.7,0,29.5,0
	c8.4,0,16.7,0.1,25.1-0.1c0.7,0,1.5-0.1,2.1,0.4c3.7,5.8,6.7,11.9,9.8,18.1c-1,1.7-2.7,1.3-4.2,1.3c-13.2,0-26.4,0-39.7,0
	c-3.5,0-7,0-10.5,0C414.7,143.9,413.5,143.9,412.4,143.2z"/>
<path class="st19" d="M303.2,98.6c-4.4,1.6-8.7,3.3-13.1,4.9c-2.6,0-5.2-0.2-7.8-0.2c-74.3,0-148.6,0-222.9,0
	c-1.8,0-3.8,0.7-5.2-1.3c0.8-1.7,1.9-3.2,3.4-4.4c0.5-0.4,1-0.5,1.6-0.4c1.5,0.3,2.9,0.1,4.4,0.1c78.5,0,157,0,235.5,0
	C300.5,97.5,302.3,96.7,303.2,98.6z"/>
<path class="st20" d="M404.8,60.1c-1,1.3-2.5,1-3.9,1c-78.1,0-156.3,0-234.4,0c-22.5,0-45,0-67.6,0c-1.5,0-2.9,0-4.1-1
	c1.3-1.7,2.9-3,4.9-3.9c1.2,1.6,2.9,1.5,4.6,1.5c26.1,0,52.2,0,78.3,0c70.8,0,141.6,0,212.4,0c1.8,0,3.6,0.2,4.9-1.5
	C401.5,57.5,403.1,58.8,404.8,60.1z"/>
<path class="st26" d="M228,202.2c-0.5,1.7-1.8,3-2.9,4.4c-0.9,0.3-1.8,0.3-2.7,0.3c-25,0-49.9,0-74.9,0c-44.8,0-89.6,0-134.4,0
	c-1.7,0-3.7,0.6-4.9-1.3c0.3-1.5,0.7-2.9,1-4.4c1.7-0.3,3.4,0,5.1,0c70,0,139.9,0,209.9,0C225.6,201.2,227.1,200.6,228,202.2z"/>
<path class="st22" d="M423.8,194.8c20.3,0,40.6,0,60.9,0c1.4,0,2.7-0.1,4.1-0.5c0.5,2.3,1,4.6,1.5,6.8c0.3,2,0.7,3.9,1,5.9
	c-0.1,1.4-1,1.9-2.2,2.1c-1,0.2-2.1,0.1-3.2,0.1c-19.7,0-39.3,0-59,0c-0.8,0-1.6,0-2.4,0c-1.8-0.1-2.8-0.8-2.1-2.8
	C422.8,202.6,423.3,198.7,423.8,194.8z"/>
<path class="st16" d="M460.4,124.5c-1.3,0.4-2.7,0.5-4.1,0.5c-17.7,0-35.5,0-53.2,0c-1.1,0-2.3-0.1-3.3,0.5
	c-4.6-4.8-9.5-9.1-14.7-13.2c1-0.6,2.2-0.5,3.3-0.5c20.1,0,40.1,0,60.2,0c1.1,0,2.3,0.4,3-1C454.9,115.2,457.8,119.7,460.4,124.5z"
	/>
<path class="st11" d="M423.8,77.7c-115,0-230,0-345.1,0c-1,0-2.1,0.4-3-0.5c0.8-1.2,1.8-2.1,2.9-2.9c1.1,0.8,2.4,0.5,3.6,0.5
	c43.8,0,87.5,0,131.3,0c67.8,0,135.7,0,203.5,0c1.3,0,2.6,0.3,3.8-0.5C422,75.2,423.4,76,423.8,77.7z"/>
<path class="st27" d="M8.3,205.6c1,0.7,2.2,0.5,3.3,0.5c42,0,83.9,0,125.9,0c20.1,0,40.1,0,60.2,0c8.1,0,16.2,0,24.3,0
	c1.1,0,2.1-0.1,3.1,0.5c-0.7,1.4-1.6,2.7-2.6,3.9c-1.2-0.4-2.4-0.5-3.6-0.5c-25.5,0-51.1,0-76.6,0c-43.4,0-86.8,0-130.2,0
	C7.8,210,7.7,209.8,8.3,205.6z"/>
<path class="st21" d="M483.4,175.8c-1,1.2-2.3,1-3.6,1c-18.8,0-37.6,0-56.4,0c-1-4.7-1.9-9.4-2.9-14.2c18.9,0.4,37.8,0.2,56.7,0.1
	c0.7,0,1.3-0.1,1.9,0.4C480.9,167.2,482.4,171.4,483.4,175.8z"/>
<path class="st28" d="M122.6,40.1c0,0.8,0.1,1.5,1.2,1.5c0.7,0,1.3,0,2,0c83.1,0,166.1,0,249.2,0c1,0,2.1,0.4,3-0.5
	c1.3,0.6,2.5,1.2,3.4,2.4c-0.2,1.4-1.3,1.5-2.3,1.7c-1.1,0.2-2.3,0.1-3.4,0.1c-83.8,0-167.6,0-251.5,0c-1.3,0-2.6,0.1-3.9-0.2
	c-1.3-0.3-2.3-0.9-1.6-2.6C120,41.7,121.3,40.9,122.6,40.1z"/>
<path class="st4" d="M412.4,143.2c18.2,0,36.3,0,54.5-0.1c1.1,0,2.3,0.2,3.3-0.5c2.7,4.1,4,8.7,5.9,13.2c-0.9,0.9-2.1,0.8-3.2,0.8
	c-17,0-34.1,0-51.1,0c-1.4,0-2.8,0.2-3.7-1.3C416.1,151.2,414.3,147.2,412.4,143.2z"/>
<path class="st28" d="M118.7,42.5c-0.1,1.3,0.5,2,1.8,2c0.6,0,1.1,0,1.7,0c85.1,0,170.2,0,255.2,0c1.4,0,2.8,0.3,3.9-1
	c1.8,0.3,2.9,1.6,4.4,2.4c-0.3,0.7-0.8,1-1.6,1c-0.7,0-1.3,0-2,0c-88.5,0-176.9,0-265.4,0c-1.2,0-2.7,0.6-3.5-1
	C115.1,44.8,116.9,43.7,118.7,42.5z"/>
<path class="st19" d="M61.1,93.3c0.4,0.8,1,1,1.8,1c0.7,0,1.3,0,2,0c84.2,0,168.4,0,252.6,0c1,0,2.4-0.7,2.9,0.9
	c-4.7,0.8-9.4,1.7-14.2,2.5c-1.8-0.5-3.7-0.3-5.6-0.3c-79.4,0-158.8,0-238.2,0c-1.4,0-3,0.3-4.2-0.7C59.1,95.6,60.1,94.4,61.1,93.3z
	"/>
<path class="st11" d="M86,67.4c0.4,1.6,1.7,0.9,2.6,0.9c21,0,42,0,62.9,0c62.5,0,125,0,187.6,0c24.1,0,48.1,0,72.2,0
	c0.9,0,2,0.4,2.8-0.5c0.2,0.2,0.3,0.3,0.5,0.5c-0.2,1.1-1.1,1.3-2,1.4c-0.6,0.1-1.3,0-2,0c-107.2,0-214.5,0-321.7,0
	c-1.4,0-3.2,0.7-3.9-1.4C85.2,67.9,85.5,67.6,86,67.4z"/>
<path class="st19" d="M54.2,102.1c1.1,0.7,2.4,0.5,3.6,0.5c75.9,0,151.7,0,227.6,0c1.7,0,3.2,0.1,4.7,1c-0.5,0.6-1.2,0.9-1.9,1
	c-42.9,0-85.9,0-128.8,0c-34.5,0-68.9,0-103.4,0c-1.1,0-2.1-0.3-3.1-0.5C52.8,103,53.5,102.5,54.2,102.1z"/>
<path class="st14" d="M418,155.3c0.9,0.6,2,0.5,3.1,0.5c18.3,0,36.6,0,55,0c1.3,2.3,2.2,4.8,2.9,7.3c-1.2,0.3-2.3,0.5-3.6,0.5
	c-17.3,0-34.6,0-51.9,0c-1.1,0-2.3,0.2-3.1-1C419.6,160.2,418.8,157.7,418,155.3z"/>
<path class="st19" d="M58.1,96.7c73.8,0,147.6,0,221.4,0c8,0,15.9,0,23.9,0c1,0,2.2-0.3,2.8,1c-0.9,0.6-1.9,0.8-2.9,0.9
	c-0.9-0.8-2-0.4-3-0.4c-78.4,0-156.8,0-235.3,0c-2.4,0-4.9,0.1-7.3-0.5C57.7,97.3,57.7,96.9,58.1,96.7z"/>
<path class="st11" d="M420.9,74.3c-0.1,0.7-0.5,1-1.2,1c-0.7,0-1.3,0-2,0c-112,0-224,0-336,0c-1,0-2.5,0.9-3.1-0.9
	c0.2-0.2,0.3-0.3,0.5-0.5c0.9,0.9,2,0.5,3,0.5c43.8,0,87.7,0,131.5,0c67.9,0,135.8,0,203.7,0c1,0,2.1,0.4,3-0.5
	C420.5,73.9,420.7,74.1,420.9,74.3z"/>
<path class="st14" d="M239.7,164.1c-71.8,0-143.6,0-215.4,0c-1.5,0-3,0.3-3.8-1.5c0-0.2,0-0.3,0-0.5c1,0.7,2.2,0.5,3.3,0.5
	c41.2,0,82.3,0,123.5,0c31,0,62,0,92.9,0C240.6,163.3,239.8,163.6,239.7,164.1z"/>
<path class="st15" d="M152.9,24.5c1.2,1,2.7,1,4.1,1c23.1,0,46.2,0,69.3,0c38.8,0,77.5,0,116.3,0c1.4,0,2.7-0.1,4.1-0.5
	c1.2,0.3,2.3,0.8,3.4,1.5c-0.7,0.8-1.7,0.5-2.5,0.5c-65.4,0-130.7,0-196.1,0c-0.9,0-1.8,0.3-2.5-0.5C150,25.3,151.7,25.3,152.9,24.5
	z"/>
<path class="st29" d="M11.8,194.8c-0.3,0-0.7,0-1,0c0-1.4,0.3-2.7,1-3.9c-0.4,2.7,1.1,3,3.3,3c71.6,0,143.2,0,214.8,0
	c1.2,0,2.4,0,3.7,0.1c0.1,0.8-0.5,1.1-1,1.5l-0.2-0.1c-0.9-0.4-1.9-0.2-2.9-0.2c-71.6,0-143.2,0-214.8,0
	C13.7,195.1,12.7,195.3,11.8,194.8z"/>
<path class="st25" d="M18.6,168c1.6,0.8,3.2,1,4.9,1c70.1,0,140.2,0,210.2,0c1.7,0,3.3-0.6,5.1-0.5c-0.1,0.5-0.1,1-0.2,1.5
	c-72.2,0-144.3,0-216.5,0c-1.4,0-2.8-0.1-4.1-0.5C18.1,168.9,18,168.3,18.6,168z"/>
<path class="st13" d="M256.2,131.4c-1.4-0.4-2.9,0-4.3,0c-50.9,0-101.7,0-152.6,0c-20,0-40,0-59.9,0c-1.3,0-2.6,0.2-3.6-1
	c0-0.4,0.1-0.8,0.5-1c0.1,0.7,0.5,1,1.2,1c0.7,0,1.5,0,2.2,0c72.5,0,144.9,0,217.4,0C256.6,130.7,256.4,131,256.2,131.4z"/>
<path class="st22" d="M228,202.2c-1.1-0.7-2.4-0.5-3.6-0.5c-70.5,0-141,0-211.6,0c-1.2,0-2.5,0.2-3.6-0.5c0.1-0.7-0.2-1.4,0.5-2
	c0.9,1.5,2.3,1.5,3.8,1.5c59.2,0,118.4,0,177.6,0c11.5,0,23.1,0,34.6,0c0.9,0,2-0.4,2.7,0.5C228.4,201.6,228.2,201.9,228,202.2z"/>
<path class="st15" d="M255.9,4.9c-4.4,0-8.8,0-13.2,0c1.9-1,3.9-0.5,5.9-0.4C251,4.5,253.5,3.9,255.9,4.9z"/>
<path class="st15" d="M266.1,5.4c-1-0.2-2.1,0.4-2.9-0.5C264.2,5.1,265.3,4.5,266.1,5.4z"/>
<path class="st15" d="M272.5,5.9c-0.8-0.1-1.8,0.3-2.4-0.5C270.8,5.5,271.8,5.1,272.5,5.9z"/>
<path class="st30" d="M217.3,398.3c3.2-2.9,6.4-6,9.3-9.2c2,0.2,4.1,0.2,6.1,0.2c70.7,0,141.3,0,212,0c1.4,0,2.8-0.1,4.1,0.2
	c0.8,0.2,1.9,0.3,1.4,1.7c-2.4,3-3.9,6.7-6.9,9.2c-1.9-0.2-3.9-0.2-5.8-0.2c-71.6,0-143.1,0-214.7,0c-1.4,0-2.8,0.1-4.1-0.2
	C217.8,399.8,216.8,399.7,217.3,398.3z"/>
<path class="st31" d="M86,432.6c-1.9-1.8-4.2-3.3-5.9-5.4c0.2-1.4,1.3-1.5,2.3-1.7c1.1-0.2,2.3-0.1,3.4-0.1c109.3,0,218.6,0,327.9,0
	c2,0,4.1-0.6,5.7,1.3c-1.8,2.1-3.7,4.1-5.9,5.7c-2.2-0.1-4.4-0.1-6.6-0.1c-104.8,0-209.6,0-314.4,0C90.4,432.4,88.2,432.5,86,432.6z
	"/>
<path class="st32" d="M86,432.6c0.7-1.4,1.9-1,3-1c12.4,0,24.7,0,37.1,0c94.7,0,189.4,0,284.1,0c1.1,0,2.5-0.5,3.3,0.9
	c-1.9,1.1-3.2,3.1-5.3,4c-1.4,0.8-3,0.8-4.5,0.8c-19,0-37.9,0-56.9,0c-83.5,0-166.9,0-250.4,0c-1.9,0-3.7,0-5.6-0.4
	C89.2,435.5,87.6,434,86,432.6z"/>
<path class="st33" d="M398.4,444.8c-2.8,1.7-4.7,4.5-7.8,5.8c-1.8-0.2-3.6-0.1-5.3-0.1c-90.3,0-180.7,0-271,0c-1.9,0-3.9,0-5.8,0.1
	c-2.6-1.6-5-3.5-7.3-5.4c-0.4-1.2,0.5-1.3,1.3-1.5c1-0.3,2.1-0.2,3.2-0.2c96.1,0,192.2,0,288.3,0
	C395.4,443.5,397.4,442.7,398.4,444.8z"/>
<path class="st34" d="M419.4,426.7c-1.3-0.4-2.7-0.5-4.1-0.5c-110.5,0-220.9,0-331.4,0c-1.4,0-2.8-0.3-3.9,1
	c-1.5-1.2-2.8-2.4-3.9-3.9c-0.4-0.7,0-1.1,0.5-1.4c0.6-0.3,1.3-0.3,1.9-0.3c12.4,0,24.7-0.1,37.1,0.1c1.8,0,3.6-0.1,5.4-0.1
	c99.4,0,198.8,0,298.2,0c0.7,0,1.5-0.1,2.2,0c0.8,0.1,1.7,0.1,1.8,1.2C422.2,424.3,420.9,425.6,419.4,426.7z"/>
<path class="st35" d="M398.4,444.8c-0.7-0.8-1.7-0.5-2.5-0.5c-97.4,0-194.7,0-292.1,0c-0.9,0-2.2-0.7-2.7,0.9
	c-1.8-1.4-3.6-2.9-5.4-4.3c0-1.2,0.9-1.4,1.8-1.6c1-0.2,1.9-0.1,2.9-0.1c99.5,0,199,0,298.6,0c1,0,2-0.1,2.9,0.1
	c0.9,0.2,1.8,0.4,1.8,1.6C402,442.1,400.2,443.5,398.4,444.8z"/>
<path class="st36" d="M108.4,450.6c0.3-0.6,0.9-0.9,1.6-0.9c0.7,0,1.3,0,2,0c91.8,0,183.6,0,275.5,0c1,0,2.5-0.8,3.2,0.9
	c-1.8,1.2-3.5,2.3-5.3,3.5c-1.7,0.3-3.4,0.3-5.1,0.3c-86.8,0-173.7,0-260.5,0c-1.8,0-3.6-0.1-5.3,0.2
	C112.3,453.3,110.4,451.9,108.4,450.6z"/>
<path class="st37" d="M403.7,440.8c-0.3-0.6-0.9-0.9-1.6-0.9c-0.7,0-1.3,0-2,0c-100.3,0-200.6,0-300.9,0c-1.2,0-2.7-0.6-3.5,0.9
	c-1.9-0.9-3.3-2.6-4.9-3.9c0.7-0.7,1.5-0.4,2.3-0.4c104.7,0,209.4,0,314.1,0c0.3,0,0.7,0,1,0C406.9,438.1,405.7,439.8,403.7,440.8z"
	/>
<path class="st38" d="M114.3,454.6c0.1-0.7,0.5-1,1.1-1c0.7,0,1.3,0,2,0c88.1,0,176.2,0,264.3,0c1.2,0,2.5-0.2,3.6,0.5
	c-2,1.6-3.9,3.4-6.4,4.3c-1.9-0.3-3.7-0.1-5.6-0.1c-82.5,0-165,0-247.5,0c-1.9,0-3.7-0.2-5.6,0.1
	C118.2,457.1,116.2,455.9,114.3,454.6z"/>
<path class="st39" d="M217.3,398.3c0.1,0.8,0.6,1.1,1.3,1.1c0.7,0,1.5,0,2.2,0c73.2,0,146.4,0,219.6,0c1,0,2.4-0.8,2.9,0.9
	c-1,1.1-1.9,2.3-2.9,3.4c-0.9,0.5-1.8,0.8-2.8,0.8c-11.8,0-23.5,0.1-35.3-0.1c-17.2,0.2-34.4,0-51.5,0.1c-3.6,0-7.3,0.1-10.9-0.1
	c-1.5,0.1-3.1,0.1-4.6,0.1c-39.3,0-78.5,0-117.8,0c-1.3,0-2.6,0.1-3.9-0.2c-1-0.3-2.1-0.6-1.6-2.1
	C213.7,401,215.5,399.6,217.3,398.3z"/>
<path class="st40" d="M120.2,458.4c0.3-0.6,0.9-0.9,1.6-0.9c0.6,0,1.1,0,1.7,0c84,0,168.1,0,252.1,0c1.1,0,2.5-0.5,3.3,0.9
	c-2.1,1.2-3.9,2.8-6.3,3.5c-1,0.2-2.1,0.2-3.2,0.2c-35.9,0-71.8,0-107.7,0c-44.2,0-88.4,0-132.6,0c-0.9,0-1.8-0.1-2.7-0.1
	C124.3,460.8,122.2,459.6,120.2,458.4z"/>
<path class="st41" d="M194.4,410.7c3.1-1.2,6.1-2.4,9.2-3.6c44.6-0.3,89.2-0.1,133.8-0.1c0.8,0,1.6,0,2.4,0.1
	c17.6-0.2,35.3,0,52.9-0.1c3.2,0,6.3-0.1,9.5,0.1c10.3-0.1,20.5-0.1,30.8,0c1.4,0,3-0.2,3.5,1.8c-0.8,1.6-2,2.8-3.4,3.9
	c-0.1,0-0.3,0-0.4-0.1c-6.2-0.5-12.4-0.4-18.6-0.1c-0.3,0-0.6,0-0.9,0c-1-0.2-2.1-0.2-3.2-0.2c-18.5,0-37,0-55.5,0
	c-20.8,0-41.6,0-62.4,0c-20.8,0-41.7,0-62.5,0c-0.9,0-1.8,0-2.7,0.2c-0.3,0.1-0.6,0.1-1,0c-3.5-0.4-7.1-0.2-10.6-0.2
	c-6-0.1-12,0-17.9,0C196.1,412.2,194.6,412.5,194.4,410.7z"/>
<path class="st42" d="M429.2,416.5c-0.7,0.8-1,1.9-1.9,2.5c-0.8,0.2-1.6,0.2-2.4,0.2c-115.8,0-231.7,0-347.5,0c-1.7,0-3.4,0-5.1,0.3
	c-1.2-0.7-1.9-1.7-2.5-2.9c0.5-1.1,1.5-1.2,2.5-1.3c1.1-0.1,2.1-0.1,3.2-0.1c116.1,0,232.1,0,348.2,0c1.1,0,2.1,0,3.2,0.1
	C427.7,415.3,428.7,415.4,429.2,416.5z"/>
<path class="st43" d="M235.4,375.5c0.1-1.2,0.7-2.1,1.4-3.1c1.5-0.4,3.1-0.2,4.6-0.2c21.4,0,42.8,0,64.3,0c1,0,1.9,0,2.9,0.1
	c10.4-0.1,20.8-0.1,31.3,0c10.4-0.1,20.8-0.1,31.2,0c10.4-0.1,20.8-0.1,31.3,0c18.6-0.1,37.3-0.1,55.9,0c1.2,0,2.5-0.1,3.2,1.3
	c-0.3,1.4-1.1,2.4-2,3.4c-1.1,0.2-2.2,0.3-3.4,0.3c-71.8,0-143.6,0-215.4,0c-1.3,0-2.6,0.1-3.9-0.2
	C236,376.9,234.8,376.9,235.4,375.5z"/>
<path class="st44" d="M235.4,375.5c0.1,0.7,0.5,1,1.2,1c0.7,0,1.5,0,2.2,0c72.5,0,145,0,217.5,0c1.1,0,2.3-0.5,3.2,0.5
	c-1,1-1.2,2.6-2.4,3.4c-3.7,0.3-7.4,0.1-11.2,0.1c-9.3,0-18.6,0-28,0c-20.8,0-41.6,0-62.5,0c-39.1,0-78.1,0-117.2,0
	c-1.1,0-2.1,0.1-3.2-0.1c-0.8-0.1-1.7,0-1.7-1.2C234,378,234.7,376.7,235.4,375.5z"/>
<path class="st45" d="M255.8,333.9c1.4-1.1,2.7-2.3,4.3-3c9.8-0.1,19.7-0.1,29.5,0c1.7,0,3.4,0,5.1,0c60,0,120.1,0,180.1,0
	c1.1,0,2.1-0.1,3.2,0.1c1,0.2,2.2,0.2,2.4,1.6c-0.2,0.8-0.3,1.7-1,2.4c-0.7,0.6-1.6,0.7-2.5,0.8c-1,0-2,0-2.9,0
	c-70.6,0-141.2,0-211.8,0c-1.4,0-2.8,0.1-4.1-0.1C257.1,335.4,255.9,335.4,255.8,333.9z"/>
<path class="st46" d="M429.2,416.5c-1-0.6-2-0.5-3.1-0.5c-117.8,0-235.5,0-353.3,0c-1.1,0-2.1-0.1-3.1,0.5c-0.6-0.4-1.1-0.8-1.4-1.5
	c-0.5-1.2,0.4-1.4,1.2-1.6c0.9-0.2,1.9-0.2,2.9-0.2c28.4,0,56.7,0,85.1,0c2.3,0,4.7,0.3,7,0.3c1.6-0.1,3.2-0.2,4.8,0.1
	c2.9,0.3,5.8,0.3,8.8,0c1.6-0.2,3.3-0.3,4.9-0.5c1.3,0.6,2.7,0.2,4.1,0.2c80,0,160.1,0,240.1,0.1c1.3,0,3-0.8,3.8,1.2
	C430.7,415.3,430,416,429.2,416.5z"/>
<path class="st47" d="M209,230c-0.6,1.3-1.4,2.4-2.4,3.4c-0.3,0.2-0.6,0.2-0.9,0.2c-18.5-0.2-36.9,0-55.4-0.1
	c-47.1,0-94.1,0-141.2,0c-1,0-2,0-2.9,0.1c-0.5,0.1-1,0-1.4-0.3c0-0.7,0-1.3,0-2c0.7-2.1,2.3-2.8,4.4-2.7c0.5,0,1,0,1.5,0
	c64.5,0,129,0,193.5,0C206,228.8,207.8,228.3,209,230z"/>
<path class="st48" d="M240.7,360.6c0-0.8,0-1.6,0.5-2.3c1.1-0.2,2.3-0.1,3.4-0.1c42.2,0,84.3,0,126.5,0c20.8,0,41.6,0,62.4,0
	c10.5,0,21,0,31.4,0c1.5,0,3.1-0.1,4.3,1.2c-0.2,1.1-0.7,2.1-1.5,2.9c-0.8,0.4-1.6,0.3-2.4,0.3c-73.2,0-146.3,0-219.5,0
	c-1.2,0-2.4,0.1-3.7-0.1C241.2,362.3,240.2,362,240.7,360.6z"/>
<path class="st49" d="M396.4,254.8c2.1-2.3,4.2-4.6,6.3-6.9c4.3,0.5,8.6,0.3,12.9,0.3c25,0,50,0,75,0c1.6,0,3.3-0.4,4.4,1.3
	c0,3.3,0,6.6,0,9.9c0,0.8,0.3,1.6-0.5,2.3c-0.8-0.7-0.7-1.7-0.7-2.7c-0.1-1.7-0.9-2.5-2.6-2.4c-0.9,0-1.8,0-2.7,0
	c-28.7,0-57.5,0-86.2,0c-1.2,0-2.4,0.1-3.6-0.1C397.7,256.3,396.5,256.3,396.4,254.8z"/>
<path class="st50" d="M450.2,391.1c-0.1-0.7-0.4-1-1.1-1c-0.7,0-1.5,0-2.2,0c-72.4,0-144.8,0-217.2,0c-1,0-2.6,0.9-3.1-1
	c0.7-1.1,1.3-2.2,2.4-3c2.7,0.4,5.5,0.3,8.3,0.3c25.2,0,50.3,0,75.5,0c0.9,0,1.8,0,2.7,0.1c10.4-0.1,20.8-0.1,31.3,0
	c10.4-0.1,20.8-0.1,31.2,0c10.4-0.1,20.8-0.1,31.3,0c13.6-0.1,27.1-0.1,40.7,0c1,0,2.4-0.3,2.8,1.3
	C451.9,388.9,451.3,390.2,450.2,391.1z"/>
<path class="st51" d="M247,340.2c0.9-1.1,2.2-1.8,3.4-2.4c0.4,0.1,0.9,0.1,1.3,0.2c5.7,0.4,11.5,0.1,17.2,0.1
	c4.3,0.1,8.6-0.1,12.8,0.1c0.3,0,0.6-0.1,0.9-0.1c20-0.1,40,0,60.1,0c1.4,0,2.8,0.1,4.1-0.1c1.3-0.4,2.7-0.4,4.1-0.4
	c9.3,0,18.6,0,27.9,0c10.4,0,20.8,0,31.2,0c10.4,0,20.8,0,31.2,0c11.1,0,22.2,0,33.2,0c1.2,0,2.7-0.3,3.4,1.2c0,1.1-0.3,2.1-1,2.9
	c-0.9,0.3-1.9,0.3-2.9,0.3c-73.5,0-146.9,0-220.4,0c-1.5,0-2.9,0.1-4.4-0.2C248.4,341.7,247.1,341.7,247,340.2z"/>
<path class="st52" d="M281.2,315.8c1.1-1.2,2.6-1.9,3.9-2.9c2,0.3,4,0.4,6.1,0.4c63.5,0,127.1,0,190.6,0c1.5,0,3.1-0.4,4.5,0.7
	c0,1.1-0.3,2.1-1,2.9c-0.8,0.7-1.8,0.8-2.7,0.8c-11.5,0-22.9,0.1-34.4,0c-1.5,0.1-3.1,0.1-4.6,0.1c-51.9,0-103.8,0-155.7,0
	c-1.5,0-2.9,0.1-4.4-0.2C282.5,317.3,281.3,317.3,281.2,315.8z"/>
<path class="st53" d="M322.7,286.1c1.6-1.2,3.2-2.3,4.8-3.5c2.9,0.7,5.8,0.3,8.7,0.3c50.9-0.1,101.9,0,152.8,0
	c1.2,0,2.5-0.1,3.5,0.8c0.2,1.2-0.2,2.3-0.5,3.4c-0.9,0.8-1.9,0.7-3,0.7c-54.5,0-109,0-163.5,0C324.5,287.8,322.7,288.5,322.7,286.1
	z"/>
<path class="st54" d="M494.6,259.3c0,0.8,0,1.6,0,2.4c-0.3,2.6,0.5,5.3-0.5,7.8c-0.2-0.2-0.4-0.5-0.5-0.8c-0.8-3.3-0.8-3.3-4.7-3.3
	c-32.7,0-65.4,0-98.1,0c-1.1,0-2.3,0.1-3.4-0.1c-0.8-0.1-1.7-0.1-1.7-1.3c2.3-1.9,4.6-3.8,6.9-5.8c1.9,0.3,3.7,0.2,5.6,0.2
	c30.7,0,61.3,0,92,0C491.6,258.5,493.2,258.2,494.6,259.3z"/>
<path class="st55" d="M359.8,277.4c3.4-1.4,6.8-2.7,10.2-4.1c40.1-0.4,80.2-0.1,120.3-0.1c1.2,0,2.7-0.4,3.3,1.3
	c0.1,1.3-0.1,2.6-0.5,3.9c-1.3,1.1-2.9,0.8-4.5,0.8c-31.7,0-63.4,0-95.1,0c-9.8,0-19.7,0-29.5,0c-1,0-2,0.1-2.9-0.2
	C360.3,278.7,359.4,278.6,359.8,277.4z"/>
<path class="st56" d="M247,340.2c1.3,1.3,3,1.1,4.6,1.1c70.4,0,140.8,0,211.2,0c4,0,8,0,11.9,0c0.8,0,1.7-0.3,2.3,0.5
	c0,0.9-0.2,1.8-1,2.4c-2.6,0.5-5.2,0.1-7.7,0.2c-2.4,0.1-4.7-0.1-7.1,0.2c-6.5-0.4-13-0.1-19.5-0.2c-3.1,0-6.2,0-9.2,0
	c-20.4,0-40.8,0-61.2,0c-1,0-2-0.1-2.9,0.2c-0.3,0.1-0.6,0-1,0c-1.4-0.3-2.8-0.2-4.1-0.2c-39.1,0-78.1,0-117.1,0
	c-1.1-0.1-2.1,0.1-3.1-0.3c-0.3-0.2-0.4-0.4-0.3-0.7C244,342.2,245.4,341.1,247,340.2z"/>
<path class="st57" d="M241.8,352c0.1-0.8,0.3-1.6,0.4-2.4c0.9-0.8,1.9-0.7,3-0.7c36.4,0,72.8,0,109.2,0c10.4,0,20.9,0,31.3,0
	c10.4,0,20.8,0,31.3,0c17.7,0,35.5,0,53.2,0c1.3,0,2.7-0.3,3.5,1.2c-0.3,0.7-0.6,1.3-1,2c-1.5,1-3.1,0.8-4.7,0.8
	c-31.7,0-63.4,0-95.1,0c-28.2,0-56.4,0-84.6,0c-14.1,0-28.3,0-42.4,0C244.4,352.8,242.9,353.1,241.8,352z"/>
<path class="st58" d="M304.2,489.2c-12.1,2.9-24.3,4.6-36.7,5.5c-10.8,0.8-21.6,1-32.4,0.3c-13.2-0.8-26.2-2.7-39.1-5.4
	c-0.2,0-0.4-0.2-0.6-0.4c0.1-1.1,1.1-1.1,1.8-1.2c2.2-0.3,4.3-0.6,6.5-0.6c30.7,0,61.4,0,92.1,0c2.2,0,4.4,0.3,6.5,0.6
	C303.1,488.1,304,488.1,304.2,489.2z"/>
<path class="st59" d="M255.8,333.9c1,1.3,2.5,1,3.8,1c65.7,0,131.4,0,197.1,0c7.6,0,15.1,0,22.7,0c0,0.9-0.2,1.8-1,2.4
	c-0.8,0.7-1.9,0.5-2.8,0.5c-11.4,0-22.9,0-34.3,0c-10.4,0-20.8,0-31.3,0c-10.4,0-20.9,0-31.3,0c-9.8,0-19.5-0.1-29.3,0
	c-30.5,0.4-61,0.1-91.4,0.2c-1.3,0-2.6,0.2-3.9-0.3c-0.8-0.3-1.9-0.5-1.4-1.8C253.8,335.2,254.7,334.4,255.8,333.9z"/>
<path class="st60" d="M343.3,476.6c-2.4,1.2-4.7,2.3-7.3,2.9c-27.5,0.6-54.9,0.2-82.4,0.2c-28.4,0.1-56.8,0-85.1,0
	c-1.6,0-3.2-0.5-4.8,0.1c-2.4-1-4.9-2-7.3-2.9c-0.4-1.2,0.6-1.3,1.3-1.5c0.8-0.2,1.6-0.1,2.4-0.1c59.8,0,119.7,0,179.5,0
	C340.8,475.3,342.6,474.6,343.3,476.6z"/>
<path class="st61" d="M304.2,489.2c-2.2-0.7-4.6-0.9-6.9-0.9c-31.7,0-63.4,0-95.1,0c-2.3,0-4.6,0.2-6.9,0.9
	c-5.3-0.9-10.5-2.4-15.6-4c-0.4-1.2,0.5-1.3,1.3-1.5c0.9-0.2,1.9-0.2,2.9-0.2c43.7,0,87.5,0,131.2,0c1,0,2-0.1,2.9,0.2
	c0.8,0.2,1.7,0.3,1.3,1.5C314.3,486.7,309.3,488.2,304.2,489.2z"/>
<path class="st62" d="M72.3,419.4c0.3-0.8,1-1,1.8-1c0.7,0,1.3,0,2,0c115.8,0,231.7,0,347.5,0c1.3,0,2.6-0.2,3.8,0.5
	c-0.5,0.5-1,1-1.5,1.4c-1,0.2-2.1,0.2-3.2,0.2c-114.7,0-229.3,0-344,0c-1.6,0-3.3-0.2-4.8,0.3C73.1,420.6,72.6,420.1,72.3,419.4z"/>
<path class="st63" d="M423.3,422.9c-0.7-0.8-1.7-0.5-2.5-0.5c-100.4,0-200.9,0-301.3,0c-13.6,0-27.1,0-40.7,0
	c-0.9,0-2.2-0.7-2.6,0.9c-0.6-0.3-1.1-0.8-1.5-1.4c0.1-1.2,0.9-1.4,1.9-1.5c1.1-0.1,2.1,0,3.2,0c107,0,214,0,321,0
	c7.1,0,14.2,0,21.3,0c1,0,2.2-0.3,2.7,1C424.5,422,424,422.5,423.3,422.9z"/>
<path class="st64" d="M163.6,479.9c0.5-1.5,1.8-0.9,2.7-0.9c15.2,0,30.4,0,45.6,0c35.2,0,70.5,0,105.7,0c5.3,0,10.5,0,15.8,0
	c0.9,0,1.8-0.3,2.5,0.5c-2.7,1.1-5.3,2.4-8.3,2.9c-1.7,0.5-3.4,0.3-5.1,0.3c-49.4,0-98.8,0-148.3,0c-0.7,0-1.3,0.1-1.9,0.2
	C169.3,482.2,166.6,480.8,163.6,479.9z"/>
<path class="st65" d="M139.7,404.8c3.3,1.6,6.6,3.2,10,4.7c0.7,0.3,1.5,0.4,2.2,0.6c0,1.4-1.1,1.5-2,1.6c-1,0.2-2.1,0.1-3.2,0.1
	c-26,0-52.1,0-78.1,0c-1.1,0-2.1-0.1-3.2-0.2c-2-1.5-3.3-3.6-4.8-5.4c0.2-1.3,1.2-1.4,2.1-1.6c1.2-0.3,2.4-0.2,3.6-0.2
	c22.8,0,45.6,0,68.4,0C136.5,404.4,138,404.7,139.7,404.8z"/>
<path class="st66" d="M493.6,274.4c-0.9-0.9-2-0.5-3-0.5c-39.2,0-78.4,0-117.6,0c-1,0-2.1,0.4-2.9-0.6c2.8-1.5,5.5-2.9,8.3-4.4
	c1.9,0.5,3.9,0.4,5.8,0.4c35.3,0,70.7,0,106,0c1.3,0,2.8-0.3,4,0.7C493.9,271.5,494.6,273,493.6,274.4z"/>
<path class="st67" d="M370.6,463.3c-1.3,0.7-2.6,1.4-3.9,2c-2.3,0.3-4.5,0.3-6.8,0.3c-26.6,0-53.2,0-79.8,0c-0.9,0-1.8,0-2.7-0.1
	c-10.4,0.1-20.9,0.1-31.3,0c-1,0.1-1.9,0.1-2.9,0.1c-36.5,0-72.9,0.1-109.4-0.1c-0.3,0-0.6,0.1-0.9,0.2c-1.5-0.6-2.8-1.3-4-2.3
	c0.2-1.6,1.5-1.2,2.5-1.2c5.4-0.1,10.9-0.1,16.3,0c1.9,0,3.7-0.1,5.6-0.1c71.1,0,142.1,0,213.2,0
	C367.9,462.2,369.6,461.4,370.6,463.3z"/>
<path class="st68" d="M475.1,346.2c-0.1,0.8-0.4,1.5-1,1.9c-0.9,0.8-1.9,0.7-3,0.7c-18,0-36.1,0-54.1,0c-10.4,0-20.8,0-31.3,0
	c-10.4,0-20.9,0-31.3,0c-36.1,0-72.1,0-108.2,0c-3.2,0-3.6-0.3-3.7-2.7c1.1-1,2.5-0.7,3.7-0.7c18,0.1,36.1,0.1,54.1,0
	c33.8-0.1,67.6-0.1,101.4-0.1c23.2,0,46.3,0,69.5,0C472.6,345.5,474,345.1,475.1,346.2z"/>
<path class="st69" d="M241.8,352c76.9,0,153.9,0,230.8,0c-0.3,0.7-0.6,1.3-0.9,2c-1.3,0.9-2.8,0.7-4.3,0.7c-60.7,0-121.3,0-182,0
	c-13.2,0-26.5,0-39.7,0c-1.5,0-3.2,0.2-3.9-1.7C241.8,352.7,241.8,352.4,241.8,352z"/>
<path class="st70" d="M240.7,360.6c0.1,0.9,0.6,1.2,1.5,1.2c0.7,0,1.5,0,2.2,0c73.3,0,146.6,0,219.8,0c1.2,0,2.5-0.2,3.6,0.5
	c0,0.7-0.3,1.2-0.9,1.5c-1.1,0.9-2.5,0.7-3.7,0.7c-31.9,0-63.8,0-95.6,0c-40.6,0-81.2,0-121.7,0c-1.1,0-2.3,0.1-3.4-0.1
	c-1-0.2-2.2-0.3-2.1-1.8C240.2,361.9,240.2,361.2,240.7,360.6z"/>
<path class="st71" d="M142.6,470.7c-1.4-0.5-2.7-1.1-3.9-2c-0.5-1.2,0.4-1.4,1.2-1.6c0.9-0.2,1.8-0.2,2.7-0.2c33.9,0,67.9,0,101.8,0
	c0.6,0,1.1,0,1.7,0.1c10.4-0.1,20.9-0.1,31.3,0c8-0.2,15.9-0.1,23.9-0.1c18.7,0,37.4,0,56.1,0c1.4,0,3.2-0.7,4,1.3
	c-1.3,0.9-2.7,1.8-4.3,2c-1.5,0.1-3.1,0.1-4.6,0.1c-68.3,0-136.6,0-205,0C145.8,470.4,144.2,470.2,142.6,470.7z"/>
<path class="st72" d="M317.3,290c0.9-1.1,2.2-1.8,3.4-2.4c1.9,0.3,3.9,0.3,5.8,0.3c35.7,0,71.4,0,107.1,0c18.2,0,36.4,0,54.7,0
	c1.2,0,2.7-0.5,3.3,1.2c-0.1,0.8,0.3,1.8-0.5,2.4c-1,0.3-2.1,0.2-3.1,0.2c-15.6,0-31.3,0-46.9,0c-1.4,0-2.8,0-4.1,0.2
	c-1.4-0.3-2.9-0.2-4.4-0.2c-36.6,0-73.2,0-109.9,0c-1.1,0-2.3,0.1-3.4-0.1C318.4,291.5,317.4,291.3,317.3,290z"/>
<path class="st73" d="M407,242.1c0.8-1.6,1.8-3,2.9-4.4c1.1-0.7,2.3-0.7,3.5-0.7c25.9,0,51.8,0,77.7,0c1.2,0,2.5-0.1,3.5,0.8
	c0,2.3,0.8,4.5,0.5,6.8c-2-1.2-4.3-1.2-6.6-1.2c-25.6,0-51.2,0-76.8,0C410,243.4,408.2,244,407,242.1z"/>
<path class="st74" d="M359.8,277.4c0.4,1.6,1.7,0.9,2.7,0.9c16.4,0,32.8,0,49.2,0c27.1,0,54.3,0,81.4,0c-0.2,1.5,0.5,3-0.5,4.4
	c-1.8-0.7-3.6-0.7-5.5-0.7c-44.4,0-88.9,0-133.3,0c-1.2,0-2.5,0.1-3.6-0.1c-0.8-0.2-2-0.1-1.5-1.6
	C352.4,279.3,356.1,278.4,359.8,277.4z"/>
<path class="st75" d="M269.5,324.1c0.8-0.6,1.6-1.2,2.5-1.8c1.9,0.2,3.9,0.1,5.8,0.1c66.6,0,133.1,0,199.7,0c1.3,0,2.6-0.1,3.9,0.1
	c1,0.1,2,0.3,2,1.7c0,0.5,0.1,1.1-0.5,1.5c-4.1,0.4-8.1,0.1-12.2,0.2c-1.5,0-3.1,0-4.6,0c-63.4,0-126.9,0-190.3,0
	c-1.3,0-2.6,0.1-3.9-0.1C270.9,325.6,269.7,325.6,269.5,324.1z"/>
<path class="st76" d="M483.4,324.2c-0.7-1.5-2.1-1-3.3-1c-46.3,0-92.6,0-138.9,0c-22.2,0-44.4,0-66.6,0c-0.9,0-2.2,0.7-2.7-0.9
	c1-0.7,1.9-1.4,2.9-2.1c39.1,0.5,78.3,0.1,117.4,0.2c29.2,0.1,58.4,0,87.6,0c1.5,0,3.1-0.4,4.4,0.8
	C484.3,322.3,484.1,323.4,483.4,324.2z"/>
<path class="st77" d="M148.5,473.5c-1.3-0.6-2.6-1.3-3.9-1.9c-0.4-0.9,0.1-1.2,0.8-1.4c0.8-0.2,1.6-0.1,2.4-0.1
	c68,0,135.9,0,203.9,0c0.8,0,1.6-0.1,2.4,0.1c0.7,0.1,1.3,0.4,0.8,1.3c-1.3,0.6-2.6,1.3-3.9,1.9c-1.5-0.5-3.1-0.1-4.6-0.1
	c-65,0-130.1,0-195.1,0C150.4,473.4,149.4,473.1,148.5,473.5z"/>
<path class="st78" d="M484.3,321.3c-68.3,0-136.6,0-204.9,0c-1.6,0-3.3,0.2-4.6-1c1.1-0.8,2.3-1.6,3.4-2.4c0.5,0.2,1.1,0.5,1.6,0.7
	c1.2,0.3,2.4,0.2,3.6,0.2c65.6,0,131.2,0,196.8,0c1.5,0,3.1-0.4,4.5,0.7C484.8,320,485,320.8,484.3,321.3z"/>
<path class="st79" d="M211,226.7c-0.4,0.6-0.7,1.2-1.1,1.8c-0.6,0.4-1.2,0.6-1.8,0.4c-1.1-0.3-2.3-0.2-3.4-0.2
	c-64.8,0-129.7,0-194.5,0c-1.6,0-3.2,0.7-4.8-0.2c0-0.7,0-1.3,0-2c1.2-1.5,2.9-1.3,4.5-1.3c11.9-0.1,23.7,0,35.6,0
	c18.8,0,37.5,0,56.3,0c0.9,0,1.8,0,2.7,0.1c17.2-0.2,34.3,0,51.5-0.1c3.7,0,7.3-0.1,11,0.1c13.8-0.1,27.6-0.1,41.3,0
	C209.3,225.3,210.7,225,211,226.7z"/>
<path class="st80" d="M148.5,473.5c0.1-0.5,0.4-0.9,1-0.9c0.7,0,1.3,0,2,0c65.6,0,131.2,0,196.7,0c1,0,2.3-0.7,2.9,0.8
	c-1.4,0.5-2.9,1.1-4.3,1.6c-1.9,0.3-3.7,0.2-5.6,0.2c-46.6,0-93.2,0-139.7,0c-15.7,0-31.4,0-47.1,0c-0.5,0-1,0-1.5,0.1
	C151.4,474.8,149.9,474.2,148.5,473.5z"/>
<path class="st74" d="M348.6,280.3c0.5,1.5,1.8,0.9,2.7,0.9c29.5,0,59,0,88.5,0c16.8,0,33.6,0,50.4,0c1,0,2.5-0.5,2.4,1.5
	c0,0.3,0,0.6,0,1c-32.5,0-64.9,0-97.4,0c-21.6,0-43.2,0-64.9,0c-1,0-2.4,0.7-2.8-1c1.5-1.1,3.1-0.4,4.7-0.4c1.7-0.5,3.4,0.1,5.1-0.4
	C341.1,281.3,344.9,280.8,348.6,280.3z"/>
<path class="st81" d="M139.7,404.8c-0.8,0.8-1.9,0.4-2.8,0.4c-24,0-48.1,0-72.1,0c-1.5,0-2.9,0-4.1,1c-1.5-1.9-3.4-3.6-4.5-5.8
	c0.8-0.9,1.9-0.8,3-0.8c23.6-0.1,47.1,0,70.7,0c0.7,0,1.5,0.1,2.2,0.3C134.5,401.5,137.1,403.1,139.7,404.8z"/>
<path class="st82" d="M289.5,309.9c0.5-0.7,1.2-1,2-1.4c1.7-0.2,3.4-0.2,5.1-0.2c61.3,0,122.6,0,184,0c1.5,0,2.9-0.1,4.4,0.2
	c1,0.2,2.2,0.2,2.4,1.6c0,0.3,0,0.6,0,1c-1,0.7-2.1,0.7-3.3,0.7c-63.7,0-127.3,0-191,0C291.7,311.7,289.7,312.3,289.5,309.9z"/>
<path class="st83" d="M487.3,310.1c-1.3-1.1-2.8-1-4.4-1c-62.7,0-125.5,0-188.2,0c-1.1,0-2.3,0.5-3.2-0.6c1-1,2.2-1.8,3.4-2.4
	c1.6,0.3,3.2,0.4,4.8,0.4c16.3,0,32.7,0,49,0c45.1,0,90.2,0,135.3,0c1.4,0,3-0.4,4.2,0.7C487.5,308,488.1,309.3,487.3,310.1z"/>
<path class="st84" d="M172.4,482.8c0.9-1,2-0.9,3.1-0.9c49.4,0,98.9,0,148.3,0c1.3,0,2.5,0.5,3.8,0.5c-2.6,1.4-5.5,2-8.4,2.8
	c-0.5-1.5-1.8-0.9-2.7-0.9c-19.9,0-39.8,0-59.7,0c-24.9,0-49.7,0-74.6,0c-0.9,0-2.2-0.7-2.7,0.9C177.3,484.4,174.7,484,172.4,482.8z
	"/>
<path class="st85" d="M298.3,303.6c1-0.9,2.1-1.9,3.4-2.4c1.7,0.6,3.4,0.4,5.1,0.4c59.2,0,118.5,0,177.7,0c1.4,0,2.9-0.2,4.3,0.4
	c0.1,0.1,0.2,0.2,0.4,0.3c-0.1,0.8,0.3,1.8-0.5,2.4c-1,0.3-1.9,0.2-2.9,0.2c-61.1,0-122.3,0-183.4,0c-0.9,0-1.8,0.1-2.7-0.1
	C299.1,304.7,298.2,304.7,298.3,303.6z"/>
<path class="st86" d="M494.6,237.8c-27.1,0-54.2,0-81.3,0c-1.1,0-2.3,0-3.4-0.1c1-1.8,2.1-3.6,3.1-5.3c10.4,0.5,20.8,0.2,31.2,0.2
	c15.1,0.1,30.2,0,45.3,0c1.8,0,3.6-0.2,5,1.3C494.6,235.2,494.6,236.5,494.6,237.8z"/>
<path class="st87" d="M302.7,300.3c0.8-0.5,1.3-1.6,2.4-1.6c2-0.4,4.1-0.2,6.1-0.2c58.1,0,116.2,0,174.3,0c1.5,0,3.2-0.5,4.2,1.2
	c-0.1,0.8,0.3,1.8-0.5,2.4c0,0,0,0,0,0c-0.8-0.6-1.7-0.5-2.6-0.5c-42.4,0-84.9,0-127.3,0c-17.8,0-35.6,0-53.4-0.1
	C304.7,301.7,303.2,302.1,302.7,300.3z"/>
<path class="st88" d="M418.3,220.7c0.2-1.6,0.7-3,1.5-4.4c22.4,0,44.7,0,67.1,0c5.5,0,5.9,0.3,6.8,5.9c-2.1,0.5-4.1-0.2-6.2-0.2
	c-21.6,0.1-43.1,0.1-64.7,0C421.2,222,419.4,222.4,418.3,220.7z"/>
<path class="st57" d="M67.4,343.8c5.7,2.4,11.4,4.8,17.1,7.3c-0.4,1.4-1.6,1.1-2.6,1.2c-2.9,0.1-5.8,0-8.8,0c-11.9,0-23.9,0-35.8,0
	c-3.5,0-7-0.1-10.5,0.2c-1.3-2.1-2.3-4.4-2.9-6.8c0-1.2,0.8-1.5,1.7-1.6c1-0.2,1.9-0.1,2.9-0.1c11.5,0,23,0,34.5,0
	C64.5,343.9,66,344.6,67.4,343.8z"/>
<path class="st89" d="M226.1,412.1c0.2,0,0.3,0,0.5,0c0.8-0.4,1.8-0.2,2.6-0.2c20.9,0,41.8,0,62.8,0c20.8,0,41.7,0,62.5,0
	c18.8,0,37.6,0,56.5,0c0.9,0,1.8-0.2,2.6,0.2c0.2,0,0.3,0,0.5,0c5.6-0.5,11.3-0.2,17-0.1c0.7,0,1.5,0.2,2.1,0.6c0,0,0,0,0,0.1
	c-0.2,0.5-0.5,0.8-1,0.9c-0.5,0.3-1.1,0.2-1.7,0.2c-80.2,0-160.4,0-240.5,0c-1.3,0-3,0.6-3.9-1.1c2.6-0.6,5.2-1.1,7.7-1.7
	c0.8,1,2,0.9,3.1,0.9c8.8,0,17.5,0,26.3,0C224.2,411.8,225.1,411.8,226.1,412.1z"/>
<path class="st90" d="M495.1,249.5c-1-0.7-2.2-0.5-3.3-0.5c-28.4,0-56.9,0-85.3,0c-1.4,0-2.8,0.3-3.8-1.1c0.7-1.2,1.6-2.3,2.5-3.3
	c1-0.2,2.1-0.3,3.1-0.3c27,0,53.9,0,80.9,0c2.1,0,4.3-0.2,5.8,1.8C495.1,247.2,495.1,248.4,495.1,249.5z"/>
<path class="st47" d="M494.6,233.9c-2.4-0.6-4.8-0.5-7.2-0.5c-23.8,0-47.5,0-71.3,0c-1.1,0-2.3,0.4-3-1c0.4-1.4,1.1-2.7,2-3.9
	c0.9-0.3,1.8-0.3,2.7-0.3c24.2,0,48.3,0,72.5,0c1.4,0,2.8-0.2,4,0.8C493.9,230.7,494.3,232.3,494.6,233.9z"/>
<path class="st91" d="M308.6,296.3c0.3-0.5,0.8-0.8,1.4-1c1.9-0.2,3.7-0.2,5.6-0.2c47.1,0,94.3,0,141.4,0c9.8,0,19.5-0.1,29.3,0
	c1.4,0,3-0.3,3.9,1.3c0,0.6,0,1.3,0,1.9c-0.8,0.4-1.6,0.2-2.4,0.2c-58.4,0-116.7,0-175.1,0c-1.1,0-2.3,0.2-3.4-0.2
	C308.4,298,307.4,297.5,308.6,296.3z"/>
<path class="st92" d="M490.2,296.4c-1.1-0.7-2.4-0.5-3.6-0.5c-57.8,0-115.6,0-173.5,0c-1.1,0-2.3,0.5-3.2-0.6c1-0.7,2-1.5,3-2.2
	c2.1,0.1,4.2,0.1,6.3,0.1c55.6,0,111.1,0,166.7,0c1.6,0,3.3-0.4,4.7,0.8C490.6,294.8,491,295.7,490.2,296.4z"/>
<path class="st93" d="M490.7,293.9c-58.1,0-116.3,0-174.4,0c-1.1,0-2.5,0.5-3.3-0.9c1-0.7,1.9-1.4,2.9-2.1c1.7,0.5,3.5,0.6,5.3,0.6
	c36.8,0,73.5,0,110.3,0c18.8,0,37.6,0,56.3,0c1.1,0,2.3-0.3,3.3,0.5C491.1,292.7,491.4,293.4,490.7,293.9z"/>
<path class="st94" d="M494.1,229c-25.4,0-50.9,0-76.3,0c-0.9,0-2,0.4-2.8-0.5c0.4-1.6,1.1-3,2-4.4c0.9-0.3,1.8-0.3,2.6-0.3
	c23.1,0,46.2,0,69.2,0c1.7,0,3.5-0.3,4.8,1.3C494.4,226.3,494,227.7,494.1,229z"/>
<path class="st69" d="M241.8,353c0.8,0.7,1.8,1.1,2.9,1c0.6-0.1,1.1,0,1.7,0c75.1,0,150.2,0,225.3,0c-0.7,0.7-0.2,1.8-1,2.4
	c-21.7-0.4-43.5-0.1-65.2-0.2c-1.1,0-2.1,0-3.2-0.1c-1.5,0.1-3.1,0.1-4.6,0.1c-50.5,0-101,0-151.5,0c-1.6,0-3.3,0.4-4.7-0.8
	C241.6,354.6,241.7,353.8,241.8,353z"/>
<path class="st95" d="M246.1,467.7c-34.9,0-69.7,0-104.6,0c-1,0-2.4-0.7-2.8,1c-1.9-1-3.9-2-5.8-3c0.4-1.6,1.7-0.9,2.6-0.9
	c22.5,0,45,0,67.5,0c14.4,0,28.7,0,43.1,0C246.9,465.8,246.9,466.8,246.1,467.7z"/>
<path class="st96" d="M121.2,389.1c1.3,1.4,2.6,2.7,3.8,4.1c-0.2,1.3-1.2,1.4-2.2,1.5c-1,0.1-2.1,0.1-3.2,0.1c-20.5,0-41,0-61.6,0
	c-2.1,0-4.2,0-6.3,0.2c-1.2-1.6-2.5-3.1-3.4-4.9c0.4-1.6,1.8-1.2,2.8-1.2c11-0.1,22.1,0,33.1,0c11.4,0,22.9,0.1,34.3-0.1
	C119.5,388.7,120.3,388.6,121.2,389.1z"/>
<path class="st50" d="M115.8,381.8c0.9,1.3,1.9,2.7,2.8,4c0.4,1.2-0.6,1.3-1.3,1.5c-1.1,0.3-2.3,0.2-3.4,0.2c-18.6,0-37.3,0-55.9,0
	c-3.7,0-7.5-0.1-11.2,0.2c-1.4-1.4-2.4-3.2-3.4-4.9c0.1-1.1,1-1.1,1.8-1.2c1-0.2,1.9-0.1,2.9-0.1c21.7,0,43.3,0,65,0
	C114.1,381.5,115,381.5,115.8,381.8z"/>
<path class="st97" d="M262.2,329.5c0.4-0.8,1.2-1.1,2-1.4c1.8,0.5,3.5,0.4,5.3,0.4c69.3,0,138.6,0,208,0c1.5,0,3.1-0.4,4.5,0.7
	c-0.2,0.5-0.3,1-0.5,1.5c-0.6,0.4-1.3,0.6-2.1,0.6c-9.3-0.3-18.7-0.1-28-0.1c-51.8,0-103.6,0-155.4,0c-10.2,0-20.5,0-30.7,0
	C263.9,331,262.4,331.4,262.2,329.5z"/>
<path class="st98" d="M266.1,326.6c0.7-0.5,1.3-1,2-1.5c2,0.5,4,0.6,6,0.6c64.2,0,128.4,0,192.6,0c4.4,0,8.8,0,13.2,0
	c0.9,0,2-0.2,2.5,1c0,0.3,0,0.6,0,1c-1.2,0.9-2.6,0.7-4,0.7c-17.5,0-35.1,0-52.6,0c-51.5,0-103.1,0-154.6,0c-1.1,0-2.1,0.1-3.2-0.1
	C267,328.1,266,327.9,266.1,326.6z"/>
<path class="st99" d="M67.4,343.8c-0.4,1.4-1.6,0.8-2.5,0.9c-12.7,0-25.3,0-38,0c-1.1,0-2.3-0.4-3,1c-1.6-2.6-2.5-5.4-3.4-8.3
	c0.5-1.6,1.9-1.2,3-1.2c6.6-0.1,13.3,0,19.9-0.1c1.1,0,2.5,0.4,3.4-0.6c4.5,1.3,8.6,3.5,13,5.3C62.4,341.8,64.9,342.8,67.4,343.8z"
	/>
<path class="st79" d="M5.4,228.5c2.4-0.6,4.8-0.5,7.3-0.5c60.9,0,121.8,0,182.7,0c4.9,0,9.7-0.4,14.6,0.5c0,0.7-0.4,1.1-0.9,1.5
	c-1.3-0.4-2.7-0.5-4.1-0.5c-64.6,0-129.2,0-193.8,0c-2.3,0-4.7-0.4-6.2,2C4.9,230.4,4.8,229.4,5.4,228.5z"/>
<path class="st100" d="M131.9,399.8c-1,0.6-2.2,0.5-3.3,0.5c-24.2,0-48.3,0-72.5,0c-1.1-0.7-1.9-1.7-2.4-2.9c0.4-1.9,2-1.7,3.3-1.7
	c4.5-0.2,8.9,0,13.4,0c18.1-0.1,36.1,0,54.2,0c1.1,0,2.3,0,3.4,0.3C129.5,397,130.8,398.4,131.9,399.8z"/>
<path class="st68" d="M475.1,346.2c-57.3,0-114.7,0-172,0c-20.1,0-40.3,0-60.4,0c-0.3-0.5-0.3-0.9,0.2-1.3c1.3-0.6,2.7-0.4,4.1-0.4
	c29.2,0,58.4,0,87.7,0c0.5,0,0.9-0.1,1.4-0.2c0.3,0,0.6,0,0.9,0c10,0,20-0.1,30,0c0.3,0.1,0.6,0.1,0.9,0.2c1.1-0.3,2.3-0.2,3.4-0.2
	c28.9,0,57.9,0,86.8,0c4.9,0,9.7-0.1,14.6,0c1,0,2.2-0.2,2.8,1C475.5,345.6,475.5,346,475.1,346.2z"/>
<path class="st101" d="M108.5,365.2c0.1,1.2,1.1,2.2,0.9,3.4c-0.8,1.6-2.4,1.2-3.7,1.2c-14.5,0-29,0-43.4,0c-8.1,0-16.3,0-24.4,0
	c-0.7,0-1.5,0-2.2-0.2c-0.9-1.4-2-2.7-2.4-4.4c0.9-0.9,2.1-0.8,3.2-0.8c22.9,0,45.9,0,68.8,0C106.4,364.4,107.5,364.4,108.5,365.2z"
	/>
<path class="st102" d="M110.4,370.6c0.5,1.1,1,2.3,1.5,3.4c-0.1,1.1-1,1.1-1.8,1.2c-0.9,0.2-1.8,0.1-2.7,0.1c-21.6,0-43.2,0-64.8,0
	c-1.5,0-3.1,0.1-4.5-0.8c-0.5-1-1-1.9-1.5-2.9c0-1.2,0.8-1.5,1.7-1.6c0.6-0.1,1.3-0.1,1.9-0.1c22.2,0,44.4,0,66.6,0
	C108.1,369.8,109.3,369.8,110.4,370.6z"/>
<path class="st103" d="M38.2,374.5c23.6,0,47.3,0,70.9,0c0.9,0,2,0.4,2.8-0.5c0.9,1.1,1.1,2.5,1.5,3.9c0,1.2-1,1.1-1.7,1.3
	c-1,0.2-2.1,0.1-3.2,0.1c-20.1,0-40.2,0-60.4,0c-2.2,0-4.4,0-6.6,0.3C40.1,378,39.3,376.1,38.2,374.5z"/>
<path class="st104" d="M41.5,379.4c0.2-1.2,1-1,1.9-1c9.3,0,18.5,0.1,27.8,0.1c13.6,0,27.1-0.1,40.7-0.1c0.6,0,1.1,0,1.5-0.6
	c1.4,0.9,1.6,2.7,2.5,3.9c-1,0.6-2.2,0.5-3.3,0.5c-22.1,0-44.2,0-66.3,0c-0.9,0-2-0.4-2.8,0.5C42.6,381.8,41.8,380.8,41.5,379.4z"/>
<path class="st105" d="M152.9,475.5c0.5-1,1.4-0.9,2.3-0.9c14.2,0.1,28.4,0.2,42.6,0.1c26.5-0.1,53,0,79.5-0.1c22-0.1,44,0,66.1,0
	c1.1,0,2.3-0.1,3.3,0.5c-1,0.9-2.2,1.2-3.4,1.5c-0.7-0.8-1.7-0.5-2.5-0.5c-60.7,0-121.4,0-182,0c-0.9,0-2-0.6-2.5,0.9
	C155.1,476.4,154,475.9,152.9,475.5z"/>
<path class="st46" d="M65.4,411.7c0.8-1,2-0.5,3-0.5c26.8,0,53.6,0,80.4,0c1.1,0,2.3,0.4,3-0.9c4.3,1.1,8.5,2.2,12.8,3.4
	c-1.3,0.4-2.7,0.5-4.1,0.5c-29.8,0-59.5,0-89.3,0c-1,0-2.4-0.7-2.8,1C67.1,414.2,66.1,413,65.4,411.7z"/>
<path class="st106" d="M465.8,365.7c-0.7,1.1-1.3,2.3-2,3.4c-0.5,0.3-1.1,0.4-1.6,0.4c-19.7-0.2-39.4,0-59.1-0.1c-0.2,0-0.5,0-0.7,0
	c-4.3,0.1-8.6,0-12.9,0c-1,0-2,0-2.8-0.6c-0.9-1.2-0.9-2.5,0-3.7c1.1-0.8,2.3-0.5,3.5-0.5c9.2,0,18.5,0,27.7,0c10,0,20,0.1,30,0
	c5.4-0.5,10.7-0.2,16.1-0.2C464.9,364.3,465.8,364.5,465.8,365.7z"/>
<path class="st107" d="M308.6,296.3c-0.3,0.8-0.2,1.5,0.8,1.5c0.7,0.1,1.5,0,2.2,0c58.3,0,116.7,0,175,0c1.2,0,2.5-0.2,3.6,0.5
	c0,0.5,0.1,1.1-0.5,1.5c-0.9-0.5-1.9-0.5-2.8-0.5c-19.9,0-39.8,0-59.8,0c-39.8,0-79.7,0-119.5,0c-0.8,0-1.8,0.3-2.5-0.6
	C306.1,297.7,307.3,296.9,308.6,296.3z"/>
<path class="st43" d="M402.3,368.6c19.2,0,38.3,0,57.5,0c1.4,0,2.7,0.1,4.1,0.5c-1,1.3-0.9,3.3-2.4,4.4c-1-0.7-2.2-0.5-3.3-0.5
	c-18.6,0-37.2,0-55.8,0C401.3,371.6,401.3,370.1,402.3,368.6z"/>
<path class="st70" d="M99.1,357c2.5,1,4.9,1.9,7.4,2.9c0.7,0.3,1.1,0.7,1,1.4c-1.1,1.5-2.7,1.3-4.2,1.3c-9.7,0-19.5,0-29.2,0
	c-13.1,0-26.1,0-39.2,0c-1.1,0-2.1,0.1-3.1-0.3c-0.9-1.2-1.6-2.5-2-3.9c1.2-1.1,2.8-0.8,4.2-0.8c19.7,0,39.5,0,59.2,0
	C95.2,357.6,97.2,357.6,99.1,357z"/>
<path class="st108" d="M493.6,225.1c-1.3-0.4-2.7-0.5-4.1-0.5c-23.3,0-46.5,0-69.8,0c-0.9,0-2,0.4-2.8-0.5c0.2-1.2,0.7-2.4,1.3-3.5
	c1.1,0.7,2.3,0.5,3.6,0.5c22.1,0,44.1,0,66.2,0c1.9,0,3.9-0.2,5.6,1C493.6,223.1,493.6,224.1,493.6,225.1z"/>
<path class="st70" d="M31.7,362.3c0.7-0.8,1.7-0.5,2.5-0.5c13.6,0,27.3,0,40.9,0c9.4,0,18.8,0,28.2,0c1.4,0,2.7-0.1,4.1-0.5
	c0.7,1.2,0.5,2.7,1,3.9c-25.1,0-50.2,0-75.2,0C32.4,364.4,32,363.4,31.7,362.3z"/>
<path class="st95" d="M361.3,468.3c-0.9-0.9-2-0.5-3-0.5c-27,0-54,0-81,0c-0.8-1-0.8-2,0-2.9c28.8,0,57.6,0,86.4,0
	c1,0,2.1-0.4,3,0.5C364.9,466.3,363.1,467.3,361.3,468.3z"/>
<path class="st109" d="M491.7,289.1c-0.7-0.8-1.7-0.5-2.5-0.5c-4.8,0-9.6,0-14.3,0c-50.2,0-100.4,0-150.6,0c-1.2,0-2.7,0.6-3.4-1
	c0.4-0.8,1.2-1,2-1.4c0.1,0.7,0.5,1,1.2,1c0.7,0,1.5,0,2.2,0c55.3,0,110.7,0,166,0C492.1,287.8,492.4,288.5,491.7,289.1z"/>
<path class="st69" d="M99.1,357c-0.9,1.7-2.5,1.4-4,1.4c-20.6,0-41.1,0-61.7,0c-1.2,0-2.4,0-3.7,0c-0.7-0.8-1.2-1.8-1.4-2.9
	c0.1-1.1,1-1.1,1.8-1.2c1-0.2,1.9-0.1,2.9-0.1c18.3,0,36.7,0,55,0c1.5,0,2.9,0.1,4.3,0.3C94.6,355.3,96.9,356.1,99.1,357z"/>
<path class="st106" d="M465.8,365.7c-0.5-0.7-1.3-1-2.1-1c-4.7,0-9.4,0-14.1,0c-0.5,0-0.9,0.3-1.4,0.4c-0.8-0.5-1.7-0.2-2.6-0.2
	c-9.2,0-18.5,0-27.7,0c-20.8-0.3-41.6,0.7-62.4,0.5c-37.1,0-74.3,0-111.4,0c-1.3,0-2.6,0.1-3.9-0.2c-0.3-0.1-0.6-0.3-0.8-0.5
	c0.3-0.7,0.5-1.4,0.8-2.1c0.9,1.4,2.4,1.2,3.7,1.2c22.4,0,44.9,0,67.3,0c51.9,0,103.7,0,155.6,0
	C466.7,364.5,466.4,365.2,465.8,365.7z"/>
<path class="st45" d="M46.9,335.5c0.4,1.9-1.1,1.4-1.9,1.4c-7.3,0-14.6,0-21.9,0c-0.9,0-1.8-0.3-2.5,0.5c-2.2-4.9-3.8-10-5.3-15.2
	c8.7,3.7,17.6,6.9,26.1,11C43.1,334.1,44.9,335.1,46.9,335.5z"/>
<path class="st73" d="M495.1,246.1c-2.1-1-4.4-1-6.6-1c-26.7,0-53.5,0-80.2,0c-1,0-2.1,0.4-3-0.5c0.4-1,0.9-1.8,1.8-2.5
	c1.1,0.7,2.3,0.6,3.6,0.6c27.1,0,54.2,0,81.3,0c1.7,0,2.7,0.4,3.2,2C495.1,245.1,495.1,245.6,495.1,246.1z"/>
<path class="st97" d="M262.2,329.5c1,1.5,2.6,1.1,4,1.1c54,0,108.1,0,162.1,0c17.7,0,35.4,0,53.1,0c-0.3,0.7-0.6,1.3-1,2
	c-1.1-0.9-2.3-1-3.6-1c-61.2,0-122.5,0-183.7,0c-10.2,0-20.3,0-30.5,0c-0.8,0-1.8,0.3-2.4-0.6C260.7,330.3,261.2,329.5,262.2,329.5z
	"/>
<path class="st50" d="M46.9,387.7c0.7-1.5,2.1-1,3.2-1c22,0,43.9,0,65.9,0c0.9,0,2.2,0.7,2.7-0.9c1.2,0.8,1.5,2.3,2.5,3.3
	c-2.5,0.6-5,0.5-7.5,0.5c-20.8,0-41.7,0-62.5,0c-0.9,0-2-0.4-2.8,0.5C47.7,389.4,47.1,388.7,46.9,387.7z"/>
<path class="st69" d="M92.4,354.5c-1.3,0.4-2.7,0.5-4.1,0.5c-19.1,0-38.1,0-57.2,0c-0.9,0-2-0.4-2.8,0.5c-0.8-0.8-1.2-1.8-1.5-2.9
	c0.7-1.4,1.9-1,3-1c17.3,0,34.5,0,51.8,0c0.9,0,2,0.3,2.8-0.4C87.2,352,89.8,353.1,92.4,354.5z"/>
<path class="st98" d="M481.9,329.1c-71.4,0-142.9,0-214.3,0c-1.2,0-2.7,0.6-3.4-1.1c0.3-0.4,0.5-0.8,1-0.8c1.3,0.6,2.6,0.7,4,0.7
	c52.2,0,104.4,0,156.5,0c17.8,0,35.5,0,53.3,0c1,0,2.2-0.4,2.9,0.7C481.9,328.8,481.9,328.9,481.9,329.1z"/>
<path class="st110" d="M482.4,326.7c-1.1-0.7-2.4-0.5-3.6-0.5c-69.2,0-138.5,0-207.7,0c-1,0-2.6,0.9-3.1-1c0.5-0.3,1-0.6,1.5-1
	c1.3,1.2,3,1,4.6,1c64.5,0,128.9,0,193.4,0c4.3,0,8.6,0,12.9,0c0.9,0,1.8-0.3,2.5,0.5C482.9,326.1,482.8,326.4,482.4,326.7z"/>
<path class="st77" d="M355,471.6c-0.1-0.5-0.4-0.9-1-0.9c-0.6,0-1.3,0-2,0c-68.2,0-136.4,0-204.6,0c-1,0-2.4-0.8-2.9,0.9
	c-0.7-0.3-1.3-0.6-2-0.9c0.1-0.7,0.4-1,1.1-1c0.7,0,1.3,0,2,0c69.5,0,138.9,0,208.4,0c1,0,2.1-0.4,3,0.6
	C356.5,471.1,355.7,471.3,355,471.6z"/>
<path class="st111" d="M456.5,381.4c-0.5,1.2-0.9,2.5-2,3.4c-10.8-0.5-21.7-0.1-32.5-0.2c-4.3,0-8.6,0.1-12.9-0.1
	c-6.6,0.1-13.3,0-19.9,0c-0.9,0-1.8-0.1-2.6-0.6c-0.8-1.1-0.8-2.1-0.1-3.2c1-0.6,2.1-0.3,3.1-0.3c9.4,0,18.8,0,28.2,0
	c11.9,0,23.8,0,35.8,0C454.7,380.4,456,379.8,456.5,381.4z"/>
<path class="st112" d="M486.3,314c-50.9,0-101.8,0-152.7,0c-15,0-29.9,0-44.9,0c-1.3,0-2.6,0.2-3.6-1c0.5-0.3,1-0.7,1.5-1
	c3.2,0.5,6.5,0.4,9.7,0.4c62,0,124,0,186,0c1.5,0,3.1-0.4,4.5,0.7C486.6,313.3,486.4,313.6,486.3,314z"/>
<path class="st112" d="M486.8,313c-65.2,0-130.4,0-195.6,0c-1.6,0-3.3,0.2-4.6-1.1c0.5-0.3,1-0.7,1.5-1c1.7,0.5,3.5,0.6,5.3,0.6
	c63.2,0,126.4,0,189.6,0c1.3,0,2.6-0.4,3.8,0.5C486.8,312.3,486.8,312.7,486.8,313z"/>
<path class="st82" d="M486.8,312c-65.2,0-130.5,0-195.7,0c-1,0-2.6,0.8-3-1.1c0.3-0.6,0.8-0.9,1.4-1c0.6,1.4,1.8,1.1,2.9,1.1
	c8,0,16.1,0,24.1,0c56.9,0,113.8,0,170.7,0C487.1,311.3,486.9,311.7,486.8,312z"/>
<path class="st113" d="M104.5,226.1c-21,0-41.9,0-62.9,0c-10.7,0-21.4,0-32.1,0c-1.4,0-2.7,0.1-4.1,0.5c0-0.5,0-1,0-1.5c0,0,0,0,0,0
	c1.2-1.7,3-1.8,4.8-1.8c9.7,0.1,19.3,0.1,29,0.1c13.5-0.1,27,0,40.4-0.1c7.1,0,14.3,0,21.4,0c1.1,0,2.3-0.1,3.3,0.5
	C105.1,224.6,105.1,225.3,104.5,226.1z"/>
<path class="st83" d="M488.2,307.1c-25,0-50.1,0-75.1,0c-21.7,0-43.4,0-65.1,0c-16.7,0-33.5,0-50.2,0c-1.1,0-2.4,0.3-3-1.1
	c0.3-0.6,0.8-0.9,1.4-1c1.9,0.4,3.9,0.4,5.8,0.4c33.6,0,67.1,0,100.7,0c27.1,0,54.3,0,81.4,0c1.3,0,2.8-0.4,4,0.7
	C488.2,306.5,488.2,306.8,488.2,307.1z"/>
<path class="st114" d="M488.2,306.1c-15.2,0-30.4,0-45.6,0c-47.5,0-95,0-142.6,0c-1.4,0-2.8,0.3-3.8-1.1c0.3-0.4,0.5-0.8,1-0.8
	c1.3,0.6,2.7,0.5,4.1,0.5c57.2,0,114.4,0,171.5,0c4.3,0,8.6,0,12.9,0c1,0,2-0.2,2.8,0.5C488.6,305.5,488.4,305.8,488.2,306.1z"/>
<path class="st115" d="M488.7,305.2c-62.7,0-125.4,0-188.1,0c-1.1,0-2.5,0.5-3.3-0.9c0.3-0.2,0.6-0.4,0.9-0.6
	c0.9,1.1,2.1,0.6,3.2,0.6c61.4,0,122.8,0,184.2,0c1,0,2.1-0.4,3,0.5C488.7,304.8,488.7,305,488.7,305.2z"/>
<path class="st116" d="M127.9,396c-0.8,0.8-1.9,0.4-2.8,0.4c-18.6,0-37.1,0-55.7,0c-4.2,0-8.4,0-12.6,0c-1.2,0-2.3,0-3.1,1
	c-1-0.6-1.3-1.6-1.9-2.5c0.4-1.6,1.7-0.9,2.6-0.9c22.5,0,45,0,67.4,0c1.1,0,2.3,0.4,3.1-0.8C126,394.1,127,395.1,127.9,396z"/>
<path class="st117" d="M424.8,421.4c-1-0.6-2-0.5-3.1-0.5c-7,0-13.9,0-20.9,0c-0.8-0.5-1.8-0.2-2.6-0.2c-92.3,0-184.7,0-277,0
	c-14.3,0-28.6,0-43,0c-1.4,0-2.8,0.1-4,0.8c-0.2-0.2-0.3-0.3-0.5-0.5c0.1-0.7,0.4-1,1.1-1c0.7,0,1.5,0,2.2,0
	c115.1,0,230.3,0,345.4,0c1.1,0,2.3-0.5,3.2,0.5C425.4,420.7,425.1,421.1,424.8,421.4z"/>
<path class="st117" d="M74.2,421.4c1-1.3,2.5-1,3.8-1c51.3,0,102.7,0,154,0c55.2,0,110.5,0,165.7,0c1,0,2.1-0.4,3,0.5
	c-92.7,0-185.4,0-278.2,0c-14.8,0-29.6,0-44.4,0c-1.3,0-2.6-0.2-3.6,1C74.6,421.7,74.4,421.6,74.2,421.4z"/>
<path class="st50" d="M409.2,383.8c14.3,0,28.5,0,42.8,0c0.9,0,2.2-0.6,2.6,1c-0.5,1.1-1.1,2.1-1.9,2.9c-0.8-0.9-1.8-0.5-2.8-0.5
	c-13.6,0-27.1,0-40.7,0C408.3,386,408.3,384.9,409.2,383.8z"/>
<path class="st39" d="M436.5,408.7c-0.9-1.1-2.1-1-3.3-1c-10.3,0-20.6,0-30.9,0c-0.9-1.3-0.9-2.6,0-3.9c12.7,0,25.4,0,38.1,0
	C439.4,405.7,438.3,407.4,436.5,408.7z"/>
<path class="st118" d="M402.3,355.4c21.8,0,43.6,0,65.3,0c1.1,0,2.3-0.4,3,1c-0.1,0.8-0.4,1.4-1,2c-12.1-0.6-24.1-0.1-36.2-0.3
	c-9.4,0-18.8,0-28.3,0c-1,0-2,0.1-2.8-0.5C401.7,357,401.8,356.2,402.3,355.4z"/>
<path class="st40" d="M126.4,462c0.9-1.1,2.1-0.6,3.2-0.6c44,0,88.1,0,132.1,0c0.3,0.5,0.3,0.9-0.3,1.2c-25.1,0.1-50.3,0-75.4,0
	c-18.2,0-36.4,0-54.7,0c-1,0-2.2-0.4-2.9,0.7C127.7,463,126.9,462.7,126.4,462z"/>
<path class="st46" d="M186.1,412.6c1.3,1,2.9,0.9,4.4,0.9c79.4,0,158.8,0,238.2,0c1.1,0,2.3,0,3.4,0c-0.3,0.3-0.7,0.7-1,1
	c-1-0.9-2.2-0.5-3.3-0.5c-80.3,0-160.6,0-240.9,0c-1.4,0-2.8,0.3-3.9-0.9C184.1,413,185.1,412.8,186.1,412.6z"/>
<path class="st67" d="M128.4,463.3c0.4-1.6,1.7-0.9,2.7-0.9c16.6,0,33.1,0,49.7,0c27,0,53.9,0,80.9,0c0.9-0.7,1.9-0.5,2.8-0.5
	c34.6,0,69.1,0,103.7,0c1,0,2.8-0.9,2.8,1.3c-0.2,0-0.3,0-0.5,0c-0.7-0.7-1.7-0.4-2.6-0.4c-72,0-144,0-216,0c-6.9,0-13.8,0-20.7,0
	c-0.9,0-1.8-0.3-2.5,0.6C128.7,463.4,128.6,463.4,128.4,463.3z"/>
<path class="st119" d="M494.1,270c-37.5,0-74.9,0-112.4,0c-1.2,0-2.7,0.5-3.4-1.1c0.4-0.5,0.8-0.9,1.5-0.9
	c36.6,0.6,73.2,0.1,109.8,0.3c1.5,0,3.1-0.3,4.5,0.8c0,0.2,0,0.3,0,0.5C494.1,269.7,494.1,269.9,494.1,270z"/>
<path class="st120" d="M491.2,292c-57.3,0-114.5,0-171.8,0c-1.2,0-2.7,0.6-3.5-1c0.1-0.3,0.2-0.4,0.5-0.4c1.5,0.6,3,0.7,4.5,0.7
	c37.7,0,75.4,0,113.2,0c1,0,2-0.2,2.9,0.2c0.9-0.5,1.9-0.5,2.8-0.5c16.3,0,32.6,0,48.8,0c0.9,0,1.8-0.3,2.5,0.5
	C491.2,291.7,491.2,291.8,491.2,292z"/>
<path class="st102" d="M110.4,370.6c-23.6,0-47.2,0-70.8,0c-1.1,0-2.3-0.4-3,1c-0.6-0.5-0.9-1.2-1-1.9c0.8-0.9,1.8-0.5,2.8-0.5
	c22.5,0,45.1,0,67.6,0c1.1,0,2.3,0.2,3.3-0.5C109.8,369.2,110.3,369.8,110.4,370.6z"/>
<path class="st40" d="M371.1,463.2c-0.5-1.5-1.8-0.9-2.7-0.9c-34.3,0-68.7,0-103,0c-1.2,0-2.4,0-3.7,0c0-0.3,0-0.7,0-1
	c35.9,0,71.9,0,107.8,0c1,0,2.1-0.4,3,0.5C372.2,462.5,371.8,463,371.1,463.2z"/>
<path class="st78" d="M484.8,319.3c-67.7,0-135.3,0-203,0c-1,0-2.1,0.4-3-0.5c1.2-1.1,2.8-0.8,4.2-0.8c21,0,42,0,62.9,0
	c33.1,0,66.2,0,99.3,0c1,0,2,0,2.9,0.1c11.3-0.1,22.6,0,34,0c1,0,2,0,2.7,0.8C484.8,319,484.8,319.2,484.8,319.3z"/>
<path class="st86" d="M4.9,233.4c0.3,0,0.7,0,1,0c0.8-0.4,1.8-0.2,2.6-0.2c47.3,0,94.5,0,141.8,0c17.4,0,34.7,0,52.1,0
	c0.9,0,1.8-0.1,2.7,0.2c0,1.2-1,1.1-1.7,1.2c-1,0.1-1.9,0-2.9,0c-62.3,0-124.7,0-187,0c-2.4,0-4.7,0-7.1-0.1c-0.5,0-0.9-0.1-1.4-0.1
	C4.9,234.1,4.9,233.7,4.9,233.4z"/>
<path class="st57" d="M417,348.1c19,0,38.1,0,57.1,0c0,0.7-0.1,1.3-0.5,1.9c-1-0.7-2.2-0.5-3.3-0.5c-17.8,0-35.5,0-53.3,0
	C416.6,349.1,416.6,348.6,417,348.1z"/>
<path class="st78" d="M484.8,318.8c-12.2,0-24.4,0-36.6,0c-0.5-0.7-0.5-1.3,0-2c12.4,0,24.7,0,37.1,0
	C485.2,317.6,485.5,318.3,484.8,318.8z"/>
<path class="st56" d="M475.5,345.2c-1-0.7-2.2-0.5-3.3-0.5c-34.9,0-69.7,0-104.6,0c-0.1-0.1-0.2-0.2-0.1-0.3c0-0.1,0.1-0.2,0.1-0.2
	c0.2,0,0.3,0,0.5,0c0.8-0.4,1.8-0.2,2.6-0.2c20.6,0,41.2,0,61.7,0c8.7,0,17.5,0,26.2,0c0.9,0,1.8-0.2,2.6,0.2
	c4.9-0.8,9.8-0.8,14.7,0C475.9,344.6,475.7,344.9,475.5,345.2z"/>
<path class="st118" d="M433.6,357.4c11,0,22.1,0,33.1,0c1.1,0,2.3-0.4,3,1c0,0.4-0.1,0.8-0.5,1c-4.5-0.9-9-0.4-13.5-0.5
	c-7.4-0.1-14.7,0-22.1,0C433.2,358.4,433.2,357.9,433.6,357.4z"/>
<path class="st111" d="M456.5,381.4c-0.8-0.9-1.8-0.5-2.8-0.5c-11.9,0-23.9,0-35.8,0c-0.3-0.3-0.3-0.7,0-1c12.1,0,24.2,0,36.3,0
	c0.9,0,2-0.4,2.8,0.5C457,380.8,456.9,381.1,456.5,381.4z"/>
<path class="st51" d="M441.4,337.4c12.4,0,24.7,0,37.1,0c0,0.5,0.1,1.1-0.5,1.5c-1-0.6-2-0.5-3.1-0.5c-11.2,0-22.4,0-33.6,0
	C441.1,338,441.1,337.7,441.4,337.4z"/>
<path class="st98" d="M481.9,328.6c-1-0.6-2.2-0.5-3.3-0.5c-17.6,0-35.2,0-52.8,0c-0.2-0.1-0.2-0.2-0.2-0.3c0.1-0.1,0.1-0.2,0.2-0.2
	c18.9,0,37.8,0,56.6,0C482.2,327.9,482.1,328.3,481.9,328.6z"/>
<path class="st0" d="M218.8,215.4c-0.6,1.5-1.6,2.6-2.6,3.9c-1.4,0.9-2.9,0.8-4.5,0.8c-19.7,0-39.4,0-59.1,0c-45.7,0-91.4,0-137.2,0
	c-3.2,0-6.5-0.2-9.7,0.7c-0.9-3.7,0.2-5.4,3.4-5.4c69.5,0,138.9,0,208.4,0C218,215.3,218.4,215.4,218.8,215.4z"/>
<path class="st108" d="M5.9,220.7c0.8-1.3,1.9-1.5,3.3-1.5c43.8,0,87.7,0,131.5,0c25.2,0,50.4,0,75.6,0c-0.7,1-1.2,2.2-2.2,3
	c-1.4,0.9-3,0.7-4.5,0.7c-21.6,0-43.1,0-64.7,0c-45.5,0-91.1,0-136.6,0c-0.8,0-1.6,0.1-2.4-0.3C5.9,222,5.9,221.4,5.9,220.7z"/>
<path class="st108" d="M5.9,222.7c1-0.6,2-0.5,3.1-0.5c22.3,0,44.6,0,66.8,0c19.8,0,39.7,0,59.5,0c25.1,0,50.2,0,75.3,0
	c1.1,0,2.3,0,3.4,0.1c-0.1,1.1-1,1.6-1.6,2.4c-0.6,0.2-1.3,0.3-1.9,0.3c-14.5-0.1-29.1,0.1-43.6-0.1c-13.6,0.2-27.1,0-40.7,0.1
	c-6.1,0-12.2,0-18.3,0c-1.2,0-2.5,0.1-3.5-0.8c-20.2,0-40.4,0-60.7,0c-10.9,0-21.9,0-32.8,0c-1.9,0-3.9-0.2-5.6,1
	C5.6,224.3,5.7,223.5,5.9,222.7z"/>
<path class="st121" d="M422.3,206.4c-0.2,1.5,0.5,2.1,2.1,2.1c21.3,0,42.7,0,64,0c1.3,0,2.1-0.6,2.8-1.5c1.7,1.2,1.1,3,0.8,4.4
	c-0.3,1.4-1.9,0.9-3,0.9c-22.7,0-45.4,0-68.1,0C421.2,210.4,421.6,208.4,422.3,206.4z"/>
<path class="st73" d="M376.9,229.5c-2.3,3.6-5.7,6.2-9,8.7c-23.5,17.9-57.1,16.4-79-3.4c-0.1-0.1-0.2-0.3-0.3-0.4
	c1.2-1.3,2.8-1.2,4.3-1.2c6.7,0,13.5,0,20.2,0c1,0,2,0.2,2.8-0.4c0.9-0.4,1.7-0.1,2.6,0.1c12,2.9,23.5,1.8,34.4-4.3
	c0.8-0.5,1.7-1,2.8-0.7c3.8,0.7,7.7,0.2,11.6,0.3c2.2,0.1,4.4,0,6.5,0C375,228.3,376.2,228.4,376.9,229.5z"/>
<path class="st13" d="M289.5,141.6c4.1-4,8.8-6.9,13.9-9.3c6.8-3.3,14-5.3,21.6-6c13.7-1.2,26.5,1.8,38.1,9.1
	c3.7,2.3,7.3,5,10.4,8.3c-0.5,1.8-2.1,1.6-3.4,1.6c-6.8,0-13.6,0.2-20.4-0.1c-0.5,0-1,0-1.4,0c-2.9-0.1-5.4-1.6-8.2-2
	c-7.2-1.3-14.3-1.2-21.4,0.5c-1,0.3-2,0.6-3.1,0.4c-1.4-0.7-3-0.6-4.5-0.6c-6.2,0-12.3,0.1-18.5,0
	C291.4,143.3,289.7,143.6,289.5,141.6z"/>
<path class="st73" d="M27.3,243.3c-3.1-1.2-6.3-2.4-9.3-3.9c0.1-1.1,1-1.1,1.8-1.3c1-0.2,2.1-0.1,3.2-0.1c32.9,0,65.8,0,98.7,0
	c25.5,0,51,0,76.6,0c1.5,0,3.1-0.4,4.4,0.8c-0.8,1.5-1.5,2.9-2.9,3.9c-1.3,0.9-2.8,0.6-4.3,0.6c-49.3,0-98.5,0-147.8,0
	C41,243.4,34.2,243.5,27.3,243.3z"/>
<path class="st122" d="M179.8,272.5c-0.1,0.2-0.2,0.4-0.3,0.7c-1.4,2.8-3.4,3.9-6.8,3.9c-12.5,0.1-24.1,3.6-34.7,10.3
	c-0.7,0.5-1.4,1-2.4,0.5c-12.3-5.2-24.6-10.3-36.9-15.4c0.6-1,1.7-1.2,2.8-1.3c1.1-0.1,2.1-0.1,3.2-0.1c23.5,0,46.9,0,70.4,0
	C176.6,271.2,178.5,270.8,179.8,272.5z"/>
<path class="st123" d="M202.7,238.8c-10.5,0.1-21,0-31.5,0.1c-7.6,0-15.3-0.1-22.9-0.1c-42.4,0-84.9,0-127.3,0c-1,0-2.1-0.4-3,0.5
	c-2.9-0.9-5.6-2-8.3-3.4c0.1-1.3,1.2-1.2,2-1.3c1-0.1,1.9,0,2.9,0c62.8,0,125.6,0,188.3,0c0.9,0,1.8-0.2,2.6,0.3
	C204.8,236.3,204.2,237.8,202.7,238.8z"/>
<path class="st119" d="M179.8,272.5c-1.3-0.4-2.7-0.5-4.1-0.5c-24.4,0-48.7,0-73.1,0c-1.4,0-2.7,0.1-4.1,0.6
	c-5.6-2-11.1-4.3-16.5-6.8c0-1.1,1-1.1,1.7-1.3c0.9-0.2,1.8-0.1,2.7-0.1c32.1,0,64.1,0,96.2,0c0.8,0,1.6-0.1,2.4,0.3
	C183.6,267.5,181.7,270,179.8,272.5z"/>
<path class="st124" d="M196.8,247.2c-0.3,1.4-1.6,2-2.1,3.3c-1.2,1-2.6,0.7-4,0.7c-45.8,0-91.6,0-137.4,0c-1.9,0-3.7,0-5.6,0.4
	c-3.7-1.3-7.3-2.8-10.8-4.5c0.6-1,1.7-1.2,2.8-1.3c1.2-0.1,2.4-0.1,3.7-0.1c35.5,0,71.1,0,106.6,0c14.4,0,28.8-0.1,43.2,0
	C194.5,245.8,196.3,245.1,196.8,247.2z"/>
<path class="st90" d="M196.8,247.2c-0.6-0.9-1.6-0.6-2.5-0.6c-12.9,0.1-25.8,0.2-38.7,0.1c-38.1-0.2-76.2,0-114.3-0.1
	c-1.5,0-2.9,0.1-4.3,0.6c-2.9-0.8-5.5-2.1-8.2-3.4c-0.1-0.5,0.1-0.8,0.6-0.8c0.7-0.1,1.5,0,2.2,0c55.1,0,110.3,0,165.4,0
	c0.9,0,1.8-0.2,2.6,0.2C198.9,244.7,198.1,246.1,196.8,247.2z"/>
<path class="st54" d="M71.3,261.3c-4.1-1.2-8-2.9-11.8-4.9c0.7-1,1.8-1.1,2.8-1.2c0.9-0.1,1.8-0.1,2.7-0.1c40.3,0,80.6,0,121,0
	c1.7,0,3.6-0.4,5,1.3c-0.8,1.6-1.8,3-3,4.4c-1.1,0.4-2.2,0.3-3.4,0.3c-37,0-74,0-111.1,0C72.7,261.1,72,261.1,71.3,261.3z"/>
<path class="st49" d="M190.9,256.3c-1.3-0.4-2.5-0.5-3.8-0.5c-41,0-82,0-123,0c-1.6,0-3,0.4-4.6,0.6c-3.2-1-6.3-2.4-9.4-3.8
	c0.7-1.5,2.1-1.3,3.4-1.3c18.7,0,37.4,0,56.1,0c26.8,0,53.7,0,80.5,0c1.3,0,2.6-0.3,3.7,0.7C193.1,253.5,192.1,255,190.9,256.3z"/>
<path class="st54" d="M71.3,261.3c0.6-1.4,1.9-1,3-1c20.4,0,40.8,0,61.2,0c16.4,0,32.9,0,49.3,0c1,0,2.1-0.2,3.1,0.5
	c-0.7,1.5-2,2.6-2.9,3.9c-1,0.7-2.2,0.5-3.3,0.5c-32.2,0-64.5,0-96.7,0c-1,0-2.1-0.4-3,0.5C78.4,264.4,74.8,263,71.3,261.3z"/>
<path class="st39" d="M339.8,407.7c-44.4,0-88.7,0-133.1,0c-1.1,0-2.3,0.5-3.2-0.6c2.8-1.6,5.6-3.2,8.4-4.7c0.1,1,0.6,1.5,1.6,1.5
	c0.7,0,1.5,0,2.2,0c41.4,0,82.8,0,124.1,0C340.8,405.1,340.8,406.4,339.8,407.7z"/>
<path class="st21" d="M268.5,184.8c0.3-9.9,3.1-19.1,8.2-27.6c1.6-0.8,3.2-0.2,4.8-0.2c4.3,0.1,8.6-0.4,12.9,0.3
	c1.4,1.1,0.2,2-0.4,2.8c-1.9,2.8-3.8,5.6-5.3,8.7c-2.6,5.5-3.7,11.4-4.3,17.4c-0.1,1,0,2.2-1.2,2.7c-4.3,0.6-8.7,0.3-13,0.2
	c-1.4,0-2-0.8-1.9-2.2C268.4,186.3,268.2,185.5,268.5,184.8z"/>
<path class="st106" d="M239.3,364.7c0.1,0,0.3,0,0.4,0c0.9,0.5,1.9,0.2,2.9,0.2c37.6,0,75.2,0,112.8,0c9.6,0,19.1,0,28.7,0
	c0.9,0,1.8-0.2,2.6,0.2c0,1.1,0,2.3,0,3.4c-0.8,0.8-1.8,0.8-2.7,0.8c-4.3,0-8.6,0.1-12.9,0c-10.4,0.1-20.8,0.1-31.2,0
	c-10.4,0.1-20.8,0.1-31.2,0c-13.2,0.1-26.3,0.1-39.5,0.1c-9.1,0-18.2,0-27.3,0c-1.3,0-2.6,0.2-3.7-0.8
	C238.6,367.3,239,366,239.3,364.7z"/>
<path class="st119" d="M494.1,269c-36.5,0-72.9,0-109.4,0c-1.7,0-3.4,0-4.8-1.1c1.9-1.3,3.9-2.6,5.8-4c0.8,1.1,1.9,0.6,2.9,0.6
	c33.7,0,67.4,0,101.1,0C494.1,264.6,494.1,264.6,494.1,269z"/>
<path class="st125" d="M348,144.6c4.4,0,8.7,0,13.1,0c3.2,0,6.3,0,9.5,0c1.1,0,2.1-0.1,2.9-0.9c6.5,5.6,10.9,12.6,14.2,20.4
	c0.5,1.3,1,2.6,1.5,3.9c0.5,1.8-1,1.6-1.9,1.7c-1.9,0.2-3.9,0.1-5.8,0.1c-2.4,0-4.7,0-7.1,0.2c-1.4-0.1-1.8-1.2-2.4-2.2
	c-5-9.7-12.4-16.9-22.3-21.5C349,145.8,348.1,145.6,348,144.6z"/>
<path class="st50" d="M146.5,390.1c-2.9-1.5-5.5-3.5-7.8-5.9c0.8-1.4,2.2-1.2,3.4-1.2c6.5,0.1,12.9-0.3,19.4,0.2
	c0.6,0,1.1,0,1.6-0.4c8.6,1.8,16.8,0.9,24.9-2.5c6.6,0.4,13.2,0,19.9,0.2c1.4,0,3-0.2,4,1.2c-3,3.4-6.5,6.2-10.4,8.4
	c-1.6,0.5-3.2,0.2-4.8,0.2c-15.4,0-30.8,0-46.3,0C149,390.4,147.7,390.5,146.5,390.1z"/>
<path class="st9" d="M373.6,169.4c4.4-0.9,8.8-0.3,13.3-0.5c0.9,0,2.1,0.5,2.3-1c3.2,8.2,4,16.7,3.3,25.5c-0.1,1.6-1.1,2.2-2.6,2.2
	c-3.5,0-6.9,0-10.4,0c-1.9,0-2.9-0.9-2.8-2.8c0.2-7.3-0.5-14.4-3.2-21.3C373.3,170.8,373,170.1,373.6,169.4z"/>
<path class="st26" d="M268.5,184.8c0,0.5,0.1,1,0,1.5c-0.2,1.7,0.5,2.3,2.2,2.2c4.3-0.1,8.6,0,12.9,0c1,1.2,1,2.7,1.1,4.1
	c0.5,5.5,2,10.6,4,15.7c0.3,0.8,0.8,1.6,0.4,2.5c-0.3,0.4-0.8,0.6-1.3,0.6c-5,0.2-10,0.4-15-0.1C269.2,203,267.7,194.1,268.5,184.8z
	"/>
<path class="st126" d="M494.6,259.3c-15.4,0-30.8,0-46.3,0c-17.6,0-35.2,0-52.8,0c-1.1,0-2.3,0.4-3-1c1.3-1.1,2.6-2.3,3.9-3.4
	c1,1.3,2.5,1,3.8,1c30.3,0,60.6,0,91,0C494.6,255.9,494.6,255.9,494.6,259.3z"/>
<path class="st4" d="M294.9,157.7c-4.7,0-9.4,0-14.1,0c-1.4,0-2.7-0.1-4.1-0.5c1.9-4.3,4.9-7.8,8.1-11.1c1.5-1.6,3.1-3,4.7-4.5
	c0.6,1.3,1.7,1,2.7,1c6.8,0,13.6,0,20.3,0c1.3,0,2.4,0.2,3.4,1c0,1.1-1,1.1-1.7,1.4c-6.1,2.5-11.7,5.8-16.2,10.7
	C297.2,156.6,296.5,157.9,294.9,157.7z"/>
<path class="st107" d="M174.3,303.7c-6.2-2.5-12.3-4.9-18.9-7.6c6.6-2.6,12.9-3.6,19.4-3.5c7.6,0.1,14.8,1.7,21.6,5.1
	c2.7,1.3,5.2,3.1,7.7,4.6c-0.6,1.9-2.3,1.6-3.7,1.6c-6.6,0.1-13.1,0-19.7,0C178.6,304,176.4,304.6,174.3,303.7z"/>
<path class="st78" d="M448.2,316.9c0,0.7,0,1.3,0,2c-56.5,0-112.9,0-169.4,0c-0.4-0.2-0.5-0.6-0.5-1c1-0.7,1.9-1.3,2.9-2
	c1.3,1.3,3,1.1,4.6,1.1C339.9,316.9,394.1,316.9,448.2,316.9z"/>
<path class="st88" d="M376.9,229.5c-2.5-0.9-5.1-0.4-7.7-0.5c-3.9-0.1-7.8,0-11.7,0c-0.8,0-1.9,0.3-2.1-1c0.9-2.1,3.2-2.9,4.8-4.2
	c3.8-3.1,6.7-6.8,9.4-10.8c0.6-1,1.2-2,2.7-1.6c4,0.6,8.1,0.1,12.1,0.3c1.2,0,2.5-0.2,3.4,0.8C385.2,218.8,381.9,224.7,376.9,229.5z
	"/>
<path class="st96" d="M146.5,390.1c1.3-0.4,2.7-0.5,4.1-0.5c15.4,0,30.9,0,46.3,0c1.6,0,3.1,0.1,4.6,0.6c-6.7,4.5-14.1,6.8-22,7.6
	c-11.4,1.2-22.1-1.1-32-6.9C147.1,390.7,146.8,390.4,146.5,390.1z"/>
<path class="st118" d="M402.3,355.4c0,0.7,0,1.3,0,2c-1,1-2.3,0.7-3.5,0.7c-18.9,0-37.7-0.1-56.6,0c-1.3,0-2.6-0.1-3.9,0.2
	c-10.2-0.3-20.3-0.1-30.5-0.1c-21.4-0.1-42.7,0-64.1,0c-0.9,0-1.8,0-2.5-0.7c0-0.7-0.3-1.4,0.2-2c1.2,0,2.4,0.1,3.7,0.1
	C297.5,355.4,349.9,355.4,402.3,355.4z"/>
<path class="st43" d="M238.2,368.6c23.5,0,46.9,0,70.4,0c1,1.5,1,2.9,0,4.4c-23,0-45.9,0-68.9,0c-1,0-2.1,0.4-3-0.6
	C237.1,371.1,237.5,369.8,238.2,368.6z"/>
<path class="st50" d="M315.4,387.2c-27.8,0-55.5,0-83.3,0c-1.2,0-2.5,0.4-3.2-1.1c0.6-1.4,1.6-2.5,2.5-3.7c1.6,0.6,3.3,0.6,5,0.6
	c24.9,0,49.7,0,74.6,0c1.4,0,2.9-0.2,4.3,0.6C316.3,384.7,316.3,386,315.4,387.2z"/>
<path class="st123" d="M205.7,234.9c-1.1,0.6-2.4,0.5-3.6,0.5c-63,0-126.1,0-189.1,0c-1.1,0-2.3-0.5-3.2,0.5
	c-1.2-0.2-2.4-0.8-3.4-1.4c0.9-1.1,2.1-0.6,3.2-0.6c64.2,0,128.4,0,192.6,0c1,0,2.1,0.4,3-0.5c0.3-0.3,0.7-0.3,1,0
	c0.2,0,0.4,0,0.6,0C206.5,234,206.2,234.5,205.7,234.9z"/>
<path class="st26" d="M387.8,212.5c-4.7,0-9.3,0-14-0.1c-0.9,0-2,0.4-2.3-1.1c-0.5-0.8,0-1.6,0.3-2.3c2.3-4.8,3.9-9.8,4.5-15
	c0.1-0.7,0.1-1.5,1-1.7c-0.2,1.9,0.4,2.7,2.6,2.6c3.4-0.2,6.8-0.1,10.2,0c1.3,0,1.9-0.5,2.4-1.5C392.1,200,390.6,206.4,387.8,212.5z
	"/>
<path class="st48" d="M226,352c-0.6,5.8-2.3,11.3-4.9,16.6c-0.5,0.4-1.1,0.7-1.8,0.7c-4.5,0.1-9,0.2-13.5-0.1
	c-1-0.1-2.2-0.2-2.2-1.7c3.2-5.2,5.6-10.7,6.8-16.7c1.3,0.8,2.7,0.8,4.2,0.9C218.4,351.9,222.2,351.4,226,352z"/>
<path class="st127" d="M203.6,367.6c0.8,1,1.9,1.1,3,1.1c4.8,0,9.6,0,14.5,0c-2.3,5-5.3,9.4-9.2,13.2c-1.6-0.6-3.4-0.5-5.1-0.5
	c-5.5,0-11.1,0-16.6,0c-0.8,0-1.9,0.4-2.2-0.9C194.1,377.3,199.4,373.1,203.6,367.6z"/>
<path class="st128" d="M316.4,233c-0.3,1.3-1.4,0.9-2.2,0.9c-6.3,0-12.5,0-18.8,0c-2.3,0-4.5-0.1-6.8,0.5c-3.9-3.3-7.3-7.2-10-11.7
	c1-1,2.2-0.7,3.4-0.8c5-0.2,10,0.3,15-0.3c0.9-0.4,1.6-0.1,2.2,0.5c4.8,4.6,10.2,8.2,16.6,10.3C316.1,232.6,316.3,232.8,316.4,233z"
	/>
<path class="st111" d="M315.4,383.8c-27.1,0-54.2,0-81.3,0c-1,0-2.7,0.8-2.7-1.4c0.4-0.7,0.9-1.4,1.3-2.1c18.7,0.2,37.4,0,56.1,0.1
	c1.3,0,2.6-0.1,3.9,0.2c9,0.1,18,0,27,0.1c0.8,0,1.6,0,2.4,0c2.3,0.2,2.7,0.7,2.2,3.1C321.4,385,318.4,385,315.4,383.8z"/>
<path class="st83" d="M174.3,303.7c9-1,17.9-0.3,26.9-0.5c1.1,0,2.1-0.1,2.9-0.9c3.9,2.3,7,5.5,9.9,9c0.4,2-1.2,1.8-2.3,1.9
	c-3.6,0.2-7.3,0.1-10.9,0.1c-2.2,0-4.4,0.2-6.5-0.2C188,309,180.8,307,174.3,303.7z"/>
<path class="st56" d="M226,352c-1.9,1-4,0.4-6,0.5c-2.6,0.1-5.2,0-7.8,0c-1.2,0-1.9-0.4-1.8-1.6c0.3-4.5,0.4-9-0.3-13.5
	c0.4-0.8,1.2-1.1,2-1.2c4-0.1,8.1-0.2,12.1,0c0.6,0,1.1,0.3,1.5,0.6C226.8,341.9,226.8,347,226,352z"/>
<path class="st97" d="M225.7,336.9c-4.3,0-8.5,0-12.8,0c-1,0-1.9-0.1-2.8,0.5c-1.1-4.8-3-9.3-5.5-13.6c1-1,2.2-0.7,3.4-0.8
	c4.4-0.1,8.8,0.2,13.3-0.3C223.7,327.1,225,331.9,225.7,336.9z"/>
<path class="st129" d="M193.9,252c-26.6,0-53.2,0-79.8,0c-20.2,0-40.3,0-60.5,0c-1.2,0-2.4-0.1-3.5,0.6c-0.9,0-1.6-0.4-2.3-0.9
	c0.6-1.6,2-1.1,3.1-1.1c18.7,0,37.4,0,56.1,0c29.3,0,58.5,0,87.8,0C194.8,251.2,194.4,251.6,193.9,252z"/>
<path class="st130" d="M221.2,322.7c-0.5,1.3-1.7,1-2.7,1c-4.7,0-9.3,0-14,0c-2.9-4.1-6.4-7.6-10.3-10.7c1-0.6,2-0.5,3.1-0.5
	c4.8,0,9.6,0,14.4,0c0.9,0,2.1,0.3,2.3-1.2C217.1,314.6,219.4,318.5,221.2,322.7z"/>
<path class="st131" d="M297.8,221.8c-0.6,1-1.7,0.8-2.6,0.8c-5.5,0-11,0-16.5,0c-2.5-3.4-4.5-7.2-5.9-11.2c1.3-0.8,2.8-0.5,4.2-0.5
	c3.2,0,6.4,0,9.7,0c0.8,0,1.8,0.3,2.4-0.7c0.8,0,1.1,0.5,1.5,1.1c2.1,3.4,4.3,6.7,6.9,9.6C297.8,221.2,297.8,221.5,297.8,221.8z"/>
<path class="st44" d="M163.1,382.9c-0.3,1.3-1.4,0.9-2.2,0.9c-6.4,0-12.8,0-19.2,0c-1,0-2.1-0.1-3.1,0.5c-5.1-4.2-8.7-9.5-11.7-15.3
	c0.8-0.7,1.3-0.1,1.8,0.1c8.5,3.5,16.9,6.9,25.3,10.5C157.1,380.9,159.9,382.4,163.1,382.9z"/>
<path class="st132" d="M302.7,300.3c1,1.1,2.3,0.9,3.6,0.9c16.2,0,32.4,0,48.5,0c43.8,0,87.6,0,131.4,0c1,0,2.4-0.8,2.9,0.9
	c-61.5,0-123,0-184.5,0c-1,0-2.6,0.8-3-1.1C302,300.8,302.2,300.4,302.7,300.3z"/>
<path class="st118" d="M241.3,357.4c20.5,0,40.9,0,61.4,0c10.9,0,21.7,0,32.6,0c1.1,0,2.1-0.1,3.1,0.5c0.5-0.3,1.1-0.2,1.7-0.2
	c9.7,0,19.5,0,29.2,0c0.7,0,2.3-0.8,1.8,1.2c-20.8,0-41.6,0-62.4,0c-21.5,0-43,0-64.6,0c-1,0-2.1,0.4-3-0.6
	C241.2,358,241.2,357.7,241.3,357.4z"/>
<path class="st57" d="M242.7,345.2c0,0.3,0,0.7,0,1c-0.1,1.3,0.5,2,1.8,2c0.6,0,1.3,0,2,0c36,0,72,0,108,0c0.4,0.5,0.4,1,0,1.5
	c-37.4,0-74.8,0-112.3,0c0.2-2.1-0.6-4.2,0.5-6.2c0,0.1,0,0.3,0,0.4c0.2,0.3,0.4,0.6,0.3,0.9C243,344.9,242.8,345,242.7,345.2z"/>
<path class="st51" d="M252.9,336c0.4,1.3,1.6,1.2,2.6,1.4c0.7,0.1,1.5,0,2.2,0c40.4,0,80.8,0,121.2,0c0.3,0.3,0.3,0.7,0,1
	c-9.6,0-19.1,0-28.7,0c-1,0-2.1-0.1-3.1,0.5c-0.7-0.4-1.4-0.2-2.1-0.2c-20.2,0-40.4,0-60.7,0c-0.7,0-1.5-0.2-2.1,0.2
	c-0.2,0-0.3,0-0.5,0c-0.9-0.4-1.9-0.2-2.9-0.2c-8.4,0-16.8,0-25.3,0c-0.9,0-1.8,0.2-2.6-0.2c-0.2-0.2-0.4-0.4-0.5-0.6
	C251,336.9,252.1,336.5,252.9,336z"/>
<path class="st111" d="M292.5,381.3c-1-0.6-2.2-0.5-3.3-0.5c-17.7,0-35.4,0-53.1,0c-1.1,0-2.3,0.1-3.3-0.6c0.2-0.3,0.4-0.7,0.6-1
	c0.8,1,2,0.6,3,0.6c39.7,0,79.4,0,119.1,0c0.3,0.5,0.3,0.9-0.2,1.3c-0.8,0.5-1.7,0.5-2.6,0.5c-8.6,0-17.3,0.5-25.9-0.1
	c-10.6-0.7-21.1-0.1-31.7-0.4C294.2,381.1,293.3,380.8,292.5,381.3z"/>
<path class="st113" d="M167,224.1c14.1,0,28.1,0,42.2,0c1.1,0,2.3-0.1,3.3,0.5c-0.4,0.8-0.6,1.6-1.5,2c-0.7-1-1.8-0.6-2.7-0.6
	c-13.8,0-27.5,0-41.3,0C166.5,225.4,166.5,224.8,167,224.1z"/>
<path class="st73" d="M199.7,243.2c-55.9,0-111.8,0-167.7,0c-1.1,0-2.3-0.5-3.2,0.6c-0.5-0.2-1.1,0.1-1.5-0.5
	c0.6-0.8,1.5-0.6,2.2-0.6c56.5,0,113,0,169.5,0c0.2,0,0.5,0,0.7,0C199.8,242.9,199.8,243,199.7,243.2z"/>
<path class="st98" d="M425.7,327.6c0,0.2,0,0.3,0,0.5c-52.4,0-104.9,0-157.3,0c-1.1,0-2.5,0.5-3.3-0.9c0.3-0.2,0.6-0.4,0.9-0.6
	c0.7,1.5,2.1,1,3.2,1c42.1,0,84.3,0,126.4,0C405.7,327.6,415.7,327.6,425.7,327.6z"/>
<path class="st120" d="M437,291.5c-39.1,0-78.2,0-117.3,0c-1.1,0-2.5,0.5-3.3-0.9c0.3-0.2,0.6-0.4,0.9-0.6c1,1.3,2.4,1.1,3.8,1.1
	c37.6,0,75.2,0,112.8,0C435,291,436.1,290.6,437,291.5z"/>
<path class="st89" d="M226.1,412.1c-10,0-20,0-30,0c-0.9,0-2.1,0.3-2.3-1.1c0.2-0.1,0.4-0.2,0.6-0.3c0.6,1.2,1.8,0.9,2.8,0.9
	c8.8,0,17.6,0,26.4,0C224.4,411.6,225.4,411.3,226.1,412.1z"/>
<path class="st62" d="M178.2,413.6c-2.9,0.6-5.8,0.7-8.8,0C172.4,413.6,175.3,413.6,178.2,413.6z"/>
<path class="st53" d="M337.4,281.8c-1.6,0.8-3.4,0.2-5.1,0.4C334,281.7,335.7,281.8,337.4,281.8z"/>
<path class="st3" d="M336.7,94.8c1.2,0.1,2.4-0.4,3.6,0.4C339.1,95.2,337.9,95.3,336.7,94.8z"/>
<path class="st3" d="M320.8,95.1c1-0.7,2.1-0.3,3.1-0.3C322.9,95.2,321.9,95.2,320.8,95.1z"/>
<path class="st3" d="M181.2,86c0.7-0.8,1.7-0.5,2.5-0.5c37.9,0,75.7,0,113.6,0c0.9,0,1.8-0.3,2.5,0.5C260.3,86,220.7,86,181.2,86z"
	/>
<path class="st3" d="M69.9,85.5c35.9,0,71.9,0,107.8,0c1,0,2.1-0.4,3,0.5c-36.1,0-72.2,0-108.3,0C71.5,86,70.6,86.3,69.9,85.5z"/>
<path class="st24" d="M44.5,117.2c45.5,0,91.1,0,136.6,0c1,0,2.1-0.4,3,0.5c-45.5,0-91.1,0-136.6,0
	C46.5,117.7,45.4,118.1,44.5,117.2z"/>
<path class="st133" d="M11.8,194.8c72.5,0,145,0,217.6,0c1,0,2.1-0.4,3,0.4c-0.9,0-1.8,0-2.7,0c-71.6,0-143.3,0-214.9,0
	C13.8,195.3,12.7,195.7,11.8,194.8z"/>
<ellipse class="st39" cx="371.1" cy="405.7" rx="44.2" ry="2.8"/>
<path class="st89" d="M292,412.1c-21.8,0-43.6,0-65.4,0c0.8-0.8,1.8-0.5,2.8-0.5c20.9,0,41.8,0,62.6,0c0.2,0.1,0.2,0.2,0.2,0.3
	C292.1,412,292,412.1,292,412.1z"/>
<path class="st89" d="M292,412.1c0-0.2,0-0.3,0-0.5c20.8,0,41.7,0,62.5,0c0.2,0.1,0.2,0.2,0.2,0.3c-0.1,0.1-0.1,0.2-0.2,0.2
	C333.6,412.1,312.8,412.1,292,412.1z"/>
<path class="st89" d="M354.5,412.1c0-0.2,0-0.3,0-0.5c18.8,0,37.5,0,56.3,0c0.9,0,2-0.4,2.8,0.5
	C393.9,412.1,374.2,412.1,354.5,412.1z"/>
<path class="st89" d="M433.1,412.6c-6.3-0.9-12.7-0.3-19-0.5c0.5-0.6,1.1-0.5,1.8-0.5c5,0,10,0,15,0
	C431.7,411.6,432.6,411.5,433.1,412.6z"/>
<path class="st43" d="M308.6,373c0-1.5,0-2.9,0-4.4c10.4,0,20.8,0,31.2,0c1,1.5,1,2.9,0,4.4C329.4,373,319,373,308.6,373z"/>
<path class="st43" d="M339.8,373c0-1.5,0-2.9,0-4.4c10.4,0,20.8,0,31.2,0c1,1.5,1,2.9,0,4.4C360.7,373,350.2,373,339.8,373z"/>
<path class="st43" d="M371.1,373c0-1.5,0-2.9,0-4.4c5.2,0,10.4,0,15.6,0c5.2,0,10.4,0,15.6,0c0,1.5,0,2.9,0,4.4
	C391.9,373,381.5,373,371.1,373z"/>
<path class="st111" d="M355.4,380.8c0-0.3,0-0.7,0-1c20.8,0,41.7,0,62.5,0c0,0.3,0,0.7,0,1c-10.4,0-20.8,0-31.2,0
	c-0.9,0.8-2.1,0.8-3.2,0.8c-8.3,0-16.5,0-24.8,0C357.5,381.6,356.4,381.7,355.4,380.8z"/>
<path class="st47" d="M150.4,233.4c-48.2,0-96.3,0-144.5,0c0.9-0.9,2-0.5,3-0.5c47.2,0,94.3,0,141.5,0c0.2,0.1,0.2,0.2,0.2,0.3
	C150.5,233.3,150.5,233.4,150.4,233.4z"/>
<path class="st47" d="M150.4,233.4c0-0.2,0-0.3,0-0.5c17.6,0,35.3,0,52.9,0c0.9,0,2-0.4,2.8,0.5c-0.3,0-0.7,0-1,0
	C186.9,233.4,168.6,233.4,150.4,233.4z"/>
<path class="st118" d="M371.1,358.9c-0.3-1.5-1.5-1-2.4-1c-10.1,0-20.2,0-30.3,0c0.8-0.8,1.8-0.5,2.8-0.5c20.4,0,40.8,0,61.2,0
	c10.4,0,20.8,0,31.2,0c0,0.5,0,1,0,1.5C412.7,358.9,391.9,358.9,371.1,358.9z"/>
<path class="st50" d="M409.2,383.8c0,1.1,0,2.3,0,3.4c-10.4,0-20.8,0-31.2,0c-0.9-1.2-0.9-2.4,0-3.6c3-0.9,5.9-1.1,8.8,0.2
	C394.2,383.8,401.7,383.8,409.2,383.8z"/>
<path class="st50" d="M377.9,383.8c0,1.1,0,2.3,0,3.4c-10.4,0-20.8,0-31.2,0c-0.9-1.2-0.9-2.4,0-3.6c1.1-0.7,2.3-0.6,3.5-0.6
	c8,0,16,0,24,0C375.5,383,376.8,382.8,377.9,383.8z"/>
<path class="st50" d="M346.7,383.8c0,1.1,0,2.3,0,3.4c-10.4,0-20.8,0-31.2,0c0-1.1,0-2.3,0-3.4c2.9,0,5.9,0,8.8,0
	c0.8-0.7,1.8-0.8,2.7-0.8c5.7,0,11.3,0,17,0C344.9,383,345.9,383,346.7,383.8z"/>
<path class="st51" d="M282.2,338.9c0.7-0.8,1.7-0.5,2.5-0.5c20,0,39.9,0,59.9,0c0.9,0,1.8-0.3,2.5,0.5
	C325.5,338.9,303.9,338.9,282.2,338.9z"/>
<path class="st51" d="M441.4,337.4c0,0.3,0,0.7,0,1c-10.4,0-20.8,0-31.2,0c-0.3-0.3-0.3-0.7,0-1C420.5,337.4,431,337.4,441.4,337.4z
	"/>
<ellipse class="st51" cx="394.5" cy="337.9" rx="22.1" ry="0.7"/>
<path class="st51" d="M251,338.4c9.4,0,18.8,0,28.2,0c0.9,0,1.8-0.3,2.5,0.5c-9.5,0-19,0-28.5,0C252.5,338.8,251.6,339.1,251,338.4z
	"/>
<path class="st56" d="M367.7,344.2c0,0.2,0,0.3,0,0.5c-0.2,0-0.3,0-0.5,0c-0.3-0.2-0.6-0.3-0.9-0.3c-9.6,0-19.3,0-28.9,0
	c-0.3,0-0.6,0.1-0.9,0.3c-0.2,0-0.3,0-0.5,0c-29.1,0-58.1,0-87.2,0c-1,0-2.5,0.7-3.1-0.9c39.7,0,79.4,0,119,0
	C365.6,343.8,366.8,343.3,367.7,344.2z"/>
<path class="st56" d="M245.6,343.7c0.8,0.8,1.8,0.5,2.8,0.5c28.3,0,56.5,0,84.8,0c0.9,0,2-0.4,2.8,0.5c-0.2,0.2-0.3,0.3-0.5,0.5
	c-0.9-0.5-1.9-0.2-2.9-0.2c-29.1,0-58.2,0-87.3,0c-0.9,0-1.8,0.2-2.6-0.2c0-0.3,0-0.7,0-1C243.7,343.7,244.6,343.7,245.6,343.7z"/>
<path class="st56" d="M432.6,344.2c-21.5,0-43,0-64.4,0c0.8-0.8,1.8-0.5,2.8-0.5c20.6,0,41.1,0,61.7,0c0.2,0.1,0.2,0.2,0.2,0.3
	C432.7,344.2,432.6,344.2,432.6,344.2z"/>
<path class="st56" d="M432.6,344.2c0-0.2,0-0.3,0-0.5c8.8,0,17.5,0,26.3,0c0.9,0,1.8-0.3,2.5,0.5
	C451.8,344.2,442.2,344.2,432.6,344.2z"/>
<path class="st57" d="M354.5,349.6c0-0.5,0-1,0-1.5c10.4,0,20.8,0,31.2,0c0.4,0.5,0.4,1,0,1.5C375.3,349.6,364.9,349.6,354.5,349.6z
	"/>
<ellipse class="st57" cx="401.3" cy="348.9" rx="22.1" ry="1"/>
<ellipse class="st95" cx="261.7" cy="466.3" rx="22.1" ry="2.1"/>
<ellipse class="st113" cx="135.8" cy="225.1" rx="44.2" ry="1.4"/>
<path class="st68" d="M242.7,344.7c29.9,0,59.8,0,89.7,0c1,0,2.1-0.4,3,0.5c-30.9,0-61.8,0-92.8,0
	C242.7,345,242.7,344.9,242.7,344.7z"/>
<path class="st56" d="M336.4,344.7c0.6-0.7,1.3-0.5,2-0.5c8.9,0,17.8,0,26.7,0c0.7,0,1.5-0.2,2,0.5
	C356.9,344.7,346.7,344.7,336.4,344.7z"/>
<path class="st106" d="M386.7,365.2c-10.4,0-20.8,0-31.2,0c-0.2-0.1-0.2-0.2-0.2-0.3c0.1-0.1,0.1-0.2,0.2-0.2c20.8,0,41.7,0,62.5,0
	c0.2,0.1,0.2,0.2,0.2,0.3c-0.1,0.1-0.1,0.2-0.2,0.2C407.5,365.2,397.1,365.2,386.7,365.2z"/>
<path class="st106" d="M417.9,365.2c0-0.2,0-0.3,0-0.5c9.2,0,18.5,0,27.7,0c0.9,0,1.8-0.3,2.5,0.5
	C438.1,365.2,428,365.2,417.9,365.2z"/>
<path class="st106" d="M355.4,364.7c0,0.2,0,0.3,0,0.5c-37.6,0-75.1,0-112.7,0c-1,0-2.1,0.4-3-0.5
	C278.3,364.7,316.9,364.7,355.4,364.7z"/>
<path class="st111" d="M346.7,383.8c-7.5,0-15,0-22.5,0c0.3-1.9-0.4-2.5-2.4-2.5c-9.8,0.1-19.6,0-29.4,0c0.8-0.8,1.8-0.5,2.8-0.5
	c20.1,0,40.1,0,60.2,0c10.4,0,20.8,0,31.2,0c0,1,0,2,0,2.9c-2.9,0-5.9,0-8.8,0C367.5,383.8,357.1,383.8,346.7,383.8z"/>
<path class="st1" d="M297.8,221.8c-3.6-3.3-6-7.5-8.7-11.6c-3.6-6.8-5-14.2-5.5-21.8c0.3-11.5,4-21.8,11.3-30.7
	c5.8-6.5,12.8-11.1,21-14.2c6.1-1.7,12.3-2.5,18.7-2c4.6,0.4,9,1.7,13.4,3c7.1,3.3,13.4,7.5,18.4,13.6c2.9,3.5,5.1,7.3,7.1,11.3
	c2.9,7.3,4.2,14.9,3.8,22.8c-0.8,6.7-2.8,13-5.9,19c-3.7,5.8-7.9,11-13.6,14.9c-0.8,0.6-1.7,1.2-2.5,1.8c-12.3,7.4-25.3,8.9-39,5
	c-6.2-1.5-11.2-5-16-9C299.5,223.3,298.7,222.6,297.8,221.8z"/>
</svg>
