<svg xmlns="http://www.w3.org/2000/svg" viewBox="0 0 339.26 280.56"><g id="katman_2" data-name="katman 2"><g id="katman_1-2" data-name="katman 1"><path d="M169.53,226.13a100.73,100.73,0,0,1-34.71-6.78,6.93,6.93,0,0,0-5.06.35c-7.07,3.69-14,7.68-21,11.55-2.94,1.63-6,2.85-9.09.57s-3.46-5.66-2.74-9.13c1.54-7.45,3.09-14.91,4.89-22.3a5.21,5.21,0,0,0-1.42-5.33C62.73,152.37,72.37,84.61,120.74,54.94c52.92-32.47,125.62-6,139.08,59.22,10.95,53.05-22.6,102.14-75.41,110.62C179.5,225.57,174.49,225.7,169.53,226.13Zm47.17-75.22a17.37,17.37,0,1,0-17.61-17.48A17.41,17.41,0,0,0,216.7,150.91Zm-93.82,0a17.37,17.37,0,1,0-17.52-17.18A17.37,17.37,0,0,0,122.88,150.91Zm46.78,0a17.37,17.37,0,1,0-17.33-17.26A17.18,17.18,0,0,0,169.66,150.91Z"/><path d="M201.14,263.59c0,1.51.06,2.87,0,4.23a13,13,0,0,1-12.82,12.63q-18.7.21-37.42,0a13,13,0,0,1-12.71-12.72q-.17-4.12,0-8.25a13,13,0,0,1,13-12.8c6.85-.13,13.72-.07,20.58,0,27,.13,50.44-9.36,71-26.43,14-11.61,24.72-25.86,31.15-42.86,2.74-7.23,3.48-15.25,4.87-22.95,1.22-6.76,2.07-13.58,3.09-20.37,2.26-15.13-1.71-29.32-7.28-43C255.73,44.6,210.41,16.67,160.5,20.31c-52.67,3.84-96.84,46.27-103.29,98.8-1.3,10.6,1.45,20.6,2.75,30.82,1.77,14,4.21,27.9,6.24,41.86,1.35,9.22-1.43,13.62-10.28,16.28a73.26,73.26,0,0,1-11.27,2.59c-12.42,1.64-22.17-3.74-29.14-13.34-17.72-24.38-20-50.92-8.1-78.28,5.21-12,15.06-19.73,28.14-22.62a38.17,38.17,0,0,1,5.11-.55C45.23,86,48.84,76.05,54.12,67.1,77.24,27.94,111.57,5.36,156.79.71,219.3-5.73,277,32.42,296.45,92.35c.72,2.23,1.27,3.9,4.31,4,15.6.72,25.88,9.56,31.57,23.27,11.18,27,9.06,53-8,77.09-5.64,8-13.39,13.89-23.57,14.16-5.58.14-11.24-1.67-16.81-2.87-2.07-.44-3.36-.4-4.72,1.52q-28.29,40.35-75.84,53.26C202.77,263,202.2,263.22,201.14,263.59Z"/></g></g></svg>