<?xml version="1.0" encoding="utf-8"?>
<!-- Generator: Adobe Illustrator 24.1.2, SVG Export Plug-In . SVG Version: 6.00 Build 0)  -->
<svg version="1.1" id="katman_1" xmlns="http://www.w3.org/2000/svg" xmlns:xlink="http://www.w3.org/1999/xlink" x="0px" y="0px"
	 viewBox="0 0 300 300" style="enable-background:new 0 0 300 300;" xml:space="preserve">
<path d="M300,24c0,37.5,0,75,0,112.5c-1.5,6.7-4.6,12.4-9.6,17.4c-44.5,44.4-88.9,88.8-133.2,133.3c-6,6-12.1,11.3-20.7,12.8
	c-2.5,0-5.1,0-7.6,0c-8.7-1.6-14.8-7.1-20.8-13.2c-31.5-31.7-63.2-63.4-94.9-94.9c-6-6-11.5-12.1-13.2-20.8c0-2.5,0-5.1,0-7.6
	c1.5-8.7,7-14.9,13.1-20.9C56.4,99.4,99.7,56.2,142.8,12.9c6-6,12.1-11.3,20.7-12.9c37.5,0,75,0,112.5,0c0.5,0.2,1.1,0.4,1.6,0.5
	c10.6,2.3,17.5,8.7,21.1,18.8C299.3,20.8,299.6,22.4,300,24z M150,158.8c18.6,0,37.3,0,55.9,0c5.9,0,9.9-4.3,9.3-9.9
	c-0.5-4.7-4.3-7.7-9.8-7.7c-36.9,0-73.8,0-110.6,0c-0.7,0-1.4,0-2,0c-3.3,0.5-5.8,2.1-7.2,5.3c-1.3,3.1-0.9,6.1,1.1,8.8
	c2,2.6,4.8,3.4,8,3.4C113.1,158.8,131.5,158.8,150,158.8z M150.1,175.7c-15.3-0.1-27.6,12.1-27.7,27.3
	c-0.1,15.2,12.1,27.7,27.3,27.8c15.3,0.1,27.8-12.2,27.9-27.5C177.6,188.1,165.4,175.8,150.1,175.7z M149.8,124.3
	c15.3,0.1,27.7-12.1,27.8-27.3c0.1-15.3-12.1-27.7-27.2-27.9C135,69,122.5,81.3,122.4,96.6C122.4,111.8,134.6,124.2,149.8,124.3z
	 M235.4,55.7c-0.1,4.9,3.7,8.8,8.6,8.9c4.8,0.1,8.8-3.8,8.9-8.6c0.1-4.7-3.9-8.8-8.7-8.9C239.5,46.9,235.5,50.9,235.4,55.7z"/>
<path d="M160,203.4c0,5.5-4.6,10-10.1,9.9c-5.5-0.1-9.9-4.6-9.9-10.1c0-5.6,4.5-9.9,10.1-9.9C155.7,193.3,160,197.8,160,203.4z"/>
<path d="M160,96.8c0,5.6-4.4,10-10,9.9c-5.6,0-10-4.4-10-10c0-5.5,4.5-10,10-10C155.6,86.7,160,91.2,160,96.8z"/>
</svg>
