<?xml version="1.0" encoding="utf-8"?>
<!-- Generator: Adobe Illustrator 24.1.2, SVG Export Plug-In . SVG Version: 6.00 Build 0)  -->
<svg version="1.1" id="katman_1" xmlns="http://www.w3.org/2000/svg" xmlns:xlink="http://www.w3.org/1999/xlink" x="0px" y="0px"
	 viewBox="0 0 300 300" style="enable-background:new 0 0 300 300;" xml:space="preserve">
<path d="M129.1,250.2c-0.9-0.7-2.6-1.6-3.9-3c-13.5-14.6-27-29.3-40.5-44c-18.9-20.6-37.8-41.1-56.7-61.7c-0.7-0.8-1.5-1.6-2.2-2.4
	c-1.8-2.1-2-4.5-0.4-6.7c1.6-2.3,4-2.8,6.5-1.7c3.8,1.7,7.6,3.5,11.4,5.3c26.2,12.3,52.5,24.5,78.6,36.9c2.5,1.2,4,0.8,5.8-1.1
	c45.3-47.5,90.7-94.9,136-142.3c1-1.1,2-2.2,3.1-3.1c2.1-1.8,4.7-1.7,6.7-0.1c2,1.6,2.5,4.2,1.3,6.6c-0.4,0.8-0.9,1.5-1.4,2.3
	c-45.7,70-91.4,140.1-137.1,210.1C134.9,247.7,133.3,250.1,129.1,250.2z"/>
</svg>
