<svg xmlns="http://www.w3.org/2000/svg" viewBox="0 0 383.22 383.43"><g id="katman_2" data-name="katman 2"><g id="katman_1-2" data-name="katman 1"><path d="M179.62,0h23.95c1,.21,1.91.47,2.88.62,9.84,1.53,19.81,2.43,29.49,4.65,73.8,16.87,131.87,78.65,144.37,153.32,1.17,7,1.95,14,2.91,21.06V203.6a16.64,16.64,0,0,0-.57,2.15c-1.28,8.87-2,17.85-3.89,26.6-25.26,118.76-156,184.45-266.3,133.86C31.05,328.85-13.37,242.51,3.58,154.56c14.9-77.35,77.3-138.45,155-151.66C165.55,1.71,172.6,1,179.62,0ZM26,160.14c.69-1.16,1.37-2.33,2.08-3.49,25-41.36,61.51-64.76,109.74-68,39.6-2.63,74.29,10.51,102.58,38.42,29.68,29.28,43.94,65.13,40.18,106.9-4.53,50.2-52.93,86.78-102.76,78.71A89.92,89.92,0,0,1,102.37,214c.13-1.25,0-2.52,0-4.84-1.29,2.43-2.13,3.91-2.87,5.44C89.88,234.85,87.41,256,91.29,278c7.2,40.76,42.6,75.19,83.58,81.37,18.81,2.84,37.3,1,55.66-3.18,72.56-16.41,127.6-83,130.11-157.3a170.7,170.7,0,0,0-23.24-93C302.58,45.68,230.38,12.15,162.24,25c-50.73,9.61-89.51,36.78-116.35,80.83A146.89,146.89,0,0,0,26,160.14Zm165.6,131.09A67.36,67.36,0,1,0,124.23,224,67.4,67.4,0,0,0,191.64,291.23Zm26.54-154.06c-.7-.6-1.56-1.44-2.52-2.17-25.85-19.8-54.91-27.68-87.14-22.83-66.16,10-109.3,76.06-92.15,140.61,6.72,25.28,21.68,45.1,40.19,62.72,2.11,2,4.38,3.85,7,6.14C59.62,274.17,59.92,228,91.4,185.38,122.77,142.87,166.08,127.46,218.18,137.17Z"/></g></g></svg>