<?xml version="1.0" encoding="utf-8"?>
<!-- Generator: Adobe Illustrator 24.1.2, SVG Export Plug-In . SVG Version: 6.00 Build 0)  -->
<svg version="1.1" id="katman_1" xmlns="http://www.w3.org/2000/svg" xmlns:xlink="http://www.w3.org/1999/xlink" x="0px" y="0px"
	 viewBox="0 0 300 300" style="enable-background:new 0 0 300 300;" xml:space="preserve">
<path d="M157,0c5,0.9,10,1.6,14.9,2.9c34.9,8.8,61,39.6,64.4,75.5c4,43.9-24.5,83.4-67.7,93c-6.3,1.4-13,1.9-19.5,2
	c-25,0.4-49.4,3.7-72.8,13c-13.2,5.2-25.7,11.9-36.5,21.3C29,217,23.6,229,23.4,243.2c-0.1,7,0,14.1,0,21.1
	c0,7.4,4.9,12.3,12.3,12.4c76.2,0,152.3,0,228.5,0c7.4,0,12.3-5,12.3-12.3c-0.1-9.2,0.2-18.4-0.6-27.5c-1-11.4-6.5-20.9-15.1-28.6
	c-8.7-7.8-18.7-13.6-29.4-18.5c-6.1-2.8-8.8-8.4-7.1-14.3c1.9-6.2,8.6-10.3,14.5-7.7c18.8,8,36,18.3,48.3,35.3
	c6.9,9.5,10.8,20.2,12.2,31.9c0.1,0.7,0.3,1.3,0.5,1.9c0,10.9,0,21.9,0,32.8c-0.2,0.6-0.5,1.2-0.6,1.9c-2.9,13.1-10.6,22-23.2,26.7
	c-2.2,0.8-4.4,1.3-6.7,1.9c-79.7,0-159.4,0-239.1,0c-0.6-0.2-1.2-0.5-1.9-0.6c-10.3-2.2-18.5-7.7-23.7-16.9c-2.2-4-3.3-8.6-4.9-12.9
	c0-10.9,0-21.9,0-32.8c0.2-0.5,0.4-1.1,0.5-1.6c2.3-18.8,10.8-34.2,25.3-46.3c16-13.4,34.4-22.5,54.2-28.7c5.4-1.7,11-3.1,16.5-4.6
	c-0.1-0.3-0.1-0.5-0.2-0.7c-0.3-0.3-0.7-0.6-1.1-1c-23.3-19.9-34-45.2-31.4-75.8c3-34.7,28.5-65.2,62.1-74.5
	C131.5,2,137.3,1.2,143,0C147.7,0,152.3,0,157,0z M213.3,86.8c0.1-34.8-28.2-63.2-63-63.4c-34.9-0.1-63.5,28.2-63.6,63
	c-0.1,34.9,28.2,63.5,63.1,63.5C184.7,150.1,213.2,121.7,213.3,86.8z"/>
</svg>
